<svg xmlns="http://www.w3.org/2000/svg" viewBox="0 0 100 100"><defs><style>.cls-1{fill:#231f20;}.cls-2{fill:#fff;}.cls-3{opacity:0.5;}.cls-4{fill:#e6e7e8;}</style></defs><title>cn_logo_1</title><g id="Layer_2" data-name="Layer 2"><g id="Layer_1-2" data-name="Layer 1"><circle class="cls-1" cx="50" cy="50" r="50"/><path class="cls-2" d="M72.2894,92.3359c7.1245-3.77,13.6776-8.7949,18.3065-15.4682,5.08-7.3235,7.3671-16.0885,7.569-24.9334A48.1764,48.1764,0,0,0,74.4379,9.2475,48.5461,48.5461,0,0,0,25.5988,9.56,49.8941,49.8941,0,0,0,1.8018,52.2388c.0871,9.742,4.44,18.787,10.8109,25.99a59.2391,59.2391,0,0,0,9.9786,8.93c1.9563,1.3958,4.3523,2.0067,6.5029,3.0735a12.0206,12.0206,0,0,1,2.2889,1.51l1.3.0074a3.3693,3.3693,0,0,0-.0466-2.4927,3.64,3.64,0,0,0-.172-.4978c.2144.2633-.6715-.09-.0434.1713.5.2084,1.1614.22,1.69.3977a14.6892,14.6892,0,0,1,1.9957.8443,8.3383,8.3383,0,0,1,3.2756,2.6044c.7364,1.134.4332,1.9593-.2414,2.9919-.3813.5835,1.0934.2814,1.3433.009.5365-.5849,3.9484-5.3178,2.1136-5.5661-.0418-.0056-.2739.2619-.2834.2491.0188.0253.2292-.04.2769-.0305a5.7634,5.7634,0,0,0,.9324-.0134,19.5675,19.5675,0,0,1,2.32.1917c.6218.0869,3.221.29,3.2478,1.2152.0122.4239,1.4644.1494,1.4489-.3882-.0323-1.1169-2.616-1.3962-3.36-1.5174a13.035,13.035,0,0,0-5.0091-.15c-.3215.081-1.0445.2828-1.0227.7263.0121.2443.2271.2319.318.41a1.2442,1.2442,0,0,1,.0791.99,9.97,9.97,0,0,1-2.4051,3.8739l1.3433.009c.8214-1.2572,1.1377-2.29.1981-3.6288a10.1359,10.1359,0,0,0-4.3781-3.1051c-1.2378-.5262-2.8593-1.1619-4.2288-.8263-.44.1078-.9546.3215-1.06.8065-.0864.3963.2983.8669.3724,1.2318a2.7869,2.7869,0,0,1-.1506,1.6868c-.2306.51,1.1546.1275,1.3.0074,1.3483-1.1152-3.59-3.0145-4.19-3.2759-1.0349-.4507-2.1051-.824-3.1367-1.2791a18.4774,18.4774,0,0,1-3.6445-2.5724C14.4269,79.1985,8.2924,71.8955,5.2591,63.2356c-3.0585-8.732-2.3392-18.3448.5165-27.0381a48.7382,48.7382,0,0,1,13.547-20.932A46.0745,46.0745,0,0,1,67.3572,7.0093,47.65,47.65,0,0,1,96.3707,44.9149a48.5381,48.5381,0,0,1-3.853,26.2934A43.6944,43.6944,0,0,1,76.541,88.9343c-1.6647,1.0849-3.3847,2.08-5.1407,3.0086-.8576.4538.4339.6339.8891.393Z"/><path class="cls-2" d="M32.11,78.9838a4.1908,4.1908,0,0,0,1.4883-.002c1.0233-.083,2.0434-.21,3.0648-.3137a58.1831,58.1831,0,0,1,8.6564-.3728,21.0618,21.0618,0,0,1,4.299.6075c.3489.0905,2.0225.3927,2.182.8861.1315.4066-1.7266.49-2.1136.5123-.2094.0122-3.1685-.1025-2.7962-.501.3537-.3786-.1039-.5815-.4792-.5094-1.1294.2169-2.2577.4452-3.3784.7033-.5133.1182-2.5.3427-2.5549,1.0976-.0488.6672,1.3871,1.1966,1.8289,1.3732a20.5975,20.5975,0,0,0,4.1631,1.0889,32.6618,32.6618,0,0,0,11.3127.0753,17.0458,17.0458,0,0,0,5.0862-1.692c.5677-.3087.4358-.43,1.0633-.1485a2.3034,2.3034,0,0,1,1.0539.9465c1.0515,1.9648-2.321,1.84-3.287,2.1374-.5591.172-.7695.6365-1.1127,1.0708a6.1212,6.1212,0,0,1-2.8854,2.3349l.6752.4706c.71-.5642,3.6037-2.7868,2.4234-3.824-.74-.6506-1.743-.0272-2.3056.5083-.951.9053-2.1671.8028-3.436.61A28.7359,28.7359,0,0,1,49.62,84.5341a5.3781,5.3781,0,0,0-2.6847-.5044c-2.3209.2047-5.5179,1.058-5.977,3.7371-.0807.471.8045.2885,1.0086.1992a13.89,13.89,0,0,1,4.2948-1.0539,9.1856,9.1856,0,0,1,4.294.554,6.9228,6.9228,0,0,1,1.8139,1.09c.4269.3569.775.97,1.2346,1.2543a8.8294,8.8294,0,0,0,1.4237.5038,13.9005,13.9005,0,0,1,2.2574,1.0422c.4305.2627,1.1649.6745.66,1.0984-.4184.3513-1.3989.2743-1.9135.3583a3.1726,3.1726,0,0,0-1.2595.49c-.1228.0758-.2367.2809-.37.319-.3958.1127-.9976-.2676-1.3717-.3028a1.5994,1.5994,0,0,0-1.0634.3043c-.9679.6-2.3331,1.8909-3.5572,1.5249l-.89.7781c1.7794.2538,2.5694-1.8553,3.0162-3.2046.1244-.3756.541-1.2886.2214-1.6506-.4439-.5029-1.3569.1562-1.6151.5455-.3622.5462,1.0872.4167,1.3474.0242.3284-.4952-.9019-.2853-1.0944.0363-.0547.0912-.0264.2626-.0628.37-.1292.3791-.21.7739-.3464,1.153a8.95,8.95,0,0,1-.5454,1.2541,5.5451,5.5451,0,0,0-.2953.4867c-.2055.4981-.5656.0894.264.2077-.4027-.0574-1.74.524-.89.7781,1.9219.5746,4.2-.9892,5.6451-2.1037l-1.0245.2745a3.7489,3.7489,0,0,0,3.2671-.1335,1.6969,1.6969,0,0,1,.97-.4255,9.7443,9.7443,0,0,0,1.96-.435c.5088-.1887,1.3522-.5539,1.2938-1.2265-.0508-.5851-.8219-1-1.262-1.2572-1.2212-.7143-3.0626-.9113-3.9629-1.9609-1.8106-2.1107-4.7623-2.7278-7.4168-2.5747a16.5519,16.5519,0,0,0-5.5916,1.2982l1.0085.1993c.3437-2.0061,2.7734-2.8856,4.6279-2.7837a14.2351,14.2351,0,0,1,3.212,1.0391,25.6659,25.6659,0,0,0,3.9224.9843,7.6741,7.6741,0,0,0,4.2605-.2976c.2724-.1215,1.5853-1.02,1.4867-1.1422.0636.0785-.4407.038-.49.1029-.0389.0509.19-.0333.1566.15a2.1845,2.1845,0,0,1-.5156,1.1288A11.8827,11.8827,0,0,1,57.2172,88.52c-.5414.43.3949.5446.6752.4706a8.5444,8.5444,0,0,0,4.5763-3.75l-.7743.3828c1.4226-.1088,5.8807-.7273,4.7809-3.2053a2.8922,2.8922,0,0,0-4.1466-1.0994c-3.1268,1.747-6.9,2.04-10.416,1.9179a23.6393,23.6393,0,0,1-8.8481-1.6352c-.2879-.1322-.7578-.6035-1.0257-.6609-.122-.0262-.5533.0674-.1476.1014a3.6645,3.6645,0,0,0,.8764-.2285c1.14-.2765,2.2912-.5116,3.443-.7328l-.4792-.5095c-1.0872,1.1637.9292,1.4612,1.7441,1.5252a10.7448,10.7448,0,0,0,4.8669-.5605c1.6269-.7.733-1.5721-.5077-2.014A26.742,26.742,0,0,0,41.608,77.5075c-1.8646.0906-3.7228.2618-5.5789.4576A10.0314,10.0314,0,0,1,33,78.2058c-.4527-.1394-1.6947.53-.89.778Z"/><g class="cls-3"><path class="cls-2" d="M61.5215,81.0275c-1.66-.9992-3.2788-2.0757-4.8576-3.1976-1.4068-1-2.7876-2.0415-4.0956-3.1683-.5293-.456-1.0421-.9256-1.5293-1.4264.0607.0625-.4348-.4651-.2718-.2879-.0942-.1024.0114-.2313.0181.0293-.0053-.2045-.1166-.1736.0552.0784a4.7939,4.7939,0,0,1,.4818.7772q-.1154-.2337-.0483-.0972a8.017,8.017,0,0,1-.0377-.9234,3.6566,3.6566,0,0,0,.0491-1.3178,12.3327,12.3327,0,0,0-2.0522-4.1861,36.3418,36.3418,0,0,0-8.0275-8.6108,21.2307,21.2307,0,0,0-4.3428-2.7334c-.93-.4093-2.2541-.9045-3.2259-.3546-.3586.2029,2.2546,4.44,2.8889,4.081a3.245,3.245,0,0,1,2.7772.2511,17.9346,17.9346,0,0,1,3.8736,2.3484,31.41,31.41,0,0,1,3.8153,3.4172c.483.5115.7185.8563,1.0426,1.2144-.2246-.2482.0423.091-.0964-.16a2.839,2.839,0,0,1,.2577.5066c.3292.8662-.0347,1.5121.058,2.3624.1785,1.6356,1.5092,3.3071,2.4576,4.5571a34.9481,34.9481,0,0,0,7.5261,6.96c1.9119,1.3864,3.8776,2.7155,5.9015,3.934.4.2408-.5645-1.6139-.62-1.7a7.2755,7.2755,0,0,0-1.9975-2.3539Z"/></g><g class="cls-3"><path class="cls-2" d="M65.4509,79.9229a17.6878,17.6878,0,0,0-2.8875-6.0316A9.0094,9.0094,0,0,0,58.6027,70.79a4.9257,4.9257,0,0,1-2.8917-2.9573,8.993,8.993,0,0,1-.4877-1.9641c-.0568-.3975-.065-.7965-.11-1.1946-.0672-.603-.1207,4.6745.0066,3.3073.0205-.22.0259-.4418.0451-.6622.0456-.5229.12-1.04.21-1.5569a11.3425,11.3425,0,0,0,.1688-1.4819,41.3278,41.3278,0,0,0-.0456-5.9707c-.381-3.5756-3.2-5.5182-6.5424-6.1621.274.0528-.3462,4.9333,0,5,3.0549.5885,5.8045,2.2507,6.4418,5.484.05.2524.0793.505.1091.76.2582,2.2143.1981-5.4865.0162-3.7331-.032.3083-.0583.6126-.1094.9187-.0579.3469-.1274.69-.1722,1.04a37.76,37.76,0,0,0-.1733,4.7946,24.071,24.071,0,0,0,.3037,5.28,5.711,5.711,0,0,0,2.1181,3.543,16.7845,16.7845,0,0,0,2.0307.9472A8.1958,8.1958,0,0,1,61.6493,77.81a16.471,16.471,0,0,1,3.8016,7.1127,11.3574,11.3574,0,0,1,.025-2.5,10.5987,10.5987,0,0,0-.025-2.5Z"/></g><path class="cls-2" d="M34.0263,78.3363c-4.6186-.2333-8.7238-4.3691-11.46-7.7037a44.1193,44.1193,0,0,1-8.8848-19.2615c-1.5476-7.7036-1.3181-15.8585,1.7055-23.1811A39.1533,39.1533,0,0,1,28.8789,11.4229a41.3314,41.3314,0,0,1,23.71-7.714c.6094-.0026,1.5127-.9268.5366-.9225C37.8931,2.8529,22.87,11.1915,15.6071,24.7512,8.1423,38.6889,10.7483,56.9351,19.8926,69.5c3.0867,4.2415,7.9423,9.4729,13.5971,9.7585.6194.0313,1.5157-.8731.5366-.9225Z"/><path class="cls-2" d="M11.5472,59.3377c2.05,4.4714,5.2332,9.05,9.3228,11.8424a12.8043,12.8043,0,0,0,4.2752,1.9556c1.7145.4025,3.4042.1155,5.1376.21,4.168.2266,8.2781,1.64,12.1637,3.0715,1.7728.6532,3.523,1.3637,5.286,2.0423a6.2375,6.2375,0,0,0,2.6477.715c.6874-.0681,1.22-.8539.2108-.7538.3608-.0358-.3588-.1461-.5805-.2214-.5379-.1827-1.0666-.3946-1.5956-.6011-1.5065-.5882-3.0082-1.1884-4.5244-1.7516a51.9673,51.9673,0,0,0-11.2417-3.1126c-1.6706-.2177-3.28-.0561-4.9462-.1179a10.2082,10.2082,0,0,1-4.7909-1.5479A23.2927,23.2927,0,0,1,16.0462,64.17a34.2032,34.2032,0,0,1-3.05-5.2206c-.2171-.4734-1.6342-.016-1.4489.3882Z"/><path class="cls-2" d="M8.1369,61.6454a32.7208,32.7208,0,0,0,7.1157,9.3585,16.2142,16.2142,0,0,0,7.4055,4.0583,24.6652,24.6652,0,0,0,5.2946.1356,46.886,46.886,0,0,1,7.2884.5191,39.7963,39.7963,0,0,1,5.8433,1.2858A6.7224,6.7224,0,0,1,43.7312,78.11c.324.3228,1.6865-.209,1.3522-.542a5.0794,5.0794,0,0,0-1.8533-.8957,32.9937,32.9937,0,0,0-4.0777-1.1268A50.8016,50.8016,0,0,0,26.19,74.5382c-6.0757.2517-10.9007-4.7192-14.1512-9.3115a31.8173,31.8173,0,0,1-2.4528-3.97c-.2266-.4475-1.6292.0322-1.4489.3883Z"/><path class="cls-4" d="M75.8233,24.6747a43.5258,43.5258,0,0,0,5.743,3.23c.9061.4159,1.8305.793,2.7714,1.1228.5173.1813,1.0423.3321,1.5639.4992.5615.18,1.1627.3645.3758.8457-1.95,1.1927-4.6111-.7063-6.23-1.7033a54.8881,54.8881,0,0,1-4.8736-3.4671c-.16-.1245-.6236-.0188-.6236.2263v2.2783a9.0319,9.0319,0,0,1,0,2.51q.0081.6836-1.29.3719l-.13-.4313a2.3434,2.3434,0,0,1,0-.4c-.0235-.4965,0-.9995,0-1.4965V25.8467c0-.2839-.4249-.2554-.5831-.1239a33.27,33.27,0,0,1-5.7146,3.8605q-1.3647.7209-2.7911,1.3151a6.21,6.21,0,0,1-1.3454.5133c-.7681.111-1.3436-.4116-.5111-1.01a13.8266,13.8266,0,0,1,2.1044-.8637,26.9618,26.9618,0,0,0,2.4191-1.3006,38.0056,38.0056,0,0,0,4.7651-3.3254c.2311-.1916.0729-.4169-.1968-.4006l-4.5577.2752a21.6459,21.6459,0,0,1-2.5968.1568c-.12-.0075-.3552.073-.471.0285a.8153.8153,0,0,1-.231-1.3349c.0433-.0235.1235.0054.17-.01a8.7841,8.7841,0,0,1,2.0067-.1149l3.0827-.1764,4.0647-.2327c.1325-.0076.3863-.11.3863-.2768v-2.44c0-.165-.17-.2406-.32-.2194-1.85.2613-3.7094.5552-5.5742.6951-.5329.04-.5316.1623-.6018-.52-.0721-.7-.071-.552.472-.6208.2722-.0345.5445-.0671.8165-.1029q1.8067-.2381,3.6027-.5484c2.2606-.3864,4.5228-.8172,6.752-1.358a3.6972,3.6972,0,0,1,.869-.2189l1.24.45-.6056.976a3.7662,3.7662,0,0,1-1.1747.2594c-1.2176.2494-2.4436.4574-3.6695.6615-.1319.022-.3863.1-.3863.2768v2.6332c0,.1737.17.2278.32.2193l4.3508-.2465,3.1191-.1768a7.5441,7.5441,0,0,1,1.69-.0958c.6828.1371,1.2174.9029.2088,1.3071a2.2544,2.2544,0,0,1-.6161.0358l-2.9065.1688-4.5892.2666c-.3889.0225-.5437.5238-.0661.4961l4.2213-.2452a35.0406,35.0406,0,0,0,4.0706-.2475c1.6183-.2895,1.383-2.27-.2438-2.2785-1.4367-.0071-2.8953.1641-4.3293.2453l-4.8432.2745.32.2193V20.06l-.3864.2768c1.5994-.2664,3.2371-.49,4.8079-.9.8592-.2243,1.8581-.8848,1.32-1.9294-.5331-1.0346-2.0236-.4569-2.8452-.2578-2.167.525-4.3647.9479-6.5619,1.3248a49.1747,49.1747,0,0,0-5.2716.7743c-.6827.1977-1.4137.9451-.8461,1.68.455.589,1.5973.3438,2.2187.283,1.6891-.1653,3.3716-.4107,5.0516-.648l-.32-.2193v2.44l.3863-.2767-5.5363.3169-3.0582.175a2.68,2.68,0,0,0-1.6482.3608c-.9422.831-.0667,1.9561.9383,2.0085a16.0546,16.0546,0,0,0,1.7644-.1021l5.9406-.3588-.1968-.4007a33.2,33.2,0,0,1-7.03,4.5346c-.7075.33-3.8185,1.0295-2.7687,2.4978.8535,1.1938,3.746-.5956,4.5461-.9726a34.062,34.062,0,0,0,7.2454-4.6389l-.5831-.1239v3.5565c0,1.1079.3081,2.2313,1.7475,1.8976,1.223-.2836,1.0858-1.4151,1.0858-2.3932V25.3706l-.6236.2264a47.9944,47.9944,0,0,0,6.6114,4.4722c1.9413,1.0468,3.9135,1.5281,6.0274.489,1.8572-.913-1.8324-1.7523-2.3316-1.9234a38.3276,38.3276,0,0,1-8.5762-4.3554C76.115,24.1157,75.4978,24.4606,75.8233,24.6747Z"/><path class="cls-4" d="M73.1719,33.545a15.406,15.406,0,0,1-3.2058,5.71,16.0469,16.0469,0,0,1-2.5415,2.2665,11.2454,11.2454,0,0,1-2.8856,1.7359c-.6451.2028-1.2315-.2209-.5989-1.0309a5.955,5.955,0,0,1,1.28-.8414,19.5872,19.5872,0,0,0,2.5142-2.016,14.4839,14.4839,0,0,0,3.62-5.603c.0753-.2058-.1225-.2945-.3-.284l-2.1419.1264a14.2459,14.2459,0,0,1-2.1361.1262c-.9854-.0971-1.0309-1.0616-.1486-1.366a2.4817,2.4817,0,0,1,.5862-.0362l2.301-.142,5.9915-.37c1.1215-.0692,3.9385-.6007,3.485,1.2651-.1849.7608-.6763,1.4249-.8689,2.1722-.0827.3212-.1037.4894.2119.6658a5.5557,5.5557,0,0,0,2.18.0779c1.0234,0,2.5177-.1863,2.332,1.2961a16.96,16.96,0,0,1-1.5017,4.78c-.3591.7725-.863,1.68-1.7913,1.8193A5.0588,5.0588,0,0,1,76.97,43.31a7.0228,7.0228,0,0,1-1.47-.7781c-.11-.0866-.5018-.3847-.5-.53.0079-.8022.6507-.3818.92-.3365.7866.1324,1.5.4752,2.3126.5364,1.2433.0936,1.6784-.8037,2.0932-1.8571.2418-.6141,1.2367-2.5923.27-2.9164a9.2347,9.2347,0,0,0-2.62-.034,6.3891,6.3891,0,0,1-1.1606-.0128c-1.29-.2494-.3007-1.8029-.0181-2.5551.3653-.9722.6522-1.7176-.627-1.6593-.8778.04-1.7552.1106-2.6322.1658-.3885.0245-.5438.5262-.0661.4962l1.0323-.0651a5.6308,5.6308,0,0,1,1.6514-.1041c.5832.1909-.1388,1.4146-.3365,1.9041-.2061.51-.5634,1.1518-.2983,1.7073.3714.7784,1.4974.6191,2.2121.6191H79.431a2.27,2.27,0,0,1,.6636,0c.2883.1566.1419.537.0633.8519-.18.7205-.6275,2.7717-1.5526,2.9752-.94.2068-2.0231-.5788-2.9344-.6923-.926-.1153-1.8761.7186-1.103,1.5863a6.005,6.005,0,0,0,2.1442,1.2232,6.33,6.33,0,0,0,2.4422.5705,3.11,3.11,0,0,0,2.7187-1.9744,19.2769,19.2769,0,0,0,1.6358-4.9584c.2561-1.316-.4371-1.9225-1.7145-1.9672a11.449,11.449,0,0,1-2.6175,0c-.3758-.1142-.33-.1765-.2063-.5961.1221-.4153.3613-.8188.5111-1.2267a2.7632,2.7632,0,0,0,.279-1.3757C79.486,30.7367,76.94,31.24,75.8,31.31l-6.906.4263c-.7319.0452-1.4708.0639-2.2006.1358-.9032.089-1.9583.9731-1.2234,1.9543.4927.6578,1.7327.3749,2.433.3335l3.0848-.1821-.3-.2841a14.84,14.84,0,0,1-5.5,7.0889c-.5961.4263-2.0326.9829-2.25,1.8153a1.07,1.07,0,0,0,1.2186,1.272,6.3306,6.3306,0,0,0,2.3476-1.1291,19.3893,19.3893,0,0,0,3.2113-2.4356,15.7334,15.7334,0,0,0,4.1229-6.6884C73.9577,33.2392,73.2627,33.2592,73.1719,33.545Z"/><path class="cls-4" d="M63.5731,65.7847a.7944.7944,0,0,1,.7324.7765,2.9659,2.9659,0,0,1-.3272,1.138,11.5246,11.5246,0,0,1-1.3008,2.2823,3.7251,3.7251,0,0,1-.8479.9806c-.3112.1911-.5806-.3363-.5147-.61a5.0476,5.0476,0,0,1,.5458-1.08c.196-.3722.377-.7519.5473-1.1365q.3224-.7278.59-1.4783c.0957-.2671.2015-.8612.5756-.8723.1438-.0043.3893-.0436.4605-.1931.0658-.1382-.056-.2183-.1917-.2143a1.48,1.48,0,0,0-1.1768.5246,2.0184,2.0184,0,0,0-.2781.5871q-.1641.4725-.347.9381a18.55,18.55,0,0,1-.7664,1.6985,5.379,5.379,0,0,0-.6706,1.3628.8467.8467,0,0,0,.7413.9256,1.4913,1.4913,0,0,0,1.322-.5931,11.4453,11.4453,0,0,0,1.8685-2.8827,3.4054,3.4054,0,0,0,.4689-1.6074,1.15,1.15,0,0,0-1.1618-.9535c-.1408-.0068-.3927.05-.4605.1931C63.3121,65.7159,63.4407,65.7783,63.5731,65.7847Z"/><path class="cls-4" d="M66.25,59.2787c.7741-.7882,1.5265-1.597,2.2363-2.4439a6.6008,6.6008,0,0,1,.7978-.9576l.9617.3786-.0038.4683c-.14.5648-.828,1.1309-1.2169,1.5411a39.5218,39.5218,0,0,1-5.2627,4.6442c-.23.1685-.083.349.1722.3088a38.9137,38.9137,0,0,0,5.423-1.2143c.1285-.04.3738-.1481.2754-.32-.1325-.2308-.5016-.674-.52-.94l-.0771-.2157.5273-.2727c.3555.0823.94,1.1588,1.1388,1.448.3047.443,1.0528,1.33.9432,1.8668-.31,1.52-1.16-.0919-1.3391-.53-.0577-.1409-.2832-.1211-.3979-.0875-.7128.2085-1.4287.406-2.1445.6038-.0818.0225-.3012.1053-.3012.2232v3.9191a30.1794,30.1794,0,0,1,0,4.1134c-.1136.7966-1.0166.5388-1.1874-.0877a1.4422,1.4422,0,0,1,0-.1528,5.1436,5.1436,0,0,1,0-.7469v-6.682c0-.2-.2674-.1653-.3982-.1391-.8515.1708-1.7034.3414-2.5592.4891-.5314.0917-.9487.2732-1.3744-.078-.9243-.7628.4261-1.5392.99-2.0235.7569-.65,1.4886-1.3271,2.2079-2.0181.1124-.1079.0721-.2112-.0686-.2562-.6228-.199-1.2477-.3773-1.88-.5433-.7761-.2038-1.5449-.4212-1.0927-1.35a7.8432,7.8432,0,0,1,1.4946-1.59q.6354-.6645,1.2254-1.37a11.609,11.609,0,0,1,1.1515-1.4916q.19-.5256.7657-.2278.7786-.222.58.47a2.7578,2.7578,0,0,1-.64,1.0292,23.8084,23.8084,0,0,1-3.1928,3.2188c-.07.06-.1094.1921.0042.2342.7445.2754,1.4722.585,2.2034.8933.2143.09.85-.22.5542-.3445-.7312-.3084-1.4589-.6179-2.2034-.8934l.0042.2342a25.8067,25.8067,0,0,0,2.5567-2.4712c.5116-.5726,1.4439-1.3792,1.443-2.2115-.0016-1.46-1.833-1.0926-2.4487-.3394-.7856.9611-1.468,1.9716-2.3192,2.8856a9.1525,9.1525,0,0,0-1.96,2.1888.8813.8813,0,0,0,.4485,1.2023,15.16,15.16,0,0,0,2.8806.8658l-.0687-.2562c-1.0337.993-2.174,1.8715-3.2083,2.8578-.4944.4715-.76,1.2313-.09,1.7561a1.8774,1.8774,0,0,0,1.459.1091c1.0836-.1658,2.16-.3908,3.2341-.6063l-.3983-.1391v3.598c0,1.299-.1116,2.6527,0,3.9477.1316,1.5271,2.404,1.3578,2.5862-.0574a30.6223,30.6223,0,0,0,0-3.8044V63.6957l-.3011.2232c.7158-.1977,1.4317-.3952,2.1445-.6038l-.3978-.0876c.355.8679.7747,1.6738,1.8466,1.3338,1.4538-.4611.7738-1.785.1822-2.7051-.4992-.7765-1.4063-2.5985-2.5879-2.2018-1.2489.4193-.4986,1.5477-.0629,2.3067l.2753-.32a37.5426,37.5426,0,0,1-5.2338,1.1775l.1722.3088a42.807,42.807,0,0,0,3.9673-3.3309c.5867-.5513,1.1608-1.1172,1.7049-1.7109a3.8907,3.8907,0,0,0,1.07-1.446c.2612-1.0979-1.0219-1.5769-1.8585-1.141a4.8083,4.8083,0,0,0-1.2488,1.3145c-.6808.8123-1.4044,1.5855-2.1467,2.3413C65.4,59.4475,66.0814,59.45,66.25,59.2787Z"/><path class="cls-4" d="M78.1755,50.4888c-.0447.2853-.0847,1.7-.3708,1.8578l-.9931-.2905-.0106-.3838a1.27,1.27,0,0,1,.0239-.2689c.0175-.29.0516-.58.0773-.8687.0143-.1607-.193-.1649-.3037-.1576l-5.6015.3743c-.1387.0093-.4147.1123-.3953.2932l.0766.7158a1.854,1.854,0,0,1,.0473.4417c-.0908.5755.2815.4545-.5989.34-.736-.0959-.631-.1634-.7289-.738-.0463-.2717-.0853-.5448-.1279-.8171-.0186-.1185-.2245-.1111-.3033-.106l-2.99.1948c-.4843.0315-4.1177.6208-3.4272-.8536.332-.7088,2.4059-.4714,3-.5108l3.051-.2026c.1317-.0088.4224-.1134.3953-.2932l-.17-1.1319c-.03-.197-.0745-.3987-.09-.5975l-.0128-.085q-.1915-1.0037,1.241-.6194c.4719.44.3733,1.9158.4357,2.4915.0129.1184.2293.1108.3033.106l5.9758-.3884c.1152-.0075.383-.0956.3957-.2417a7.2836,7.2836,0,0,1,.1824-1.9647c.338-.8038,1.5027-.354,1.463.4279-.0069.135-.0489.27-.0661.4044-.0462.3584-.117.7156-.1753,1.0724-.0263.16.204.1641.3036.1575l3.2842-.2175,1.9924-.1319a2.4689,2.4689,0,0,1,.5509-.0365c.65.1239,1.0342,1.0723.2545,1.3691a3.702,3.702,0,0,1-.94.0624l-2.0908.1386-3.2613.2163c-.35.0232-.5759.4313-.0921.3992l4.2738-.2834c.8748-.058,2.8835.1734,3.2156-.9423.4864-1.634-1.7325-1.3283-2.6077-1.27l-4.4871.2971.3037.1575a8.2007,8.2007,0,0,0,.2585-1.7364A1.3245,1.3245,0,0,0,77.7108,45.77c-1.438.2665-1.2382,1.9352-1.3362,3.063l.3958-.2417-5.9758.3884.3032.106c-.1389-1.2818-.03-3.2918-1.9046-2.939-1.6907.3182-1.0758,2.0622-.8962,3.2557l.3954-.2932-4.0442.2686c-.9123.06-2.8584-.1307-2.8309,1.2518.0282,1.423,1.9446.9832,2.8364.9251l4.2208-.2749-.3032-.106c.1808,1.1551.3382,2.5759,1.919,2.1688,1.2579-.324.9148-1.5058.81-2.4855l-.3953.2932,5.6015-.3743-.3036-.1575c-.09,1.0117-.3836,2.4194,1.0946,2.36,1.4047-.0562,1.41-1.5067,1.5775-2.5746C78.9187,50.1252,78.214,50.2429,78.1755,50.4888Z"/><path class="cls-4" d="M69.3323,65.195c-.0842-.0035.0285.0157.001.0016.0375.0193.0753.0362.1112.0588a1.7273,1.7273,0,0,1,.2855.2415,7.4166,7.4166,0,0,1,.7178.8562A6.5311,6.5311,0,0,1,71.6129,68.36c.1149.411.0517,1.05-.5063.9912-.2838-.03-.4757-.3113-.5843-.5487-.1569-.343-.25-.7181-.3884-1.07-.1859-.4723-.3958-.935-.6186-1.391a2.992,2.992,0,0,1-.2831-.6593c-.0327-.1516.0275-.48.1885-.4912.127-.0085.3713-.0927.3957-.2417.0265-.1613-.2039-.1642-.3036-.1575-.47.0316-1.0282.42-.9981.9383a1.9282,1.9282,0,0,0,.2631.7193q.196.3975.3769.8022.3126.7035.5536,1.4328a1.52,1.52,0,0,0,.7062.9739,1.4258,1.4258,0,0,0,1.9255-.8126,3.1419,3.1419,0,0,0-.8156-2.1659,9.8841,9.8841,0,0,0-1.1091-1.4219,1.2821,1.2821,0,0,0-.8142-.47.54.54,0,0,0-.46.1931C69.06,65.1236,69.2094,65.19,69.3323,65.195Z"/><path class="cls-4" d="M85.0717,70.1632a13.4578,13.4578,0,0,1,1.8-.0729c.4036.0389.636.1482.7085.533a.5915.5915,0,0,1-.45.7738,2.1,2.1,0,0,1-.3014.0131c-1.2679.1166-2.5595.1113-3.8313.1666l-10.1158.44c-.3562.0155-1.0264.13-1.2955-.165-1.0714-1.1741,1.6657-1.123,2.1259-1.1462.1392-.007.4143-.1137.3954-.2932l-.3209-3.0476L73.5882,65.48c-.02-.1892-.0506-.3814-.06-.5714a.7163.7163,0,0,1-.01-.0916,1.9489,1.9489,0,0,1,.0138-.3092q.7419-.5325,1.0108.0169c.0525.0777.2014.0667.2778.0612l6.28-.4558c.9148-.0664,1.8356-.171,2.7524-.2,1.62-.0508,1.4466,1.268,1.34,2.4178l-.3376,3.6535c-.0266.2885.6769.16.6994-.0841.1474-1.5943.4417-3.2372.432-4.8388-.0125-2.0694-2.3885-1.5224-3.7647-1.4225l-6.4028.4647a3.6329,3.6329,0,0,1-.7677.0557c-.1832-.031-.05-.0368-.0512-.0373.1622.0893-.0591-.1663-.0944-.2019a.97.97,0,0,0-.4472-.1648c-.93-.1643-1.68.3253-1.6346,1.2811.0883,1.8472.39,3.7059.5838,5.5456l.3953-.2932a5.7043,5.7043,0,0,0-2.5537.319,1.0692,1.0692,0,0,0-.4228,1.3129c.1985.4517.6868.515,1.1259.5146,1.2538-.0013,2.5167-.1094,3.769-.1639,3.7047-.161,7.4349-.2059,11.1328-.484a1.69,1.69,0,0,0,1.1793-.4346,1.0437,1.0437,0,0,0-.1058-1.4972c-.63-.4382-1.8911-.1462-2.5885-.117C85.0747,69.767,84.6039,70.1828,85.0717,70.1632Z"/><path class="cls-4" d="M82.1847,61.5808l-6.3207.5179c-.1324.0108-.3612.0922-.3957.2416a.4771.4771,0,0,1-.8208.2118,1.0483,1.0483,0,0,1-.238-.6407c-.0146-.1162-.0219-.2337-.0328-.35l-.1815-1.94-.4576-4.8888c-.0188-.2017-.0419-.4036-.0566-.6056a1.3489,1.3489,0,0,1-.0032-.313c.0943-.5908.791-.4008,1.0242-.003.0455.0777.2074.0679.2778.0611l7.0515-.6791c.5435-.0524,1.1656-.144,1.5675.3154a2.1156,2.1156,0,0,1,.2591,1.568l-.19,4.2212-.0922,2.05c-.0051.1139-.0043.23-.0154.3433-.0235.2413-.0671.5984-.3531.6746-.4536.121-.6759-.3269-.7194-.6785-.03-.2412-.7321-.0832-.6986.1871.1229.992,1.4349,1.1769,2.1075.5647a1.8624,1.8624,0,0,0,.3887-1.4029l.2229-4.9571c.0222-.4948.0405-.99.0667-1.4846.05-.95-.3225-1.7164-1.3379-1.8385a7.0152,7.0152,0,0,0-1.4834.0737l-2.355.2268-4.327.4168.2779.0611a1.396,1.396,0,0,0-1.7678-.3663,1.0125,1.0125,0,0,0-.6034,1.1055c.05.6784.1269,1.356.19,2.0333.1791,1.9142.31,3.84.538,5.749a1.0426,1.0426,0,0,0,.8337,1.0405,1.3351,1.3351,0,0,0,1.6271-.84l-.3957.2416,6.3206-.5179C82.4408,61.9514,82.6688,61.5411,82.1847,61.5808Z"/><path class="cls-4" d="M77.4055,70.2544l-.2517-4.0353-.0366-.5869c-.0074-.118-.2339-.1108-.3033-.106l-1.6843.1153c-.1429.01-.41.1116-.3954.2932l.3275,4.0185.0468.5743c.01.1189.232.11.3033.106l1.5984-.0859c.1225-.0066.3774-.0944.3958-.2417.02-.1625-.1986-.1632-.3037-.1575l-1.5984.0859.3032.106L75.48,66.3218l-.0468-.5743-.3953.2932,1.6843-.1153-.3032-.106.2517,4.0352.0367.587C76.7215,70.6755,77.4227,70.53,77.4055,70.2544Z"/><path class="cls-4" d="M82.5461,60.1975c.0672-1.6735.1713-3.35.2018-5.0242.0122-.6715-.3926-.8837-1.01-.8218-.22.0221-.4406.0433-.6608.0649l-3.27.321-2.5192.2473c-.1421.0139-.411.1087-.3953.2931l.4755,5.5874c.01.1174.2317.1119.3032.106l5.659-.4646.8206-.0674c.3482-.0286.5762-.4389.0921-.3992l-5.659.4647-.8206.0673.3033.106-.4756-5.5873-.3953.2931,5.2218-.5125,1.064-.1045c.0538-.0052.1075-.0111.1614-.0158.3223-.028.4037.2009.4065.4954.0074.7882-.0637,1.585-.0953,2.3724l-.107,2.6629C81.8348,60.5758,82.5364,60.4383,82.5461,60.1975Z"/><path class="cls-4" d="M79.2556,57.1421a9.4847,9.4847,0,0,1,1.5519.9671,1.7741,1.7741,0,0,1,.6533.7945.58.58,0,0,1-.1914.5969c-.2045.1682-.4516-.0339-.6126-.1838-.4683-.4359-.9086-.8963-1.391-1.319a.5119.5119,0,0,0-.65.1278,8.7553,8.7553,0,0,1-.9878,1.2868,6.3432,6.3432,0,0,1-.4977.49c-.0412.0352-.159.16-.2142.1618-.0923.0035-.2158-.1254-.2612-.1928-.2473-.3664.1556-.7745.36-1.0521a11.1919,11.1919,0,0,0,.8265-1.2965,10.5891,10.5891,0,0,0,.6037-1.319c.0783-.2079.139-.421.2131-.63.0571-.1609.103-.329.2873-.328.959.0055.4225,1.31.2374,1.7658-.0615.1514.2265.1655.3037.1575a.4687.4687,0,0,0,.3957-.2417c.2352-.5787.6611-1.6014-.1255-1.9713a1.5224,1.5224,0,0,0-1.1937-.0054c-.4335.1891-.5522.5633-.69.9788a10.3858,10.3858,0,0,1-1.51,2.8685c-.2121.288-.54.6449-.4871,1.0346a.8241.8241,0,0,0,.9483.6308,2.3286,2.3286,0,0,0,1.2984-.8556,9.4742,9.4742,0,0,0,1.1456-1.4612l-.65.1278c.3316.29.6591.5856.973.8951a2.9882,2.9882,0,0,0,.8574.7237,1.3313,1.3313,0,0,0,1.6954-.72A1.1135,1.1135,0,0,0,81.7,58.0469,8.249,8.249,0,0,0,79.81,56.7975C79.6024,56.6878,78.9623,56.9869,79.2556,57.1421Z"/><path class="cls-4" d="M78.6227,70.4758l1.5549-.073c.1072-.005.3931-.0988.3958-.2417l.076-4.1349.0111-.6015c.0029-.16-.1825-.1659-.3037-.1575l-1.8727.1295c-.1482.01-.4043.1109-.3953.2932l.2018,4.0947.0289.5852c.0114.2321.7122.0888.6986-.1872l-.2019-4.0947-.0288-.5852-.3954.2932,1.8727-.13-.3037-.1575-.076,4.135-.0111.6014.3958-.2417-1.5549.073c-.1224.0057-.3774.0949-.3957.2417C78.2987,70.4812,78.5177,70.4807,78.6227,70.4758Z"/><path class="cls-4" d="M81.7325,70.331l1.7432-.0859c.1124-.0056.3863-.0974.3957-.2417l.1678-2.5835.0925-1.424c.0062-.0949.0134-.1888.0128-.284a.6129.6129,0,0,0-.6241-.66,10.12,10.12,0,0,0-1.5228.0844c-.1094.0075-.3906.0966-.3958.2417l-.151,4.1863-.022.6089c-.0106.2945.6907.1563.6994-.0842l.1511-4.1863.0219-.6089-.3957.2417c.405-.0278.8188-.0858,1.2245-.084.3751.0018.3161.416.2985.6869l-.1949,3-.0616.9492.3957-.2417-1.7432.0859c-.1224.0061-.3774.0948-.3957.2417C81.4085,70.3363,81.6274,70.3362,81.7325,70.331Z"/></g></g></svg>