<svg xmlns="http://www.w3.org/2000/svg" viewBox="0 0 415.40044 126.78946"><defs><style>.cls-1{fill:#70535c;}.cls-2{fill:#8b868a;}.cls-3{fill:#bb8497;}.cls-4{fill:#7d767b;}.cls-5{fill:#ccc5cc;}.cls-6{fill:#977b66;}.cls-7{fill:#c69bac;}.cls-8{fill:#eacaa3;}.cls-9{fill:#85261a;}.cls-10{fill:#978097;}.cls-11{fill:#e6e6e6;}.cls-12{fill:#666;}.cls-13{fill:#caa8c9;}.cls-14{fill:#4d3252;}.cls-15{fill:#231827;}.cls-16{fill:#754c29;}.cls-17{fill:#d7b793;}.cls-18{fill:#c198b5;}.cls-19{fill:#e1bdd8;}.cls-20{fill:#20334b;}.cls-21{fill:#152525;}.cls-22{fill:#32415a;}.cls-23{fill:#a17667;}.cls-24{fill:#4d4d4d;}.cls-25{fill:gray;}.cls-26{fill:#cfbada;}.cls-27{fill:#63433e;}.cls-28{fill:#918d79;}.cls-29{fill:#eae4f1;}.cls-30{fill:#e9d6e9;}.cls-31{fill:#5b4634;}.cls-32{fill:#edd2e5;}.cls-33{fill:#daaf8f;}.cls-34{fill:#555150;}.cls-35{fill:#cfbf86;}.cls-36{fill:#b8a48e;}.cls-37{fill:#a1a0b4;}.cls-38{fill:#f2f2f2;}.cls-39{fill:#b3b3b3;}.cls-40{fill:#d08d98;}.cls-41{fill:#865b67;}.cls-42{fill:#282a20;}.cls-43{fill:#1f2118;}.cls-44{fill:#1d1d1b;}.cls-45{fill:#533e30;}.cls-46{fill:#3c2b23;}.cls-47{fill:#3a392b;}.cls-48{fill:#60625f;}.cls-49{fill:#4e3d21;}.cls-50{fill:#57554a;}.cls-51{fill:#322b22;}.cls-52{fill:#1a1a1a;}.cls-53{fill:#999;}.cls-54{fill:#2d2d2a;}.cls-55{fill:#401f1a;}.cls-56{fill:#31372a;}</style></defs><g id="Layer_2" data-name="Layer 2"><g id="Layer_1-2" data-name="Layer 1"><g id="Layer_2-2" data-name="Layer 2"><g id="grid"><rect class="cls-1" x="409.66126" y="71.24938" width="5.73918" height="5.73695"/><rect class="cls-1" x="409.66126" y="65.5102" width="5.73918" height="5.73918"/><rect class="cls-1" x="409.66126" y="59.77102" width="5.73918" height="5.73918"/><rect class="cls-1" x="409.66126" y="54.03406" width="5.73918" height="5.73696"/><rect class="cls-1" x="409.66126" y="48.29488" width="5.73918" height="5.73918"/><rect class="cls-1" x="409.66126" y="42.5557" width="5.73918" height="5.73918"/><rect class="cls-1" x="409.66126" y="36.81874" width="5.73918" height="5.73696"/><rect class="cls-1" x="409.66126" y="31.07956" width="5.73918" height="5.73918"/><rect class="cls-1" x="403.9243" y="76.98634" width="5.73695" height="5.73918"/><rect class="cls-1" x="403.9243" y="71.24938" width="5.73695" height="5.73695"/><rect class="cls-1" x="403.9243" y="65.5102" width="5.73695" height="5.73918"/><rect class="cls-1" x="403.9243" y="59.77102" width="5.73695" height="5.73918"/><rect class="cls-1" x="403.9243" y="54.03406" width="5.73695" height="5.73696"/><rect class="cls-1" x="403.9243" y="48.29488" width="5.73695" height="5.73918"/><rect class="cls-1" x="403.9243" y="42.5557" width="5.73695" height="5.73918"/><rect class="cls-1" x="403.9243" y="36.81874" width="5.73695" height="5.73696"/><rect class="cls-1" x="403.9243" y="31.07956" width="5.73695" height="5.73918"/><rect class="cls-1" x="403.9243" y="25.34261" width="5.73695" height="5.73696"/><rect class="cls-2" x="398.18512" y="105.68001" width="5.73918" height="5.73695"/><rect class="cls-2" x="398.18512" y="99.94083" width="5.73918" height="5.73918"/><rect class="cls-1" x="398.18512" y="82.72552" width="5.73918" height="5.73918"/><rect class="cls-1" x="398.18512" y="76.98634" width="5.73918" height="5.73918"/><rect class="cls-1" x="398.18512" y="71.24938" width="5.73918" height="5.73695"/><rect class="cls-1" x="398.18512" y="65.5102" width="5.73918" height="5.73918"/><rect class="cls-3" x="398.18512" y="59.77102" width="5.73918" height="5.73918"/><rect class="cls-3" x="398.18512" y="54.03406" width="5.73918" height="5.73696"/><rect class="cls-3" x="398.18512" y="48.29488" width="5.73918" height="5.73918"/><rect class="cls-3" x="398.18512" y="42.5557" width="5.73918" height="5.73918"/><rect class="cls-3" x="398.18512" y="36.81874" width="5.73918" height="5.73696"/><rect class="cls-3" x="398.18512" y="31.07956" width="5.73918" height="5.73918"/><rect class="cls-3" x="398.18512" y="25.34261" width="5.73918" height="5.73696"/><rect class="cls-1" x="398.18512" y="19.60343" width="5.73918" height="5.73918"/><rect class="cls-2" x="392.44594" y="105.68001" width="5.73918" height="5.73695"/><rect class="cls-2" x="392.44594" y="99.94083" width="5.73918" height="5.73918"/><rect class="cls-2" x="392.44594" y="94.20165" width="5.73918" height="5.73918"/><rect class="cls-4" x="392.44594" y="88.4647" width="5.73918" height="5.73695"/><rect class="cls-4" x="392.44594" y="82.72552" width="5.73918" height="5.73918"/><rect class="cls-1" x="392.44594" y="76.98634" width="5.73918" height="5.73918"/><rect class="cls-3" x="392.44594" y="71.24938" width="5.73918" height="5.73695"/><rect class="cls-3" x="392.44594" y="65.5102" width="5.73918" height="5.73918"/><rect class="cls-3" x="392.44594" y="59.77102" width="5.73918" height="5.73918"/><rect class="cls-1" x="392.44594" y="54.03406" width="5.73918" height="5.73696"/><rect class="cls-1" x="392.44594" y="48.29488" width="5.73918" height="5.73918"/><rect class="cls-3" x="392.44594" y="42.5557" width="5.73918" height="5.73918"/><rect class="cls-3" x="392.44594" y="36.81874" width="5.73918" height="5.73696"/><rect class="cls-3" x="392.44594" y="31.07956" width="5.73918" height="5.73918"/><rect class="cls-3" x="392.44594" y="25.34261" width="5.73918" height="5.73696"/><rect class="cls-3" x="392.44594" y="19.60343" width="5.73918" height="5.73918"/><rect class="cls-1" x="392.44594" y="13.86424" width="5.73918" height="5.73918"/><rect class="cls-5" x="386.70899" y="105.68001" width="5.73696" height="5.73695"/><rect class="cls-4" x="386.70899" y="99.94083" width="5.73696" height="5.73918"/><rect class="cls-4" x="386.70899" y="94.20165" width="5.73696" height="5.73918"/><rect class="cls-5" x="386.70899" y="88.4647" width="5.73696" height="5.73695"/><rect class="cls-4" x="386.70899" y="82.72552" width="5.73696" height="5.73918"/><rect class="cls-3" x="386.70899" y="76.98634" width="5.73696" height="5.73918"/><rect class="cls-3" x="386.70899" y="71.24938" width="5.73696" height="5.73695"/><rect class="cls-3" x="386.70899" y="65.5102" width="5.73696" height="5.73918"/><rect class="cls-1" x="386.70899" y="59.77102" width="5.73696" height="5.73918"/><rect class="cls-6" x="386.70899" y="54.03406" width="5.73696" height="5.73696"/><rect class="cls-6" x="386.70899" y="48.29488" width="5.73696" height="5.73918"/><rect class="cls-3" x="386.70899" y="42.5557" width="5.73696" height="5.73918"/><rect class="cls-3" x="386.70899" y="36.81874" width="5.73696" height="5.73696"/><rect class="cls-3" x="386.70899" y="31.07956" width="5.73696" height="5.73918"/><rect class="cls-3" x="386.70899" y="25.34261" width="5.73696" height="5.73696"/><rect class="cls-3" x="386.70899" y="19.60343" width="5.73696" height="5.73918"/><rect class="cls-1" x="386.70899" y="13.86424" width="5.73696" height="5.73918"/><rect class="cls-3" x="386.70899" y="8.12729" width="5.73696" height="5.73696"/><rect class="cls-2" x="380.96981" y="117.15616" width="5.73918" height="5.73695"/><rect class="cls-6" x="380.96981" y="111.41698" width="5.73918" height="5.73918"/><rect class="cls-4" x="380.96981" y="105.68001" width="5.73918" height="5.73695"/><rect class="cls-4" x="380.96981" y="99.94083" width="5.73918" height="5.73918"/><rect class="cls-6" x="380.96981" y="94.20165" width="5.73918" height="5.73918"/><rect class="cls-6" x="380.96981" y="88.4647" width="5.73918" height="5.73695"/><rect class="cls-5" x="380.96981" y="82.72552" width="5.73918" height="5.73918"/><rect class="cls-3" x="380.96981" y="76.98634" width="5.73918" height="5.73918"/><rect class="cls-3" x="380.96981" y="71.24938" width="5.73918" height="5.73695"/><rect class="cls-3" x="380.96981" y="65.5102" width="5.73918" height="5.73918"/><rect class="cls-3" x="380.96981" y="59.77102" width="5.73918" height="5.73918"/><rect class="cls-3" x="380.96981" y="54.03406" width="5.73918" height="5.73696"/><rect class="cls-3" x="380.96981" y="48.29488" width="5.73918" height="5.73918"/><rect class="cls-3" x="380.96981" y="42.5557" width="5.73918" height="5.73918"/><rect class="cls-7" x="380.96981" y="36.81874" width="5.73918" height="5.73696"/><rect class="cls-3" x="380.96981" y="31.07956" width="5.73918" height="5.73918"/><rect class="cls-3" x="380.96981" y="25.34261" width="5.73918" height="5.73696"/><rect class="cls-1" x="380.96981" y="19.60343" width="5.73918" height="5.73918"/><rect class="cls-1" x="380.96981" y="13.86424" width="5.73918" height="5.73918"/><rect class="cls-3" x="380.96981" y="8.12729" width="5.73918" height="5.73696"/><rect class="cls-5" x="375.23063" y="117.15616" width="5.73918" height="5.73695"/><rect class="cls-8" x="375.23063" y="111.41698" width="5.73918" height="5.73918"/><rect class="cls-6" x="375.23063" y="105.68001" width="5.73918" height="5.73695"/><rect class="cls-6" x="375.23063" y="99.94083" width="5.73918" height="5.73918"/><rect class="cls-9" x="375.23063" y="94.20165" width="5.73918" height="5.73918"/><rect class="cls-6" x="375.23063" y="88.4647" width="5.73918" height="5.73695"/><rect class="cls-5" x="375.23063" y="82.72552" width="5.73918" height="5.73918"/><rect class="cls-3" x="375.23063" y="76.98634" width="5.73918" height="5.73918"/><rect class="cls-3" x="375.23063" y="71.24938" width="5.73918" height="5.73695"/><rect class="cls-3" x="375.23063" y="65.5102" width="5.73918" height="5.73918"/><rect class="cls-3" x="375.23063" y="59.77102" width="5.73918" height="5.73918"/><rect class="cls-3" x="375.23063" y="54.03406" width="5.73918" height="5.73696"/><rect class="cls-6" x="375.23063" y="48.29488" width="5.73918" height="5.73918"/><rect class="cls-7" x="375.23063" y="42.5557" width="5.73918" height="5.73918"/><rect class="cls-3" x="375.23063" y="36.81874" width="5.73918" height="5.73696"/><rect class="cls-3" x="375.23063" y="31.07956" width="5.73918" height="5.73918"/><rect class="cls-3" x="375.23063" y="25.34261" width="5.73918" height="5.73696"/><rect class="cls-3" x="375.23063" y="19.60343" width="5.73918" height="5.73918"/><rect class="cls-1" x="375.23063" y="13.86424" width="5.73918" height="5.73918"/><rect class="cls-3" x="375.23063" y="8.12729" width="5.73918" height="5.73696"/><rect class="cls-5" x="369.49367" y="117.15616" width="5.73696" height="5.73695"/><rect class="cls-4" x="369.49367" y="111.41698" width="5.73696" height="5.73918"/><rect class="cls-8" x="369.49367" y="105.68001" width="5.73696" height="5.73695"/><rect class="cls-8" x="369.49367" y="99.94083" width="5.73696" height="5.73918"/><rect class="cls-10" x="369.49367" y="94.20165" width="5.73696" height="5.73918"/><rect class="cls-4" x="369.49367" y="88.4647" width="5.73696" height="5.73695"/><rect class="cls-4" x="369.49367" y="82.72552" width="5.73696" height="5.73918"/><rect class="cls-4" x="369.49367" y="76.98634" width="5.73696" height="5.73918"/><rect class="cls-6" x="369.49367" y="71.24938" width="5.73696" height="5.73695"/><rect class="cls-6" x="369.49367" y="65.5102" width="5.73696" height="5.73918"/><rect class="cls-6" x="369.49367" y="59.77102" width="5.73696" height="5.73918"/><rect class="cls-6" x="369.49367" y="54.03406" width="5.73696" height="5.73696"/><rect class="cls-6" x="369.49367" y="48.29488" width="5.73696" height="5.73918"/><rect class="cls-6" x="369.49367" y="42.5557" width="5.73696" height="5.73918"/><rect class="cls-7" x="369.49367" y="36.81874" width="5.73696" height="5.73696"/><rect class="cls-3" x="369.49367" y="31.07956" width="5.73696" height="5.73918"/><rect class="cls-3" x="369.49367" y="25.34261" width="5.73696" height="5.73696"/><rect class="cls-3" x="369.49367" y="19.60343" width="5.73696" height="5.73918"/><rect class="cls-3" x="369.49367" y="13.86424" width="5.73696" height="5.73918"/><rect class="cls-3" x="369.49367" y="8.12729" width="5.73696" height="5.73696"/><rect class="cls-4" x="363.75449" y="111.41698" width="5.73918" height="5.73918"/><rect class="cls-6" x="363.75449" y="105.68001" width="5.73918" height="5.73695"/><rect class="cls-2" x="363.75449" y="99.94083" width="5.73918" height="5.73918"/><rect class="cls-10" x="363.75449" y="94.20165" width="5.73918" height="5.73918"/><rect class="cls-2" x="363.75449" y="88.4647" width="5.73918" height="5.73695"/><rect class="cls-4" x="363.75449" y="82.72552" width="5.73918" height="5.73918"/><rect class="cls-6" x="363.75449" y="76.98634" width="5.73918" height="5.73918"/><rect class="cls-8" x="363.75449" y="71.24938" width="5.73918" height="5.73695"/><rect class="cls-8" x="363.75449" y="65.5102" width="5.73918" height="5.73918"/><rect class="cls-11" x="363.75449" y="59.77102" width="5.73918" height="5.73918"/><rect class="cls-12" x="363.75449" y="54.03406" width="5.73918" height="5.73696"/><rect x="363.75449" y="48.29488" width="5.73918" height="5.73918"/><rect class="cls-7" x="363.75449" y="42.5557" width="5.73918" height="5.73918"/><rect class="cls-3" x="363.75449" y="36.81874" width="5.73918" height="5.73696"/><rect class="cls-3" x="363.75449" y="31.07956" width="5.73918" height="5.73918"/><rect class="cls-3" x="363.75449" y="25.34261" width="5.73918" height="5.73696"/><rect class="cls-3" x="363.75449" y="19.60343" width="5.73918" height="5.73918"/><rect class="cls-3" x="363.75449" y="13.86424" width="5.73918" height="5.73918"/><rect class="cls-3" x="363.75449" y="8.12729" width="5.73918" height="5.73696"/><rect class="cls-2" x="358.01753" y="111.41698" width="5.73696" height="5.73918"/><rect class="cls-8" x="358.01753" y="105.68001" width="5.73696" height="5.73695"/><rect class="cls-5" x="358.01753" y="99.94083" width="5.73696" height="5.73918"/><rect class="cls-13" x="358.01753" y="94.20165" width="5.73696" height="5.73918"/><rect class="cls-5" x="358.01753" y="88.4647" width="5.73696" height="5.73695"/><rect class="cls-4" x="358.01753" y="82.72552" width="5.73696" height="5.73918"/><rect class="cls-6" x="358.01753" y="76.98634" width="5.73696" height="5.73918"/><rect class="cls-8" x="358.01753" y="71.24938" width="5.73696" height="5.73695"/><rect class="cls-8" x="358.01753" y="65.5102" width="5.73696" height="5.73918"/><rect class="cls-14" x="358.01753" y="59.77102" width="5.73696" height="5.73918"/><rect class="cls-15" x="358.01753" y="54.03406" width="5.73696" height="5.73696"/><rect x="358.01753" y="48.29488" width="5.73696" height="5.73918"/><rect class="cls-3" x="358.01753" y="42.5557" width="5.73696" height="5.73918"/><rect class="cls-3" x="358.01753" y="36.81874" width="5.73696" height="5.73696"/><rect class="cls-3" x="358.01753" y="31.07956" width="5.73696" height="5.73918"/><rect class="cls-3" x="358.01753" y="25.34261" width="5.73696" height="5.73696"/><rect class="cls-3" x="358.01753" y="19.60343" width="5.73696" height="5.73918"/><rect class="cls-3" x="358.01753" y="13.86424" width="5.73696" height="5.73918"/><rect class="cls-3" x="358.01753" y="8.12729" width="5.73696" height="5.73696"/><rect class="cls-5" x="352.27835" y="111.41698" width="5.73918" height="5.73918"/><rect class="cls-8" x="352.27835" y="99.94083" width="5.73918" height="5.73918"/><rect class="cls-16" x="352.27835" y="94.20165" width="5.73918" height="5.73918"/><rect class="cls-2" x="352.27835" y="88.4647" width="5.73918" height="5.73695"/><rect class="cls-4" x="352.27835" y="82.72552" width="5.73918" height="5.73918"/><rect class="cls-17" x="352.27835" y="71.24938" width="5.73918" height="5.73695"/><rect class="cls-8" x="352.27835" y="65.5102" width="5.73918" height="5.73918"/><rect class="cls-8" x="352.27835" y="59.77102" width="5.73918" height="5.73918"/><rect class="cls-8" x="352.27835" y="54.03406" width="5.73918" height="5.73696"/><rect class="cls-6" x="352.27835" y="48.29488" width="5.73918" height="5.73918"/><rect class="cls-3" x="352.27835" y="42.5557" width="5.73918" height="5.73918"/><rect class="cls-7" x="352.27835" y="36.81874" width="5.73918" height="5.73696"/><rect class="cls-3" x="352.27835" y="31.07956" width="5.73918" height="5.73918"/><rect class="cls-3" x="352.27835" y="25.34261" width="5.73918" height="5.73696"/><rect class="cls-3" x="352.27835" y="19.60343" width="5.73918" height="5.73918"/><rect class="cls-7" x="352.27835" y="13.86424" width="5.73918" height="5.73918"/><rect class="cls-2" x="346.53917" y="88.4647" width="5.73918" height="5.73695"/><rect class="cls-17" x="346.53917" y="71.24938" width="5.73918" height="5.73695"/><rect class="cls-8" x="346.53917" y="65.5102" width="5.73918" height="5.73918"/><rect class="cls-8" x="346.53917" y="59.77102" width="5.73918" height="5.73918"/><rect class="cls-8" x="346.53917" y="54.03406" width="5.73918" height="5.73696"/><rect class="cls-6" x="346.53917" y="48.29488" width="5.73918" height="5.73918"/><rect class="cls-7" x="346.53917" y="42.5557" width="5.73918" height="5.73918"/><rect class="cls-3" x="346.53917" y="36.81874" width="5.73918" height="5.73696"/><rect class="cls-3" x="346.53917" y="31.07956" width="5.73918" height="5.73918"/><rect class="cls-7" x="346.53917" y="25.34261" width="5.73918" height="5.73696"/><rect class="cls-7" x="346.53917" y="19.60343" width="5.73918" height="5.73918"/><rect class="cls-8" x="340.80221" y="65.5102" width="5.73696" height="5.73918"/><rect class="cls-8" x="340.80221" y="59.77102" width="5.73696" height="5.73918"/><rect class="cls-8" x="340.80221" y="54.03406" width="5.73696" height="5.73696"/><rect class="cls-8" x="340.80221" y="48.29488" width="5.73696" height="5.73918"/><rect class="cls-17" x="340.80221" y="42.5557" width="5.73696" height="5.73918"/><rect class="cls-3" x="340.80221" y="36.81874" width="5.73696" height="5.73696"/><rect class="cls-7" x="340.80221" y="31.07956" width="5.73696" height="5.73918"/><rect class="cls-7" x="340.80221" y="25.34261" width="5.73696" height="5.73696"/></g></g><g id="Layer_2-3" data-name="Layer 2"><g id="grid-2" data-name="grid"><rect class="cls-18" x="77.48154" y="70.43677" width="7.04477" height="7.04477"/><rect class="cls-18" x="77.48154" y="63.39473" width="7.04477" height="7.04204"/><rect class="cls-18" x="77.48154" y="56.34996" width="7.04477" height="7.04477"/><rect class="cls-18" x="77.48154" y="49.30519" width="7.04477" height="7.04477"/><rect class="cls-18" x="77.48154" y="42.26315" width="7.04477" height="7.04204"/><rect class="cls-18" x="77.48154" y="35.21838" width="7.04477" height="7.04477"/><rect class="cls-18" x="77.48154" y="28.17635" width="7.04477" height="7.04204"/><rect class="cls-19" x="77.48154" y="21.13158" width="7.04477" height="7.04477"/><rect class="cls-18" x="70.43677" y="77.48154" width="7.04477" height="7.04477"/><rect class="cls-18" x="70.43677" y="70.43677" width="7.04477" height="7.04477"/><rect class="cls-19" x="70.43677" y="63.39473" width="7.04477" height="7.04204"/><rect class="cls-19" x="70.43677" y="56.34996" width="7.04477" height="7.04477"/><rect class="cls-18" x="70.43677" y="49.30519" width="7.04477" height="7.04477"/><rect class="cls-18" x="70.43677" y="42.26315" width="7.04477" height="7.04204"/><rect class="cls-19" x="70.43677" y="35.21838" width="7.04477" height="7.04477"/><rect class="cls-19" x="70.43677" y="28.17635" width="7.04477" height="7.04204"/><rect class="cls-19" x="70.43677" y="21.13158" width="7.04477" height="7.04477"/><rect class="cls-19" x="70.43677" y="14.08681" width="7.04477" height="7.04477"/><rect class="cls-20" x="63.39473" y="105.65788" width="7.04204" height="7.04204"/><rect class="cls-21" x="63.39473" y="98.61312" width="7.04204" height="7.04477"/><rect class="cls-22" x="63.39473" y="91.56835" width="7.04204" height="7.04477"/><rect class="cls-21" x="63.39473" y="84.5263" width="7.04204" height="7.04204"/><rect class="cls-19" x="63.39473" y="77.48154" width="7.04204" height="7.04477"/><rect class="cls-19" x="63.39473" y="70.43677" width="7.04204" height="7.04477"/><rect class="cls-19" x="63.39473" y="63.39473" width="7.04204" height="7.04204"/><rect class="cls-18" x="63.39473" y="56.34996" width="7.04204" height="7.04477"/><rect class="cls-23" x="63.39473" y="49.30519" width="7.04204" height="7.04477"/><rect class="cls-23" x="63.39473" y="42.26315" width="7.04204" height="7.04204"/><rect class="cls-19" x="63.39473" y="35.21838" width="7.04204" height="7.04477"/><rect class="cls-24" x="63.39473" y="28.17635" width="7.04204" height="7.04204"/><rect class="cls-25" x="63.39473" y="21.13158" width="7.04204" height="7.04477"/><rect class="cls-19" x="63.39473" y="14.08681" width="7.04204" height="7.04477"/><rect class="cls-19" x="63.39473" y="7.04477" width="7.04204" height="7.04204"/><rect class="cls-26" x="56.34996" y="119.74469" width="7.04477" height="7.04477"/><rect class="cls-27" x="56.34996" y="112.69992" width="7.04477" height="7.04477"/><rect class="cls-21" x="56.34996" y="105.65788" width="7.04477" height="7.04204"/><rect class="cls-28" x="56.34996" y="98.61312" width="7.04477" height="7.04477"/><rect class="cls-29" x="56.34996" y="91.56835" width="7.04477" height="7.04477"/><rect class="cls-20" x="56.34996" y="84.5263" width="7.04477" height="7.04204"/><rect class="cls-19" x="56.34996" y="77.48154" width="7.04477" height="7.04477"/><rect class="cls-18" x="56.34996" y="70.43677" width="7.04477" height="7.04477"/><rect class="cls-18" x="56.34996" y="63.39473" width="7.04477" height="7.04204"/><rect class="cls-18" x="56.34996" y="56.34996" width="7.04477" height="7.04477"/><rect class="cls-19" x="56.34996" y="49.30519" width="7.04477" height="7.04477"/><rect class="cls-18" x="56.34996" y="42.26315" width="7.04477" height="7.04204"/><rect class="cls-19" x="56.34996" y="35.21838" width="7.04477" height="7.04477"/><rect class="cls-24" x="56.34996" y="28.17635" width="7.04477" height="7.04204"/><rect class="cls-24" x="56.34996" y="21.13158" width="7.04477" height="7.04477"/><rect class="cls-19" x="56.34996" y="14.08681" width="7.04477" height="7.04477"/><rect class="cls-19" x="56.34996" y="7.04477" width="7.04477" height="7.04204"/><rect class="cls-19" x="56.34996" width="7.04477" height="7.04477"/><rect class="cls-30" x="49.30519" y="119.74469" width="7.04477" height="7.04477"/><rect class="cls-23" x="49.30519" y="112.69992" width="7.04477" height="7.04477"/><rect class="cls-23" x="49.30519" y="105.65788" width="7.04477" height="7.04204"/><rect class="cls-31" x="49.30519" y="98.61312" width="7.04477" height="7.04477"/><rect class="cls-28" x="49.30519" y="91.56835" width="7.04477" height="7.04477"/><rect class="cls-20" x="49.30519" y="84.5263" width="7.04477" height="7.04204"/><rect class="cls-20" x="49.30519" y="77.48154" width="7.04477" height="7.04477"/><rect class="cls-21" x="49.30519" y="70.43677" width="7.04477" height="7.04477"/><rect class="cls-18" x="49.30519" y="63.39473" width="7.04477" height="7.04204"/><rect class="cls-18" x="49.30519" y="56.34996" width="7.04477" height="7.04477"/><rect class="cls-18" x="49.30519" y="49.30519" width="7.04477" height="7.04477"/><rect class="cls-27" x="49.30519" y="42.26315" width="7.04477" height="7.04204"/><rect class="cls-18" x="49.30519" y="35.21838" width="7.04477" height="7.04477"/><rect class="cls-18" x="49.30519" y="28.17635" width="7.04477" height="7.04204"/><rect class="cls-19" x="49.30519" y="21.13158" width="7.04477" height="7.04477"/><rect class="cls-19" x="49.30519" y="14.08681" width="7.04477" height="7.04477"/><rect class="cls-19" x="49.30519" y="7.04477" width="7.04477" height="7.04204"/><rect class="cls-32" x="49.30519" width="7.04477" height="7.04477"/><rect class="cls-30" x="42.26315" y="119.74469" width="7.04204" height="7.04477"/><rect class="cls-23" x="42.26315" y="112.69992" width="7.04204" height="7.04477"/><rect class="cls-33" x="42.26315" y="105.65788" width="7.04204" height="7.04204"/><rect class="cls-23" x="42.26315" y="98.61312" width="7.04204" height="7.04477"/><rect class="cls-22" x="42.26315" y="91.56835" width="7.04204" height="7.04477"/><rect class="cls-22" x="42.26315" y="84.5263" width="7.04204" height="7.04204"/><rect class="cls-20" x="42.26315" y="77.48154" width="7.04204" height="7.04477"/><rect class="cls-23" x="42.26315" y="70.43677" width="7.04204" height="7.04477"/><rect class="cls-23" x="42.26315" y="63.39473" width="7.04204" height="7.04204"/><rect class="cls-23" x="42.26315" y="56.34996" width="7.04204" height="7.04477"/><rect class="cls-23" x="42.26315" y="49.30519" width="7.04204" height="7.04477"/><rect class="cls-23" x="42.26315" y="42.26315" width="7.04204" height="7.04204"/><rect class="cls-32" x="42.26315" y="35.21838" width="7.04204" height="7.04477"/><rect class="cls-19" x="42.26315" y="28.17635" width="7.04204" height="7.04204"/><rect class="cls-32" x="42.26315" y="21.13158" width="7.04204" height="7.04477"/><rect class="cls-19" x="42.26315" y="14.08681" width="7.04204" height="7.04477"/><rect class="cls-19" x="42.26315" y="7.04477" width="7.04204" height="7.04204"/><rect class="cls-19" x="42.26315" width="7.04204" height="7.04477"/><rect class="cls-26" x="35.21838" y="119.74469" width="7.04477" height="7.04477"/><rect class="cls-27" x="35.21838" y="112.69992" width="7.04477" height="7.04477"/><rect class="cls-34" x="35.21838" y="105.65788" width="7.04477" height="7.04204"/><rect class="cls-21" x="35.21838" y="98.61312" width="7.04477" height="7.04477"/><rect class="cls-35" x="35.21838" y="91.56835" width="7.04477" height="7.04477"/><rect class="cls-22" x="35.21838" y="84.5263" width="7.04477" height="7.04204"/><rect class="cls-28" x="35.21838" y="77.48154" width="7.04477" height="7.04477"/><rect class="cls-23" x="35.21838" y="70.43677" width="7.04477" height="7.04477"/><rect class="cls-23" x="35.21838" y="63.39473" width="7.04477" height="7.04204"/><rect class="cls-33" x="35.21838" y="56.34996" width="7.04477" height="7.04477"/><rect class="cls-33" x="35.21838" y="49.30519" width="7.04477" height="7.04477"/><rect class="cls-33" x="35.21838" y="42.26315" width="7.04477" height="7.04204"/><rect class="cls-32" x="35.21838" y="35.21838" width="7.04477" height="7.04477"/><rect class="cls-32" x="35.21838" y="28.17635" width="7.04477" height="7.04204"/><rect class="cls-19" x="35.21838" y="21.13158" width="7.04477" height="7.04477"/><rect class="cls-19" x="35.21838" y="14.08681" width="7.04477" height="7.04477"/><rect class="cls-19" x="35.21838" y="7.04477" width="7.04477" height="7.04204"/><rect class="cls-32" x="35.21838" width="7.04477" height="7.04477"/><rect class="cls-30" x="28.17635" y="119.74469" width="7.04204" height="7.04477"/><rect class="cls-23" x="28.17635" y="112.69992" width="7.04204" height="7.04477"/><rect class="cls-36" x="28.17635" y="105.65788" width="7.04204" height="7.04204"/><rect class="cls-21" x="28.17635" y="98.61312" width="7.04204" height="7.04477"/><rect class="cls-21" x="28.17635" y="91.56835" width="7.04204" height="7.04477"/><rect class="cls-37" x="28.17635" y="84.5263" width="7.04204" height="7.04204"/><rect class="cls-23" x="28.17635" y="77.48154" width="7.04204" height="7.04477"/><rect class="cls-23" x="28.17635" y="70.43677" width="7.04204" height="7.04477"/><rect class="cls-33" x="28.17635" y="63.39473" width="7.04204" height="7.04204"/><rect class="cls-38" x="28.17635" y="56.34996" width="7.04204" height="7.04477"/><rect class="cls-39" x="28.17635" y="49.30519" width="7.04204" height="7.04477"/><rect class="cls-27" x="28.17635" y="42.26315" width="7.04204" height="7.04204"/><rect class="cls-32" x="28.17635" y="35.21838" width="7.04204" height="7.04477"/><rect class="cls-19" x="28.17635" y="28.17635" width="7.04204" height="7.04204"/><rect class="cls-32" x="28.17635" y="21.13158" width="7.04204" height="7.04477"/><rect class="cls-19" x="28.17635" y="14.08681" width="7.04204" height="7.04477"/><rect class="cls-19" x="28.17635" y="7.04477" width="7.04204" height="7.04204"/><rect class="cls-19" x="28.17635" width="7.04204" height="7.04477"/><rect class="cls-30" x="21.13158" y="119.74469" width="7.04477" height="7.04477"/><rect class="cls-33" x="21.13158" y="112.69992" width="7.04477" height="7.04477"/><rect class="cls-36" x="21.13158" y="105.65788" width="7.04477" height="7.04204"/><rect class="cls-21" x="21.13158" y="98.61312" width="7.04477" height="7.04477"/><rect class="cls-35" x="21.13158" y="91.56835" width="7.04477" height="7.04477"/><rect class="cls-22" x="21.13158" y="84.5263" width="7.04477" height="7.04204"/><rect class="cls-28" x="21.13158" y="77.48154" width="7.04477" height="7.04477"/><rect class="cls-33" x="21.13158" y="70.43677" width="7.04477" height="7.04477"/><rect class="cls-33" x="21.13158" y="63.39473" width="7.04477" height="7.04204"/><rect class="cls-40" x="21.13158" y="56.34996" width="7.04477" height="7.04477"/><rect class="cls-41" x="21.13158" y="49.30519" width="7.04477" height="7.04477"/><rect class="cls-27" x="21.13158" y="42.26315" width="7.04477" height="7.04204"/><rect class="cls-23" x="21.13158" y="35.21838" width="7.04477" height="7.04477"/><rect class="cls-19" x="21.13158" y="28.17635" width="7.04477" height="7.04204"/><rect class="cls-19" x="21.13158" y="21.13158" width="7.04477" height="7.04477"/><rect class="cls-19" x="21.13158" y="14.08681" width="7.04477" height="7.04477"/><rect class="cls-19" x="21.13158" y="7.04477" width="7.04477" height="7.04204"/><rect class="cls-32" x="21.13158" width="7.04477" height="7.04477"/><rect class="cls-20" x="14.08681" y="105.65788" width="7.04477" height="7.04204"/><rect class="cls-22" x="14.08681" y="98.61312" width="7.04477" height="7.04477"/><rect class="cls-22" x="14.08681" y="91.56835" width="7.04477" height="7.04477"/><rect class="cls-22" x="14.08681" y="84.5263" width="7.04477" height="7.04204"/><rect class="cls-21" x="14.08681" y="77.48154" width="7.04477" height="7.04477"/><rect class="cls-33" x="14.08681" y="70.43677" width="7.04477" height="7.04477"/><rect class="cls-33" x="14.08681" y="63.39473" width="7.04477" height="7.04204"/><rect class="cls-33" x="14.08681" y="56.34996" width="7.04477" height="7.04477"/><rect class="cls-33" x="14.08681" y="49.30519" width="7.04477" height="7.04477"/><rect class="cls-33" x="14.08681" y="42.26315" width="7.04477" height="7.04204"/><rect class="cls-32" x="14.08681" y="35.21838" width="7.04477" height="7.04477"/><rect class="cls-19" x="14.08681" y="28.17635" width="7.04477" height="7.04204"/><rect class="cls-32" x="14.08681" y="21.13158" width="7.04477" height="7.04477"/><rect class="cls-19" x="14.08681" y="14.08681" width="7.04477" height="7.04477"/><rect class="cls-19" x="14.08681" y="7.04477" width="7.04477" height="7.04204"/><rect class="cls-33" x="7.04477" y="98.61312" width="7.04204" height="7.04477"/><rect class="cls-31" x="7.04477" y="91.56835" width="7.04204" height="7.04477"/><rect class="cls-20" x="7.04477" y="84.5263" width="7.04204" height="7.04204"/><rect class="cls-33" x="7.04477" y="63.39473" width="7.04204" height="7.04204"/><rect class="cls-33" x="7.04477" y="56.34996" width="7.04204" height="7.04477"/><rect class="cls-33" x="7.04477" y="49.30519" width="7.04204" height="7.04477"/><rect class="cls-33" x="7.04477" y="42.26315" width="7.04204" height="7.04204"/><rect class="cls-32" x="7.04477" y="35.21838" width="7.04204" height="7.04477"/><rect class="cls-32" x="7.04477" y="28.17635" width="7.04204" height="7.04204"/><rect class="cls-19" x="7.04477" y="21.13158" width="7.04204" height="7.04477"/><rect class="cls-32" x="7.04477" y="14.08681" width="7.04204" height="7.04477"/><rect class="cls-32" x="7.04477" y="7.04477" width="7.04204" height="7.04204"/><rect class="cls-32" y="42.26315" width="7.04477" height="7.04204"/><rect class="cls-32" y="35.21838" width="7.04477" height="7.04477"/><rect class="cls-32" y="28.17635" width="7.04477" height="7.04204"/><rect class="cls-32" y="21.13158" width="7.04477" height="7.04477"/><rect class="cls-32" y="14.08681" width="7.04477" height="7.04477"/></g></g><g id="Layer_2-4" data-name="Layer 2"><g id="grid-3" data-name="grid"><rect class="cls-42" x="186.50881" y="95.44459" width="5.9652" height="5.9652"/><rect class="cls-43" x="228.25828" y="77.5513" width="5.9652" height="5.9652"/><rect class="cls-44" x="222.29539" y="119.30076" width="5.96289" height="5.9652"/><rect class="cls-45" x="204.4021" y="95.44459" width="5.96289" height="5.9652"/><rect class="cls-45" x="204.4021" y="101.40979" width="5.96289" height="5.96289"/><rect class="cls-45" x="210.36499" y="101.40979" width="5.9652" height="5.96289"/><rect class="cls-46" x="210.36499" y="95.44459" width="5.9652" height="5.9652"/><rect class="cls-42" x="186.50881" y="77.5513" width="5.9652" height="5.9652"/><rect class="cls-42" x="186.50881" y="89.47939" width="5.9652" height="5.9652"/><rect class="cls-42" x="186.50881" y="83.5165" width="5.9652" height="5.96289"/><rect class="cls-47" x="180.54361" y="89.47939" width="5.9652" height="5.9652"/><rect class="cls-47" x="198.4369" y="95.44459" width="5.9652" height="5.9652"/><rect class="cls-47" x="192.47401" y="89.47939" width="5.96289" height="5.9652"/><rect class="cls-47" x="192.47401" y="95.44459" width="5.96289" height="5.9652"/><rect class="cls-47" x="198.4369" y="89.47939" width="5.9652" height="5.9652"/><rect class="cls-47" x="210.36499" y="89.47939" width="5.9652" height="5.9652"/><rect class="cls-42" x="216.33019" y="95.44459" width="5.9652" height="5.9652"/><rect class="cls-47" x="216.33019" y="107.37268" width="5.9652" height="5.9652"/><rect class="cls-47" x="222.29539" y="101.40979" width="5.96289" height="5.96289"/><rect class="cls-47" x="222.29539" y="95.44459" width="5.96289" height="5.9652"/><rect class="cls-47" x="222.29539" y="107.37268" width="5.96289" height="5.9652"/><rect class="cls-47" x="216.33019" y="101.40979" width="5.9652" height="5.96289"/><rect class="cls-42" x="228.25828" y="89.47939" width="5.9652" height="5.9652"/><rect class="cls-42" x="228.25828" y="101.40979" width="5.9652" height="5.96289"/><rect class="cls-42" x="228.25828" y="95.44459" width="5.9652" height="5.9652"/><rect class="cls-43" x="222.29539" y="89.47939" width="5.96289" height="5.9652"/><rect class="cls-47" x="210.36499" y="77.5513" width="5.9652" height="5.9652"/><rect class="cls-47" x="210.36499" y="83.5165" width="5.9652" height="5.96289"/><rect class="cls-47" x="216.33019" y="83.5165" width="5.9652" height="5.96289"/><rect class="cls-47" x="216.33019" y="77.5513" width="5.9652" height="5.9652"/><rect class="cls-42" x="216.33019" y="71.5861" width="5.9652" height="5.9652"/><rect class="cls-43" x="210.36499" y="71.5861" width="5.9652" height="5.9652"/><rect class="cls-44" x="204.4021" y="113.33788" width="5.96289" height="5.96289"/><rect class="cls-44" x="198.4369" y="113.33788" width="5.9652" height="5.96289"/><rect class="cls-48" x="210.36499" y="113.33788" width="5.9652" height="5.96289"/><rect class="cls-48" x="192.47401" y="107.37268" width="5.96289" height="5.9652"/><rect class="cls-49" x="192.47401" y="83.5165" width="5.96289" height="5.96289"/><rect class="cls-50" x="198.4369" y="83.5165" width="5.9652" height="5.96289"/><rect class="cls-49" x="192.47401" y="77.5513" width="5.96289" height="5.9652"/><rect class="cls-51" x="198.4369" y="71.5861" width="5.9652" height="5.9652"/><rect class="cls-42" x="246.15157" y="47.72992" width="5.9652" height="5.96289"/><rect class="cls-47" x="246.15157" y="41.76472" width="5.9652" height="5.9652"/><rect class="cls-47" x="246.15157" y="35.79952" width="5.9652" height="5.9652"/><rect class="cls-47" x="246.15157" y="29.83663" width="5.9652" height="5.96289"/><rect class="cls-47" x="246.15157" y="23.87143" width="5.9652" height="5.9652"/><rect class="cls-43" x="240.18867" y="59.65801" width="5.96289" height="5.9652"/><rect class="cls-47" x="240.18867" y="53.69281" width="5.96289" height="5.9652"/><rect class="cls-47" x="240.18867" y="47.72992" width="5.96289" height="5.96289"/><rect class="cls-47" x="240.18867" y="41.76472" width="5.96289" height="5.9652"/><rect class="cls-47" x="240.18867" y="35.79952" width="5.96289" height="5.9652"/><rect class="cls-47" x="240.18867" y="29.83663" width="5.96289" height="5.96289"/><rect class="cls-47" x="240.18867" y="23.87143" width="5.96289" height="5.9652"/><rect class="cls-47" x="240.18867" y="17.90854" width="5.96289" height="5.96289"/><rect class="cls-43" x="234.22348" y="65.62321" width="5.9652" height="5.96289"/><rect class="cls-43" x="234.22348" y="59.65801" width="5.9652" height="5.9652"/><rect class="cls-43" x="234.22348" y="53.69281" width="5.9652" height="5.9652"/><rect class="cls-47" x="234.22348" y="47.72992" width="5.9652" height="5.96289"/><rect class="cls-47" x="234.22348" y="41.76472" width="5.9652" height="5.9652"/><rect class="cls-47" x="234.22348" y="35.79952" width="5.9652" height="5.9652"/><rect class="cls-47" x="234.22348" y="29.83663" width="5.9652" height="5.96289"/><rect class="cls-47" x="234.22348" y="23.87143" width="5.9652" height="5.9652"/><rect class="cls-47" x="234.22348" y="17.90854" width="5.9652" height="5.96289"/><rect class="cls-47" x="234.22348" y="11.94334" width="5.9652" height="5.9652"/><rect class="cls-42" x="228.25828" y="107.37268" width="5.9652" height="5.9652"/><rect class="cls-42" x="228.25828" y="83.5165" width="5.9652" height="5.96289"/><rect class="cls-43" x="228.25828" y="65.62321" width="5.9652" height="5.96289"/><rect class="cls-43" x="228.25828" y="59.65801" width="5.9652" height="5.9652"/><rect class="cls-43" x="228.25828" y="53.69281" width="5.9652" height="5.9652"/><rect class="cls-43" x="228.25828" y="47.72992" width="5.9652" height="5.96289"/><rect class="cls-43" x="228.25828" y="41.76472" width="5.9652" height="5.9652"/><rect class="cls-43" x="228.25828" y="35.79952" width="5.9652" height="5.9652"/><rect class="cls-42" x="228.25828" y="29.83663" width="5.9652" height="5.96289"/><rect class="cls-47" x="228.25828" y="23.87143" width="5.9652" height="5.9652"/><rect x="228.25828" y="17.90854" width="5.9652" height="5.96289"/><rect class="cls-47" x="228.25828" y="11.94334" width="5.9652" height="5.9652"/><rect class="cls-47" x="228.25828" y="5.97814" width="5.9652" height="5.9652"/><rect class="cls-44" x="222.29539" y="113.33788" width="5.96289" height="5.96289"/><rect class="cls-43" x="222.29539" y="83.5165" width="5.96289" height="5.96289"/><rect class="cls-42" x="222.29539" y="77.5513" width="5.96289" height="5.9652"/><rect class="cls-43" x="222.29539" y="71.5861" width="5.96289" height="5.9652"/><rect class="cls-52" x="222.29539" y="65.62321" width="5.96289" height="5.96289"/><rect class="cls-52" x="222.29539" y="59.65801" width="5.96289" height="5.9652"/><rect class="cls-52" x="222.29539" y="53.69281" width="5.96289" height="5.9652"/><rect class="cls-52" x="222.29539" y="47.72992" width="5.96289" height="5.96289"/><rect class="cls-46" x="222.29539" y="41.76472" width="5.96289" height="5.9652"/><rect class="cls-46" x="222.29539" y="35.79952" width="5.96289" height="5.9652"/><rect class="cls-42" x="222.29539" y="29.83663" width="5.96289" height="5.96289"/><rect class="cls-53" x="222.29539" y="23.87143" width="5.96289" height="5.9652"/><rect class="cls-47" x="222.29539" y="17.90854" width="5.96289" height="5.96289"/><rect class="cls-47" x="222.29539" y="11.94334" width="5.96289" height="5.9652"/><rect class="cls-47" x="222.29539" y="5.97814" width="5.96289" height="5.9652"/><rect class="cls-47" x="222.29539" y="0.01525" width="5.96289" height="5.96289"/><rect class="cls-44" x="216.33019" y="119.30076" width="5.9652" height="5.9652"/><rect class="cls-54" x="216.33019" y="113.33788" width="5.9652" height="5.96289"/><rect class="cls-42" x="216.33019" y="89.47939" width="5.9652" height="5.9652"/><rect class="cls-48" x="216.33019" y="65.62321" width="5.9652" height="5.96289"/><rect class="cls-48" x="216.33019" y="59.65801" width="5.9652" height="5.9652"/><rect class="cls-52" x="216.33019" y="53.69281" width="5.9652" height="5.9652"/><rect class="cls-45" x="216.33019" y="47.72992" width="5.9652" height="5.96289"/><rect class="cls-45" x="216.33019" y="41.76472" width="5.9652" height="5.9652"/><rect class="cls-42" x="216.33019" y="35.79952" width="5.9652" height="5.9652"/><rect class="cls-53" x="216.33019" y="29.83663" width="5.9652" height="5.96289"/><rect class="cls-53" x="216.33019" y="23.87143" width="5.9652" height="5.9652"/><rect class="cls-53" x="216.33019" y="17.90854" width="5.9652" height="5.96289"/><rect x="216.33019" y="11.94334" width="5.9652" height="5.9652"/><rect x="216.33019" y="5.97814" width="5.9652" height="5.9652"/><rect class="cls-47" x="216.33019" y="0.01525" width="5.9652" height="5.96289"/><rect class="cls-54" x="210.36499" y="119.30076" width="5.9652" height="5.9652"/><rect class="cls-44" x="210.36499" y="107.37268" width="5.9652" height="5.9652"/><rect class="cls-46" x="210.36499" y="65.62321" width="5.9652" height="5.96289"/><rect class="cls-46" x="210.36499" y="59.65801" width="5.9652" height="5.9652"/><rect class="cls-48" x="210.36499" y="53.69281" width="5.9652" height="5.9652"/><rect class="cls-48" x="210.36499" y="47.72992" width="5.9652" height="5.96289"/><rect class="cls-52" x="210.36499" y="41.76472" width="5.9652" height="5.9652"/><rect class="cls-52" x="210.36499" y="35.79952" width="5.9652" height="5.9652"/><rect class="cls-55" x="210.36499" y="29.83663" width="5.9652" height="5.96289"/><rect class="cls-53" x="210.36499" y="23.87143" width="5.9652" height="5.9652"/><rect class="cls-47" x="210.36499" y="17.90854" width="5.9652" height="5.96289"/><rect class="cls-47" x="210.36499" y="11.94334" width="5.9652" height="5.9652"/><rect class="cls-47" x="210.36499" y="5.97814" width="5.9652" height="5.9652"/><rect class="cls-47" x="210.36499" y="0.01525" width="5.9652" height="5.96289"/><rect class="cls-44" x="204.4021" y="107.37268" width="5.96289" height="5.9652"/><rect class="cls-43" x="204.4021" y="89.47939" width="5.96289" height="5.9652"/><rect class="cls-43" x="204.4021" y="83.5165" width="5.96289" height="5.96289"/><rect class="cls-43" x="204.4021" y="77.5513" width="5.96289" height="5.9652"/><rect class="cls-42" x="204.4021" y="71.5861" width="5.96289" height="5.9652"/><rect class="cls-46" x="204.4021" y="65.62321" width="5.96289" height="5.96289"/><rect class="cls-46" x="204.4021" y="59.65801" width="5.96289" height="5.9652"/><rect class="cls-46" x="204.4021" y="53.69281" width="5.96289" height="5.9652"/><rect class="cls-46" x="204.4021" y="47.72992" width="5.96289" height="5.96289"/><rect class="cls-46" x="204.4021" y="41.76472" width="5.96289" height="5.9652"/><rect class="cls-52" x="204.4021" y="35.79952" width="5.96289" height="5.9652"/><rect class="cls-42" x="204.4021" y="29.83663" width="5.96289" height="5.96289"/><rect class="cls-47" x="204.4021" y="23.87143" width="5.96289" height="5.9652"/><rect class="cls-47" x="204.4021" y="17.90854" width="5.96289" height="5.96289"/><rect class="cls-47" x="204.4021" y="11.94334" width="5.96289" height="5.9652"/><rect class="cls-47" x="204.4021" y="5.97814" width="5.96289" height="5.9652"/><rect class="cls-47" x="204.4021" y="0.01525" width="5.96289" height="5.96289"/><rect class="cls-54" x="198.4369" y="107.37268" width="5.9652" height="5.9652"/><rect class="cls-44" x="198.4369" y="101.40979" width="5.9652" height="5.96289"/><rect class="cls-51" x="198.4369" y="77.5513" width="5.9652" height="5.9652"/><rect class="cls-45" x="198.4369" y="65.62321" width="5.9652" height="5.96289"/><rect class="cls-45" x="198.4369" y="59.65801" width="5.9652" height="5.9652"/><rect class="cls-46" x="198.4369" y="53.69281" width="5.9652" height="5.9652"/><rect class="cls-46" x="198.4369" y="47.72992" width="5.9652" height="5.96289"/><rect class="cls-46" x="198.4369" y="41.76472" width="5.9652" height="5.9652"/><rect class="cls-52" x="198.4369" y="35.79952" width="5.9652" height="5.9652"/><rect class="cls-43" x="198.4369" y="29.83663" width="5.9652" height="5.96289"/><rect class="cls-42" x="198.4369" y="23.87143" width="5.9652" height="5.9652"/><rect class="cls-42" x="198.4369" y="17.90854" width="5.9652" height="5.96289"/><rect class="cls-47" x="198.4369" y="11.94334" width="5.9652" height="5.9652"/><rect class="cls-47" x="198.4369" y="5.97814" width="5.9652" height="5.9652"/><rect class="cls-47" x="198.4369" y="0.01525" width="5.9652" height="5.96289"/><rect class="cls-54" x="192.47401" y="113.33788" width="5.96289" height="5.96289"/><rect class="cls-44" x="192.47401" y="101.40979" width="5.96289" height="5.96289"/><rect class="cls-42" x="192.47401" y="71.5861" width="5.96289" height="5.9652"/><rect class="cls-45" x="192.47401" y="65.62321" width="5.96289" height="5.96289"/><rect class="cls-45" x="192.47401" y="59.65801" width="5.96289" height="5.9652"/><rect class="cls-11" x="192.47401" y="53.69281" width="5.96289" height="5.9652"/><rect class="cls-53" x="192.47401" y="47.72992" width="5.96289" height="5.96289"/><rect x="192.47401" y="41.76472" width="5.96289" height="5.9652"/><rect class="cls-42" x="192.47401" y="35.79952" width="5.96289" height="5.9652"/><rect class="cls-47" x="192.47401" y="29.83663" width="5.96289" height="5.96289"/><rect class="cls-43" x="192.47401" y="23.87143" width="5.96289" height="5.9652"/><rect class="cls-42" x="192.47401" y="17.90854" width="5.96289" height="5.96289"/><rect class="cls-42" x="192.47401" y="11.94334" width="5.96289" height="5.9652"/><rect class="cls-47" x="192.47401" y="5.97814" width="5.96289" height="5.9652"/><rect class="cls-47" x="192.47401" y="0.01525" width="5.96289" height="5.96289"/><rect class="cls-42" x="186.50881" y="71.5861" width="5.9652" height="5.9652"/><rect class="cls-45" x="186.50881" y="65.62321" width="5.9652" height="5.96289"/><rect class="cls-45" x="186.50881" y="59.65801" width="5.9652" height="5.9652"/><rect class="cls-56" x="186.50881" y="53.69281" width="5.9652" height="5.9652"/><rect class="cls-42" x="186.50881" y="47.72992" width="5.9652" height="5.96289"/><rect x="186.50881" y="41.76472" width="5.9652" height="5.9652"/><rect class="cls-42" x="186.50881" y="35.79952" width="5.9652" height="5.9652"/><rect class="cls-47" x="186.50881" y="29.83663" width="5.9652" height="5.96289"/><rect class="cls-47" x="186.50881" y="23.87143" width="5.9652" height="5.9652"/><rect class="cls-43" x="186.50881" y="17.90854" width="5.9652" height="5.96289"/><rect class="cls-42" x="186.50881" y="11.94334" width="5.9652" height="5.9652"/><rect class="cls-47" x="186.50881" y="5.97814" width="5.9652" height="5.9652"/><rect class="cls-47" x="186.50881" y="0.01525" width="5.9652" height="5.96289"/><rect class="cls-45" x="180.54361" y="95.44459" width="5.9652" height="5.9652"/><rect class="cls-43" x="180.54361" y="83.5165" width="5.9652" height="5.96289"/><rect class="cls-43" x="180.54361" y="77.5513" width="5.9652" height="5.9652"/><rect class="cls-46" x="180.54361" y="65.62321" width="5.9652" height="5.96289"/><rect class="cls-45" x="180.54361" y="59.65801" width="5.9652" height="5.9652"/><rect class="cls-45" x="180.54361" y="53.69281" width="5.9652" height="5.9652"/><rect class="cls-45" x="180.54361" y="47.72992" width="5.9652" height="5.96289"/><rect class="cls-45" x="180.54361" y="41.76472" width="5.9652" height="5.9652"/><rect class="cls-42" x="180.54361" y="35.79952" width="5.9652" height="5.9652"/><rect class="cls-47" x="180.54361" y="29.83663" width="5.9652" height="5.96289"/><rect class="cls-47" x="180.54361" y="23.87143" width="5.9652" height="5.9652"/><rect class="cls-43" x="180.54361" y="17.90854" width="5.9652" height="5.96289"/><rect class="cls-42" x="180.54361" y="11.94334" width="5.9652" height="5.9652"/><rect class="cls-47" x="180.54361" y="5.97814" width="5.9652" height="5.9652"/><rect class="cls-46" x="174.58072" y="59.65801" width="5.96289" height="5.9652"/><rect class="cls-46" x="174.58072" y="53.69281" width="5.96289" height="5.9652"/><rect class="cls-46" x="174.58072" y="47.72992" width="5.96289" height="5.96289"/><rect class="cls-46" x="174.58072" y="41.76472" width="5.96289" height="5.9652"/><rect class="cls-42" x="174.58072" y="35.79952" width="5.96289" height="5.9652"/><rect class="cls-47" x="174.58072" y="29.83663" width="5.96289" height="5.96289"/><rect class="cls-47" x="174.58072" y="23.87143" width="5.96289" height="5.9652"/><rect class="cls-43" x="174.58072" y="17.90854" width="5.96289" height="5.96289"/><rect class="cls-42" x="174.58072" y="11.94334" width="5.96289" height="5.9652"/><rect class="cls-42" x="168.61552" y="35.79952" width="5.9652" height="5.9652"/><rect class="cls-42" x="168.61552" y="29.83663" width="5.9652" height="5.96289"/><rect class="cls-42" x="168.61552" y="23.87143" width="5.9652" height="5.9652"/></g></g></g></g></svg>