<svg xmlns="http://www.w3.org/2000/svg" viewBox="0 0 502.17143 502.17143"><defs><style>.cls-1{fill:#c2b59b;stroke:#231f20;stroke-miterlimit:10;}.cls-2{fill:#70535c;}.cls-3{fill:#8b868a;}.cls-4{fill:#bb8497;}.cls-5{fill:#7d767b;}.cls-6{fill:#ccc5cc;}.cls-7{fill:#977b66;}.cls-8{fill:#c69bac;}.cls-9{fill:#eacaa3;}.cls-10{fill:#85261a;}.cls-11{fill:#978097;}.cls-12{fill:#e6e6e6;}.cls-13{fill:#666;}.cls-14{fill:#caa8c9;}.cls-15{fill:#4d3252;}.cls-16{fill:#231827;}.cls-17{fill:#754c29;}.cls-18{fill:#d7b793;}.cls-19{fill:#c198b5;}.cls-20{fill:#e1bdd8;}.cls-21{fill:#20334b;}.cls-22{fill:#152525;}.cls-23{fill:#32415a;}.cls-24{fill:#a17667;}.cls-25{fill:#4d4d4d;}.cls-26{fill:gray;}.cls-27{fill:#cfbada;}.cls-28{fill:#63433e;}.cls-29{fill:#918d79;}.cls-30{fill:#eae4f1;}.cls-31{fill:#e9d6e9;}.cls-32{fill:#5b4634;}.cls-33{fill:#edd2e5;}.cls-34{fill:#daaf8f;}.cls-35{fill:#555150;}.cls-36{fill:#cfbf86;}.cls-37{fill:#b8a48e;}.cls-38{fill:#a1a0b4;}.cls-39{fill:#f2f2f2;}.cls-40{fill:#b3b3b3;}.cls-41{fill:#d08d98;}.cls-42{fill:#865b67;}.cls-43{fill:#282a20;}.cls-44{fill:#1f2118;}.cls-45{fill:#1d1d1b;}.cls-46{fill:#533e30;}.cls-47{fill:#3c2b23;}.cls-48{fill:#3a392b;}.cls-49{fill:#60625f;}.cls-50{fill:#4e3d21;}.cls-51{fill:#57554a;}.cls-52{fill:#322b22;}.cls-53{fill:#1a1a1a;}.cls-54{fill:#999;}.cls-55{fill:#2d2d2a;}.cls-56{fill:#401f1a;}.cls-57{fill:#31372a;}</style></defs><g id="Layer_2" data-name="Layer 2"><rect class="cls-1" x="0.5" y="0.5" width="501.17143" height="501.17143"/></g><g id="Layer_1" data-name="Layer 1"><g id="Layer_2-2" data-name="Layer 2"><g id="grid"><rect class="cls-2" x="447.39708" y="251.30988" width="5.73918" height="5.73695"/><rect class="cls-2" x="447.39708" y="245.5707" width="5.73918" height="5.73918"/><rect class="cls-2" x="447.39708" y="239.83152" width="5.73918" height="5.73918"/><rect class="cls-2" x="447.39708" y="234.09456" width="5.73918" height="5.73696"/><rect class="cls-2" x="447.39708" y="228.35538" width="5.73918" height="5.73918"/><rect class="cls-2" x="447.39708" y="222.6162" width="5.73918" height="5.73918"/><rect class="cls-2" x="447.39708" y="216.87925" width="5.73918" height="5.73696"/><rect class="cls-2" x="447.39708" y="211.14007" width="5.73918" height="5.73918"/><rect class="cls-2" x="441.66012" y="257.04684" width="5.73695" height="5.73918"/><rect class="cls-2" x="441.66012" y="251.30988" width="5.73695" height="5.73695"/><rect class="cls-2" x="441.66012" y="245.5707" width="5.73695" height="5.73918"/><rect class="cls-2" x="441.66012" y="239.83152" width="5.73695" height="5.73918"/><rect class="cls-2" x="441.66012" y="234.09456" width="5.73695" height="5.73696"/><rect class="cls-2" x="441.66012" y="228.35538" width="5.73695" height="5.73918"/><rect class="cls-2" x="441.66012" y="222.6162" width="5.73695" height="5.73918"/><rect class="cls-2" x="441.66012" y="216.87925" width="5.73695" height="5.73696"/><rect class="cls-2" x="441.66012" y="211.14007" width="5.73695" height="5.73918"/><rect class="cls-2" x="441.66012" y="205.40311" width="5.73695" height="5.73696"/><rect class="cls-3" x="435.92094" y="285.74052" width="5.73918" height="5.73695"/><rect class="cls-3" x="435.92094" y="280.00134" width="5.73918" height="5.73918"/><rect class="cls-2" x="435.92094" y="262.78602" width="5.73918" height="5.73918"/><rect class="cls-2" x="435.92094" y="257.04684" width="5.73918" height="5.73918"/><rect class="cls-2" x="435.92094" y="251.30988" width="5.73918" height="5.73695"/><rect class="cls-2" x="435.92094" y="245.5707" width="5.73918" height="5.73918"/><rect class="cls-4" x="435.92094" y="239.83152" width="5.73918" height="5.73918"/><rect class="cls-4" x="435.92094" y="234.09456" width="5.73918" height="5.73696"/><rect class="cls-4" x="435.92094" y="228.35538" width="5.73918" height="5.73918"/><rect class="cls-4" x="435.92094" y="222.6162" width="5.73918" height="5.73918"/><rect class="cls-4" x="435.92094" y="216.87925" width="5.73918" height="5.73696"/><rect class="cls-4" x="435.92094" y="211.14007" width="5.73918" height="5.73918"/><rect class="cls-4" x="435.92094" y="205.40311" width="5.73918" height="5.73696"/><rect class="cls-2" x="435.92094" y="199.66393" width="5.73918" height="5.73918"/><rect class="cls-3" x="430.18176" y="285.74052" width="5.73918" height="5.73695"/><rect class="cls-3" x="430.18176" y="280.00134" width="5.73918" height="5.73918"/><rect class="cls-3" x="430.18176" y="274.26216" width="5.73918" height="5.73918"/><rect class="cls-5" x="430.18176" y="268.5252" width="5.73918" height="5.73695"/><rect class="cls-5" x="430.18176" y="262.78602" width="5.73918" height="5.73918"/><rect class="cls-2" x="430.18176" y="257.04684" width="5.73918" height="5.73918"/><rect class="cls-4" x="430.18176" y="251.30988" width="5.73918" height="5.73695"/><rect class="cls-4" x="430.18176" y="245.5707" width="5.73918" height="5.73918"/><rect class="cls-4" x="430.18176" y="239.83152" width="5.73918" height="5.73918"/><rect class="cls-2" x="430.18176" y="234.09456" width="5.73918" height="5.73696"/><rect class="cls-2" x="430.18176" y="228.35538" width="5.73918" height="5.73918"/><rect class="cls-4" x="430.18176" y="222.6162" width="5.73918" height="5.73918"/><rect class="cls-4" x="430.18176" y="216.87925" width="5.73918" height="5.73696"/><rect class="cls-4" x="430.18176" y="211.14007" width="5.73918" height="5.73918"/><rect class="cls-4" x="430.18176" y="205.40311" width="5.73918" height="5.73696"/><rect class="cls-4" x="430.18176" y="199.66393" width="5.73918" height="5.73918"/><rect class="cls-2" x="430.18176" y="193.92475" width="5.73918" height="5.73918"/><rect class="cls-6" x="424.4448" y="285.74052" width="5.73696" height="5.73695"/><rect class="cls-5" x="424.4448" y="280.00134" width="5.73696" height="5.73918"/><rect class="cls-5" x="424.4448" y="274.26216" width="5.73696" height="5.73918"/><rect class="cls-6" x="424.4448" y="268.5252" width="5.73696" height="5.73695"/><rect class="cls-5" x="424.4448" y="262.78602" width="5.73696" height="5.73918"/><rect class="cls-4" x="424.4448" y="257.04684" width="5.73696" height="5.73918"/><rect class="cls-4" x="424.4448" y="251.30988" width="5.73696" height="5.73695"/><rect class="cls-4" x="424.4448" y="245.5707" width="5.73696" height="5.73918"/><rect class="cls-2" x="424.4448" y="239.83152" width="5.73696" height="5.73918"/><rect class="cls-7" x="424.4448" y="234.09456" width="5.73696" height="5.73696"/><rect class="cls-7" x="424.4448" y="228.35538" width="5.73696" height="5.73918"/><rect class="cls-4" x="424.4448" y="222.6162" width="5.73696" height="5.73918"/><rect class="cls-4" x="424.4448" y="216.87925" width="5.73696" height="5.73696"/><rect class="cls-4" x="424.4448" y="211.14007" width="5.73696" height="5.73918"/><rect class="cls-4" x="424.4448" y="205.40311" width="5.73696" height="5.73696"/><rect class="cls-4" x="424.4448" y="199.66393" width="5.73696" height="5.73918"/><rect class="cls-2" x="424.4448" y="193.92475" width="5.73696" height="5.73918"/><rect class="cls-4" x="424.4448" y="188.18779" width="5.73696" height="5.73696"/><rect class="cls-3" x="418.70562" y="297.21666" width="5.73918" height="5.73695"/><rect class="cls-7" x="418.70562" y="291.47748" width="5.73918" height="5.73918"/><rect class="cls-5" x="418.70562" y="285.74052" width="5.73918" height="5.73695"/><rect class="cls-5" x="418.70562" y="280.00134" width="5.73918" height="5.73918"/><rect class="cls-7" x="418.70562" y="274.26216" width="5.73918" height="5.73918"/><rect class="cls-7" x="418.70562" y="268.5252" width="5.73918" height="5.73695"/><rect class="cls-6" x="418.70562" y="262.78602" width="5.73918" height="5.73918"/><rect class="cls-4" x="418.70562" y="257.04684" width="5.73918" height="5.73918"/><rect class="cls-4" x="418.70562" y="251.30988" width="5.73918" height="5.73695"/><rect class="cls-4" x="418.70562" y="245.5707" width="5.73918" height="5.73918"/><rect class="cls-4" x="418.70562" y="239.83152" width="5.73918" height="5.73918"/><rect class="cls-4" x="418.70562" y="234.09456" width="5.73918" height="5.73696"/><rect class="cls-4" x="418.70562" y="228.35538" width="5.73918" height="5.73918"/><rect class="cls-4" x="418.70562" y="222.6162" width="5.73918" height="5.73918"/><rect class="cls-8" x="418.70562" y="216.87925" width="5.73918" height="5.73696"/><rect class="cls-4" x="418.70562" y="211.14007" width="5.73918" height="5.73918"/><rect class="cls-4" x="418.70562" y="205.40311" width="5.73918" height="5.73696"/><rect class="cls-2" x="418.70562" y="199.66393" width="5.73918" height="5.73918"/><rect class="cls-2" x="418.70562" y="193.92475" width="5.73918" height="5.73918"/><rect class="cls-4" x="418.70562" y="188.18779" width="5.73918" height="5.73696"/><rect class="cls-6" x="412.96644" y="297.21666" width="5.73918" height="5.73695"/><rect class="cls-9" x="412.96644" y="291.47748" width="5.73918" height="5.73918"/><rect class="cls-7" x="412.96644" y="285.74052" width="5.73918" height="5.73695"/><rect class="cls-7" x="412.96644" y="280.00134" width="5.73918" height="5.73918"/><rect class="cls-10" x="412.96644" y="274.26216" width="5.73918" height="5.73918"/><rect class="cls-7" x="412.96644" y="268.5252" width="5.73918" height="5.73695"/><rect class="cls-6" x="412.96644" y="262.78602" width="5.73918" height="5.73918"/><rect class="cls-4" x="412.96644" y="257.04684" width="5.73918" height="5.73918"/><rect class="cls-4" x="412.96644" y="251.30988" width="5.73918" height="5.73695"/><rect class="cls-4" x="412.96644" y="245.5707" width="5.73918" height="5.73918"/><rect class="cls-4" x="412.96644" y="239.83152" width="5.73918" height="5.73918"/><rect class="cls-4" x="412.96644" y="234.09456" width="5.73918" height="5.73696"/><rect class="cls-7" x="412.96644" y="228.35538" width="5.73918" height="5.73918"/><rect class="cls-8" x="412.96644" y="222.6162" width="5.73918" height="5.73918"/><rect class="cls-4" x="412.96644" y="216.87925" width="5.73918" height="5.73696"/><rect class="cls-4" x="412.96644" y="211.14007" width="5.73918" height="5.73918"/><rect class="cls-4" x="412.96644" y="205.40311" width="5.73918" height="5.73696"/><rect class="cls-4" x="412.96644" y="199.66393" width="5.73918" height="5.73918"/><rect class="cls-2" x="412.96644" y="193.92475" width="5.73918" height="5.73918"/><rect class="cls-4" x="412.96644" y="188.18779" width="5.73918" height="5.73696"/><rect class="cls-6" x="407.22948" y="297.21666" width="5.73696" height="5.73695"/><rect class="cls-5" x="407.22948" y="291.47748" width="5.73696" height="5.73918"/><rect class="cls-9" x="407.22948" y="285.74052" width="5.73696" height="5.73695"/><rect class="cls-9" x="407.22948" y="280.00134" width="5.73696" height="5.73918"/><rect class="cls-11" x="407.22948" y="274.26216" width="5.73696" height="5.73918"/><rect class="cls-5" x="407.22948" y="268.5252" width="5.73696" height="5.73695"/><rect class="cls-5" x="407.22948" y="262.78602" width="5.73696" height="5.73918"/><rect class="cls-5" x="407.22948" y="257.04684" width="5.73696" height="5.73918"/><rect class="cls-7" x="407.22948" y="251.30988" width="5.73696" height="5.73695"/><rect class="cls-7" x="407.22948" y="245.5707" width="5.73696" height="5.73918"/><rect class="cls-7" x="407.22948" y="239.83152" width="5.73696" height="5.73918"/><rect class="cls-7" x="407.22948" y="234.09456" width="5.73696" height="5.73696"/><rect class="cls-7" x="407.22948" y="228.35538" width="5.73696" height="5.73918"/><rect class="cls-7" x="407.22948" y="222.6162" width="5.73696" height="5.73918"/><rect class="cls-8" x="407.22948" y="216.87925" width="5.73696" height="5.73696"/><rect class="cls-4" x="407.22948" y="211.14007" width="5.73696" height="5.73918"/><rect class="cls-4" x="407.22948" y="205.40311" width="5.73696" height="5.73696"/><rect class="cls-4" x="407.22948" y="199.66393" width="5.73696" height="5.73918"/><rect class="cls-4" x="407.22948" y="193.92475" width="5.73696" height="5.73918"/><rect class="cls-4" x="407.22948" y="188.18779" width="5.73696" height="5.73696"/><rect class="cls-5" x="401.4903" y="291.47748" width="5.73918" height="5.73918"/><rect class="cls-7" x="401.4903" y="285.74052" width="5.73918" height="5.73695"/><rect class="cls-3" x="401.4903" y="280.00134" width="5.73918" height="5.73918"/><rect class="cls-11" x="401.4903" y="274.26216" width="5.73918" height="5.73918"/><rect class="cls-3" x="401.4903" y="268.5252" width="5.73918" height="5.73695"/><rect class="cls-5" x="401.4903" y="262.78602" width="5.73918" height="5.73918"/><rect class="cls-7" x="401.4903" y="257.04684" width="5.73918" height="5.73918"/><rect class="cls-9" x="401.4903" y="251.30988" width="5.73918" height="5.73695"/><rect class="cls-9" x="401.4903" y="245.5707" width="5.73918" height="5.73918"/><rect class="cls-12" x="401.4903" y="239.83152" width="5.73918" height="5.73918"/><rect class="cls-13" x="401.4903" y="234.09456" width="5.73918" height="5.73696"/><rect x="401.4903" y="228.35538" width="5.73918" height="5.73918"/><rect class="cls-8" x="401.4903" y="222.6162" width="5.73918" height="5.73918"/><rect class="cls-4" x="401.4903" y="216.87925" width="5.73918" height="5.73696"/><rect class="cls-4" x="401.4903" y="211.14007" width="5.73918" height="5.73918"/><rect class="cls-4" x="401.4903" y="205.40311" width="5.73918" height="5.73696"/><rect class="cls-4" x="401.4903" y="199.66393" width="5.73918" height="5.73918"/><rect class="cls-4" x="401.4903" y="193.92475" width="5.73918" height="5.73918"/><rect class="cls-4" x="401.4903" y="188.18779" width="5.73918" height="5.73696"/><rect class="cls-3" x="395.75334" y="291.47748" width="5.73696" height="5.73918"/><rect class="cls-9" x="395.75334" y="285.74052" width="5.73696" height="5.73695"/><rect class="cls-6" x="395.75334" y="280.00134" width="5.73696" height="5.73918"/><rect class="cls-14" x="395.75334" y="274.26216" width="5.73696" height="5.73918"/><rect class="cls-6" x="395.75334" y="268.5252" width="5.73696" height="5.73695"/><rect class="cls-5" x="395.75334" y="262.78602" width="5.73696" height="5.73918"/><rect class="cls-7" x="395.75334" y="257.04684" width="5.73696" height="5.73918"/><rect class="cls-9" x="395.75334" y="251.30988" width="5.73696" height="5.73695"/><rect class="cls-9" x="395.75334" y="245.5707" width="5.73696" height="5.73918"/><rect class="cls-15" x="395.75334" y="239.83152" width="5.73696" height="5.73918"/><rect class="cls-16" x="395.75334" y="234.09456" width="5.73696" height="5.73696"/><rect x="395.75334" y="228.35538" width="5.73696" height="5.73918"/><rect class="cls-4" x="395.75334" y="222.6162" width="5.73696" height="5.73918"/><rect class="cls-4" x="395.75334" y="216.87925" width="5.73696" height="5.73696"/><rect class="cls-4" x="395.75334" y="211.14007" width="5.73696" height="5.73918"/><rect class="cls-4" x="395.75334" y="205.40311" width="5.73696" height="5.73696"/><rect class="cls-4" x="395.75334" y="199.66393" width="5.73696" height="5.73918"/><rect class="cls-4" x="395.75334" y="193.92475" width="5.73696" height="5.73918"/><rect class="cls-4" x="395.75334" y="188.18779" width="5.73696" height="5.73696"/><rect class="cls-6" x="390.01416" y="291.47748" width="5.73918" height="5.73918"/><rect class="cls-9" x="390.01416" y="280.00134" width="5.73918" height="5.73918"/><rect class="cls-17" x="390.01416" y="274.26216" width="5.73918" height="5.73918"/><rect class="cls-3" x="390.01416" y="268.5252" width="5.73918" height="5.73695"/><rect class="cls-5" x="390.01416" y="262.78602" width="5.73918" height="5.73918"/><rect class="cls-18" x="390.01416" y="251.30988" width="5.73918" height="5.73695"/><rect class="cls-9" x="390.01416" y="245.5707" width="5.73918" height="5.73918"/><rect class="cls-9" x="390.01416" y="239.83152" width="5.73918" height="5.73918"/><rect class="cls-9" x="390.01416" y="234.09456" width="5.73918" height="5.73696"/><rect class="cls-7" x="390.01416" y="228.35538" width="5.73918" height="5.73918"/><rect class="cls-4" x="390.01416" y="222.6162" width="5.73918" height="5.73918"/><rect class="cls-8" x="390.01416" y="216.87925" width="5.73918" height="5.73696"/><rect class="cls-4" x="390.01416" y="211.14007" width="5.73918" height="5.73918"/><rect class="cls-4" x="390.01416" y="205.40311" width="5.73918" height="5.73696"/><rect class="cls-4" x="390.01416" y="199.66393" width="5.73918" height="5.73918"/><rect class="cls-8" x="390.01416" y="193.92475" width="5.73918" height="5.73918"/><rect class="cls-3" x="384.27498" y="268.5252" width="5.73918" height="5.73695"/><rect class="cls-18" x="384.27498" y="251.30988" width="5.73918" height="5.73695"/><rect class="cls-9" x="384.27498" y="245.5707" width="5.73918" height="5.73918"/><rect class="cls-9" x="384.27498" y="239.83152" width="5.73918" height="5.73918"/><rect class="cls-9" x="384.27498" y="234.09456" width="5.73918" height="5.73696"/><rect class="cls-7" x="384.27498" y="228.35538" width="5.73918" height="5.73918"/><rect class="cls-8" x="384.27498" y="222.6162" width="5.73918" height="5.73918"/><rect class="cls-4" x="384.27498" y="216.87925" width="5.73918" height="5.73696"/><rect class="cls-4" x="384.27498" y="211.14007" width="5.73918" height="5.73918"/><rect class="cls-8" x="384.27498" y="205.40311" width="5.73918" height="5.73696"/><rect class="cls-8" x="384.27498" y="199.66393" width="5.73918" height="5.73918"/><rect class="cls-9" x="378.53803" y="245.5707" width="5.73696" height="5.73918"/><rect class="cls-9" x="378.53803" y="239.83152" width="5.73696" height="5.73918"/><rect class="cls-9" x="378.53803" y="234.09456" width="5.73696" height="5.73696"/><rect class="cls-9" x="378.53803" y="228.35538" width="5.73696" height="5.73918"/><rect class="cls-18" x="378.53803" y="222.6162" width="5.73696" height="5.73918"/><rect class="cls-4" x="378.53803" y="216.87925" width="5.73696" height="5.73696"/><rect class="cls-8" x="378.53803" y="211.14007" width="5.73696" height="5.73918"/><rect class="cls-8" x="378.53803" y="205.40311" width="5.73696" height="5.73696"/></g></g><g id="Layer_2-3" data-name="Layer 2"><g id="grid-2" data-name="grid"><rect class="cls-19" x="115.21735" y="250.49727" width="7.04477" height="7.04477"/><rect class="cls-19" x="115.21735" y="243.45523" width="7.04477" height="7.04204"/><rect class="cls-19" x="115.21735" y="236.41046" width="7.04477" height="7.04477"/><rect class="cls-19" x="115.21735" y="229.3657" width="7.04477" height="7.04477"/><rect class="cls-19" x="115.21735" y="222.32366" width="7.04477" height="7.04204"/><rect class="cls-19" x="115.21735" y="215.27889" width="7.04477" height="7.04477"/><rect class="cls-19" x="115.21735" y="208.23685" width="7.04477" height="7.04204"/><rect class="cls-20" x="115.21735" y="201.19208" width="7.04477" height="7.04477"/><rect class="cls-19" x="108.17258" y="257.54204" width="7.04477" height="7.04477"/><rect class="cls-19" x="108.17258" y="250.49727" width="7.04477" height="7.04477"/><rect class="cls-20" x="108.17258" y="243.45523" width="7.04477" height="7.04204"/><rect class="cls-20" x="108.17258" y="236.41046" width="7.04477" height="7.04477"/><rect class="cls-19" x="108.17258" y="229.3657" width="7.04477" height="7.04477"/><rect class="cls-19" x="108.17258" y="222.32366" width="7.04477" height="7.04204"/><rect class="cls-20" x="108.17258" y="215.27889" width="7.04477" height="7.04477"/><rect class="cls-20" x="108.17258" y="208.23685" width="7.04477" height="7.04204"/><rect class="cls-20" x="108.17258" y="201.19208" width="7.04477" height="7.04477"/><rect class="cls-20" x="108.17258" y="194.14731" width="7.04477" height="7.04477"/><rect class="cls-21" x="101.13054" y="285.71839" width="7.04204" height="7.04204"/><rect class="cls-22" x="101.13054" y="278.67362" width="7.04204" height="7.04477"/><rect class="cls-23" x="101.13054" y="271.62885" width="7.04204" height="7.04477"/><rect class="cls-22" x="101.13054" y="264.58681" width="7.04204" height="7.04204"/><rect class="cls-20" x="101.13054" y="257.54204" width="7.04204" height="7.04477"/><rect class="cls-20" x="101.13054" y="250.49727" width="7.04204" height="7.04477"/><rect class="cls-20" x="101.13054" y="243.45523" width="7.04204" height="7.04204"/><rect class="cls-19" x="101.13054" y="236.41046" width="7.04204" height="7.04477"/><rect class="cls-24" x="101.13054" y="229.3657" width="7.04204" height="7.04477"/><rect class="cls-24" x="101.13054" y="222.32366" width="7.04204" height="7.04204"/><rect class="cls-20" x="101.13054" y="215.27889" width="7.04204" height="7.04477"/><rect class="cls-25" x="101.13054" y="208.23685" width="7.04204" height="7.04204"/><rect class="cls-26" x="101.13054" y="201.19208" width="7.04204" height="7.04477"/><rect class="cls-20" x="101.13054" y="194.14731" width="7.04204" height="7.04477"/><rect class="cls-20" x="101.13054" y="187.10527" width="7.04204" height="7.04204"/><rect class="cls-27" x="94.08577" y="299.80519" width="7.04477" height="7.04477"/><rect class="cls-28" x="94.08577" y="292.76042" width="7.04477" height="7.04477"/><rect class="cls-22" x="94.08577" y="285.71839" width="7.04477" height="7.04204"/><rect class="cls-29" x="94.08577" y="278.67362" width="7.04477" height="7.04477"/><rect class="cls-30" x="94.08577" y="271.62885" width="7.04477" height="7.04477"/><rect class="cls-21" x="94.08577" y="264.58681" width="7.04477" height="7.04204"/><rect class="cls-20" x="94.08577" y="257.54204" width="7.04477" height="7.04477"/><rect class="cls-19" x="94.08577" y="250.49727" width="7.04477" height="7.04477"/><rect class="cls-19" x="94.08577" y="243.45523" width="7.04477" height="7.04204"/><rect class="cls-19" x="94.08577" y="236.41046" width="7.04477" height="7.04477"/><rect class="cls-20" x="94.08577" y="229.3657" width="7.04477" height="7.04477"/><rect class="cls-19" x="94.08577" y="222.32366" width="7.04477" height="7.04204"/><rect class="cls-20" x="94.08577" y="215.27889" width="7.04477" height="7.04477"/><rect class="cls-25" x="94.08577" y="208.23685" width="7.04477" height="7.04204"/><rect class="cls-25" x="94.08577" y="201.19208" width="7.04477" height="7.04477"/><rect class="cls-20" x="94.08577" y="194.14731" width="7.04477" height="7.04477"/><rect class="cls-20" x="94.08577" y="187.10527" width="7.04477" height="7.04204"/><rect class="cls-20" x="94.08577" y="180.0605" width="7.04477" height="7.04477"/><rect class="cls-31" x="87.04101" y="299.80519" width="7.04477" height="7.04477"/><rect class="cls-24" x="87.04101" y="292.76042" width="7.04477" height="7.04477"/><rect class="cls-24" x="87.04101" y="285.71839" width="7.04477" height="7.04204"/><rect class="cls-32" x="87.04101" y="278.67362" width="7.04477" height="7.04477"/><rect class="cls-29" x="87.04101" y="271.62885" width="7.04477" height="7.04477"/><rect class="cls-21" x="87.04101" y="264.58681" width="7.04477" height="7.04204"/><rect class="cls-21" x="87.04101" y="257.54204" width="7.04477" height="7.04477"/><rect class="cls-22" x="87.04101" y="250.49727" width="7.04477" height="7.04477"/><rect class="cls-19" x="87.04101" y="243.45523" width="7.04477" height="7.04204"/><rect class="cls-19" x="87.04101" y="236.41046" width="7.04477" height="7.04477"/><rect class="cls-19" x="87.04101" y="229.3657" width="7.04477" height="7.04477"/><rect class="cls-28" x="87.04101" y="222.32366" width="7.04477" height="7.04204"/><rect class="cls-19" x="87.04101" y="215.27889" width="7.04477" height="7.04477"/><rect class="cls-19" x="87.04101" y="208.23685" width="7.04477" height="7.04204"/><rect class="cls-20" x="87.04101" y="201.19208" width="7.04477" height="7.04477"/><rect class="cls-20" x="87.04101" y="194.14731" width="7.04477" height="7.04477"/><rect class="cls-20" x="87.04101" y="187.10527" width="7.04477" height="7.04204"/><rect class="cls-33" x="87.04101" y="180.0605" width="7.04477" height="7.04477"/><rect class="cls-31" x="79.99897" y="299.80519" width="7.04204" height="7.04477"/><rect class="cls-24" x="79.99897" y="292.76042" width="7.04204" height="7.04477"/><rect class="cls-34" x="79.99897" y="285.71839" width="7.04204" height="7.04204"/><rect class="cls-24" x="79.99897" y="278.67362" width="7.04204" height="7.04477"/><rect class="cls-23" x="79.99897" y="271.62885" width="7.04204" height="7.04477"/><rect class="cls-23" x="79.99897" y="264.58681" width="7.04204" height="7.04204"/><rect class="cls-21" x="79.99897" y="257.54204" width="7.04204" height="7.04477"/><rect class="cls-24" x="79.99897" y="250.49727" width="7.04204" height="7.04477"/><rect class="cls-24" x="79.99897" y="243.45523" width="7.04204" height="7.04204"/><rect class="cls-24" x="79.99897" y="236.41046" width="7.04204" height="7.04477"/><rect class="cls-24" x="79.99897" y="229.3657" width="7.04204" height="7.04477"/><rect class="cls-24" x="79.99897" y="222.32366" width="7.04204" height="7.04204"/><rect class="cls-33" x="79.99897" y="215.27889" width="7.04204" height="7.04477"/><rect class="cls-20" x="79.99897" y="208.23685" width="7.04204" height="7.04204"/><rect class="cls-33" x="79.99897" y="201.19208" width="7.04204" height="7.04477"/><rect class="cls-20" x="79.99897" y="194.14731" width="7.04204" height="7.04477"/><rect class="cls-20" x="79.99897" y="187.10527" width="7.04204" height="7.04204"/><rect class="cls-20" x="79.99897" y="180.0605" width="7.04204" height="7.04477"/><rect class="cls-27" x="72.9542" y="299.80519" width="7.04477" height="7.04477"/><rect class="cls-28" x="72.9542" y="292.76042" width="7.04477" height="7.04477"/><rect class="cls-35" x="72.9542" y="285.71839" width="7.04477" height="7.04204"/><rect class="cls-22" x="72.9542" y="278.67362" width="7.04477" height="7.04477"/><rect class="cls-36" x="72.9542" y="271.62885" width="7.04477" height="7.04477"/><rect class="cls-23" x="72.9542" y="264.58681" width="7.04477" height="7.04204"/><rect class="cls-29" x="72.9542" y="257.54204" width="7.04477" height="7.04477"/><rect class="cls-24" x="72.9542" y="250.49727" width="7.04477" height="7.04477"/><rect class="cls-24" x="72.9542" y="243.45523" width="7.04477" height="7.04204"/><rect class="cls-34" x="72.9542" y="236.41046" width="7.04477" height="7.04477"/><rect class="cls-34" x="72.9542" y="229.3657" width="7.04477" height="7.04477"/><rect class="cls-34" x="72.9542" y="222.32366" width="7.04477" height="7.04204"/><rect class="cls-33" x="72.9542" y="215.27889" width="7.04477" height="7.04477"/><rect class="cls-33" x="72.9542" y="208.23685" width="7.04477" height="7.04204"/><rect class="cls-20" x="72.9542" y="201.19208" width="7.04477" height="7.04477"/><rect class="cls-20" x="72.9542" y="194.14731" width="7.04477" height="7.04477"/><rect class="cls-20" x="72.9542" y="187.10527" width="7.04477" height="7.04204"/><rect class="cls-33" x="72.9542" y="180.0605" width="7.04477" height="7.04477"/><rect class="cls-31" x="65.91216" y="299.80519" width="7.04204" height="7.04477"/><rect class="cls-24" x="65.91216" y="292.76042" width="7.04204" height="7.04477"/><rect class="cls-37" x="65.91216" y="285.71839" width="7.04204" height="7.04204"/><rect class="cls-22" x="65.91216" y="278.67362" width="7.04204" height="7.04477"/><rect class="cls-22" x="65.91216" y="271.62885" width="7.04204" height="7.04477"/><rect class="cls-38" x="65.91216" y="264.58681" width="7.04204" height="7.04204"/><rect class="cls-24" x="65.91216" y="257.54204" width="7.04204" height="7.04477"/><rect class="cls-24" x="65.91216" y="250.49727" width="7.04204" height="7.04477"/><rect class="cls-34" x="65.91216" y="243.45523" width="7.04204" height="7.04204"/><rect class="cls-39" x="65.91216" y="236.41046" width="7.04204" height="7.04477"/><rect class="cls-40" x="65.91216" y="229.3657" width="7.04204" height="7.04477"/><rect class="cls-28" x="65.91216" y="222.32366" width="7.04204" height="7.04204"/><rect class="cls-33" x="65.91216" y="215.27889" width="7.04204" height="7.04477"/><rect class="cls-20" x="65.91216" y="208.23685" width="7.04204" height="7.04204"/><rect class="cls-33" x="65.91216" y="201.19208" width="7.04204" height="7.04477"/><rect class="cls-20" x="65.91216" y="194.14731" width="7.04204" height="7.04477"/><rect class="cls-20" x="65.91216" y="187.10527" width="7.04204" height="7.04204"/><rect class="cls-20" x="65.91216" y="180.0605" width="7.04204" height="7.04477"/><rect class="cls-31" x="58.86739" y="299.80519" width="7.04477" height="7.04477"/><rect class="cls-34" x="58.86739" y="292.76042" width="7.04477" height="7.04477"/><rect class="cls-37" x="58.86739" y="285.71839" width="7.04477" height="7.04204"/><rect class="cls-22" x="58.86739" y="278.67362" width="7.04477" height="7.04477"/><rect class="cls-36" x="58.86739" y="271.62885" width="7.04477" height="7.04477"/><rect class="cls-23" x="58.86739" y="264.58681" width="7.04477" height="7.04204"/><rect class="cls-29" x="58.86739" y="257.54204" width="7.04477" height="7.04477"/><rect class="cls-34" x="58.86739" y="250.49727" width="7.04477" height="7.04477"/><rect class="cls-34" x="58.86739" y="243.45523" width="7.04477" height="7.04204"/><rect class="cls-41" x="58.86739" y="236.41046" width="7.04477" height="7.04477"/><rect class="cls-42" x="58.86739" y="229.3657" width="7.04477" height="7.04477"/><rect class="cls-28" x="58.86739" y="222.32366" width="7.04477" height="7.04204"/><rect class="cls-24" x="58.86739" y="215.27889" width="7.04477" height="7.04477"/><rect class="cls-20" x="58.86739" y="208.23685" width="7.04477" height="7.04204"/><rect class="cls-20" x="58.86739" y="201.19208" width="7.04477" height="7.04477"/><rect class="cls-20" x="58.86739" y="194.14731" width="7.04477" height="7.04477"/><rect class="cls-20" x="58.86739" y="187.10527" width="7.04477" height="7.04204"/><rect class="cls-33" x="58.86739" y="180.0605" width="7.04477" height="7.04477"/><rect class="cls-21" x="51.82262" y="285.71839" width="7.04477" height="7.04204"/><rect class="cls-23" x="51.82262" y="278.67362" width="7.04477" height="7.04477"/><rect class="cls-23" x="51.82262" y="271.62885" width="7.04477" height="7.04477"/><rect class="cls-23" x="51.82262" y="264.58681" width="7.04477" height="7.04204"/><rect class="cls-22" x="51.82262" y="257.54204" width="7.04477" height="7.04477"/><rect class="cls-34" x="51.82262" y="250.49727" width="7.04477" height="7.04477"/><rect class="cls-34" x="51.82262" y="243.45523" width="7.04477" height="7.04204"/><rect class="cls-34" x="51.82262" y="236.41046" width="7.04477" height="7.04477"/><rect class="cls-34" x="51.82262" y="229.3657" width="7.04477" height="7.04477"/><rect class="cls-34" x="51.82262" y="222.32366" width="7.04477" height="7.04204"/><rect class="cls-33" x="51.82262" y="215.27889" width="7.04477" height="7.04477"/><rect class="cls-20" x="51.82262" y="208.23685" width="7.04477" height="7.04204"/><rect class="cls-33" x="51.82262" y="201.19208" width="7.04477" height="7.04477"/><rect class="cls-20" x="51.82262" y="194.14731" width="7.04477" height="7.04477"/><rect class="cls-20" x="51.82262" y="187.10527" width="7.04477" height="7.04204"/><rect class="cls-34" x="44.78058" y="278.67362" width="7.04204" height="7.04477"/><rect class="cls-32" x="44.78058" y="271.62885" width="7.04204" height="7.04477"/><rect class="cls-21" x="44.78058" y="264.58681" width="7.04204" height="7.04204"/><rect class="cls-34" x="44.78058" y="243.45523" width="7.04204" height="7.04204"/><rect class="cls-34" x="44.78058" y="236.41046" width="7.04204" height="7.04477"/><rect class="cls-34" x="44.78058" y="229.3657" width="7.04204" height="7.04477"/><rect class="cls-34" x="44.78058" y="222.32366" width="7.04204" height="7.04204"/><rect class="cls-33" x="44.78058" y="215.27889" width="7.04204" height="7.04477"/><rect class="cls-33" x="44.78058" y="208.23685" width="7.04204" height="7.04204"/><rect class="cls-20" x="44.78058" y="201.19208" width="7.04204" height="7.04477"/><rect class="cls-33" x="44.78058" y="194.14731" width="7.04204" height="7.04477"/><rect class="cls-33" x="44.78058" y="187.10527" width="7.04204" height="7.04204"/><rect class="cls-33" x="37.73581" y="222.32366" width="7.04477" height="7.04204"/><rect class="cls-33" x="37.73581" y="215.27889" width="7.04477" height="7.04477"/><rect class="cls-33" x="37.73581" y="208.23685" width="7.04477" height="7.04204"/><rect class="cls-33" x="37.73581" y="201.19208" width="7.04477" height="7.04477"/><rect class="cls-33" x="37.73581" y="194.14731" width="7.04477" height="7.04477"/></g></g><g id="Layer_2-4" data-name="Layer 2"><g id="grid-3" data-name="grid"><rect class="cls-43" x="224.24462" y="275.50509" width="5.9652" height="5.9652"/><rect class="cls-44" x="265.99409" y="257.6118" width="5.9652" height="5.9652"/><rect class="cls-45" x="260.0312" y="299.36127" width="5.96289" height="5.9652"/><rect class="cls-46" x="242.13791" y="275.50509" width="5.96289" height="5.9652"/><rect class="cls-46" x="242.13791" y="281.47029" width="5.96289" height="5.96289"/><rect class="cls-46" x="248.1008" y="281.47029" width="5.9652" height="5.96289"/><rect class="cls-47" x="248.1008" y="275.50509" width="5.9652" height="5.9652"/><rect class="cls-43" x="224.24462" y="257.6118" width="5.9652" height="5.9652"/><rect class="cls-43" x="224.24462" y="269.53989" width="5.9652" height="5.9652"/><rect class="cls-43" x="224.24462" y="263.577" width="5.9652" height="5.96289"/><rect class="cls-48" x="218.27942" y="269.53989" width="5.9652" height="5.9652"/><rect class="cls-48" x="236.17271" y="275.50509" width="5.9652" height="5.9652"/><rect class="cls-48" x="230.20982" y="269.53989" width="5.96289" height="5.9652"/><rect class="cls-48" x="230.20982" y="275.50509" width="5.96289" height="5.9652"/><rect class="cls-48" x="236.17271" y="269.53989" width="5.9652" height="5.9652"/><rect class="cls-48" x="248.1008" y="269.53989" width="5.9652" height="5.9652"/><rect class="cls-43" x="254.066" y="275.50509" width="5.9652" height="5.9652"/><rect class="cls-48" x="254.066" y="287.43318" width="5.9652" height="5.9652"/><rect class="cls-48" x="260.0312" y="281.47029" width="5.96289" height="5.96289"/><rect class="cls-48" x="260.0312" y="275.50509" width="5.96289" height="5.9652"/><rect class="cls-48" x="260.0312" y="287.43318" width="5.96289" height="5.9652"/><rect class="cls-48" x="254.066" y="281.47029" width="5.9652" height="5.96289"/><rect class="cls-43" x="265.99409" y="269.53989" width="5.9652" height="5.9652"/><rect class="cls-43" x="265.99409" y="281.47029" width="5.9652" height="5.96289"/><rect class="cls-43" x="265.99409" y="275.50509" width="5.9652" height="5.9652"/><rect class="cls-44" x="260.0312" y="269.53989" width="5.96289" height="5.9652"/><rect class="cls-48" x="248.1008" y="257.6118" width="5.9652" height="5.9652"/><rect class="cls-48" x="248.1008" y="263.577" width="5.9652" height="5.96289"/><rect class="cls-48" x="254.066" y="263.577" width="5.9652" height="5.96289"/><rect class="cls-48" x="254.066" y="257.6118" width="5.9652" height="5.9652"/><rect class="cls-43" x="254.066" y="251.64661" width="5.9652" height="5.9652"/><rect class="cls-44" x="248.1008" y="251.64661" width="5.9652" height="5.9652"/><rect class="cls-45" x="242.13791" y="293.39838" width="5.96289" height="5.96289"/><rect class="cls-45" x="236.17271" y="293.39838" width="5.9652" height="5.96289"/><rect class="cls-49" x="248.1008" y="293.39838" width="5.9652" height="5.96289"/><rect class="cls-49" x="230.20982" y="287.43318" width="5.96289" height="5.9652"/><rect class="cls-50" x="230.20982" y="263.577" width="5.96289" height="5.96289"/><rect class="cls-51" x="236.17271" y="263.577" width="5.9652" height="5.96289"/><rect class="cls-50" x="230.20982" y="257.6118" width="5.96289" height="5.9652"/><rect class="cls-52" x="236.17271" y="251.64661" width="5.9652" height="5.9652"/><rect class="cls-43" x="283.88738" y="227.79042" width="5.9652" height="5.96289"/><rect class="cls-48" x="283.88738" y="221.82522" width="5.9652" height="5.9652"/><rect class="cls-48" x="283.88738" y="215.86002" width="5.9652" height="5.9652"/><rect class="cls-48" x="283.88738" y="209.89713" width="5.9652" height="5.96289"/><rect class="cls-48" x="283.88738" y="203.93194" width="5.9652" height="5.9652"/><rect class="cls-44" x="277.92449" y="239.71851" width="5.96289" height="5.9652"/><rect class="cls-48" x="277.92449" y="233.75331" width="5.96289" height="5.9652"/><rect class="cls-48" x="277.92449" y="227.79042" width="5.96289" height="5.96289"/><rect class="cls-48" x="277.92449" y="221.82522" width="5.96289" height="5.9652"/><rect class="cls-48" x="277.92449" y="215.86002" width="5.96289" height="5.9652"/><rect class="cls-48" x="277.92449" y="209.89713" width="5.96289" height="5.96289"/><rect class="cls-48" x="277.92449" y="203.93194" width="5.96289" height="5.9652"/><rect class="cls-48" x="277.92449" y="197.96905" width="5.96289" height="5.96289"/><rect class="cls-44" x="271.95929" y="245.68371" width="5.9652" height="5.96289"/><rect class="cls-44" x="271.95929" y="239.71851" width="5.9652" height="5.9652"/><rect class="cls-44" x="271.95929" y="233.75331" width="5.9652" height="5.9652"/><rect class="cls-48" x="271.95929" y="227.79042" width="5.9652" height="5.96289"/><rect class="cls-48" x="271.95929" y="221.82522" width="5.9652" height="5.9652"/><rect class="cls-48" x="271.95929" y="215.86002" width="5.9652" height="5.9652"/><rect class="cls-48" x="271.95929" y="209.89713" width="5.9652" height="5.96289"/><rect class="cls-48" x="271.95929" y="203.93194" width="5.9652" height="5.9652"/><rect class="cls-48" x="271.95929" y="197.96905" width="5.9652" height="5.96289"/><rect class="cls-48" x="271.95929" y="192.00385" width="5.9652" height="5.9652"/><rect class="cls-43" x="265.99409" y="287.43318" width="5.9652" height="5.9652"/><rect class="cls-43" x="265.99409" y="263.577" width="5.9652" height="5.96289"/><rect class="cls-44" x="265.99409" y="245.68371" width="5.9652" height="5.96289"/><rect class="cls-44" x="265.99409" y="239.71851" width="5.9652" height="5.9652"/><rect class="cls-44" x="265.99409" y="233.75331" width="5.9652" height="5.9652"/><rect class="cls-44" x="265.99409" y="227.79042" width="5.9652" height="5.96289"/><rect class="cls-44" x="265.99409" y="221.82522" width="5.9652" height="5.9652"/><rect class="cls-44" x="265.99409" y="215.86002" width="5.9652" height="5.9652"/><rect class="cls-43" x="265.99409" y="209.89713" width="5.9652" height="5.96289"/><rect class="cls-48" x="265.99409" y="203.93194" width="5.9652" height="5.9652"/><rect x="265.99409" y="197.96905" width="5.9652" height="5.96289"/><rect class="cls-48" x="265.99409" y="192.00385" width="5.9652" height="5.9652"/><rect class="cls-48" x="265.99409" y="186.03865" width="5.9652" height="5.9652"/><rect class="cls-45" x="260.0312" y="293.39838" width="5.96289" height="5.96289"/><rect class="cls-44" x="260.0312" y="263.577" width="5.96289" height="5.96289"/><rect class="cls-43" x="260.0312" y="257.6118" width="5.96289" height="5.9652"/><rect class="cls-44" x="260.0312" y="251.64661" width="5.96289" height="5.9652"/><rect class="cls-53" x="260.0312" y="245.68371" width="5.96289" height="5.96289"/><rect class="cls-53" x="260.0312" y="239.71851" width="5.96289" height="5.9652"/><rect class="cls-53" x="260.0312" y="233.75331" width="5.96289" height="5.9652"/><rect class="cls-53" x="260.0312" y="227.79042" width="5.96289" height="5.96289"/><rect class="cls-47" x="260.0312" y="221.82522" width="5.96289" height="5.9652"/><rect class="cls-47" x="260.0312" y="215.86002" width="5.96289" height="5.9652"/><rect class="cls-43" x="260.0312" y="209.89713" width="5.96289" height="5.96289"/><rect class="cls-54" x="260.0312" y="203.93194" width="5.96289" height="5.9652"/><rect class="cls-48" x="260.0312" y="197.96905" width="5.96289" height="5.96289"/><rect class="cls-48" x="260.0312" y="192.00385" width="5.96289" height="5.9652"/><rect class="cls-48" x="260.0312" y="186.03865" width="5.96289" height="5.9652"/><rect class="cls-48" x="260.0312" y="180.07576" width="5.96289" height="5.96289"/><rect class="cls-45" x="254.066" y="299.36127" width="5.9652" height="5.9652"/><rect class="cls-55" x="254.066" y="293.39838" width="5.9652" height="5.96289"/><rect class="cls-43" x="254.066" y="269.53989" width="5.9652" height="5.9652"/><rect class="cls-49" x="254.066" y="245.68371" width="5.9652" height="5.96289"/><rect class="cls-49" x="254.066" y="239.71851" width="5.9652" height="5.9652"/><rect class="cls-53" x="254.066" y="233.75331" width="5.9652" height="5.9652"/><rect class="cls-46" x="254.066" y="227.79042" width="5.9652" height="5.96289"/><rect class="cls-46" x="254.066" y="221.82522" width="5.9652" height="5.9652"/><rect class="cls-43" x="254.066" y="215.86002" width="5.9652" height="5.9652"/><rect class="cls-54" x="254.066" y="209.89713" width="5.9652" height="5.96289"/><rect class="cls-54" x="254.066" y="203.93194" width="5.9652" height="5.9652"/><rect class="cls-54" x="254.066" y="197.96905" width="5.9652" height="5.96289"/><rect x="254.066" y="192.00385" width="5.9652" height="5.9652"/><rect x="254.066" y="186.03865" width="5.9652" height="5.9652"/><rect class="cls-48" x="254.066" y="180.07576" width="5.9652" height="5.96289"/><rect class="cls-55" x="248.1008" y="299.36127" width="5.9652" height="5.9652"/><rect class="cls-45" x="248.1008" y="287.43318" width="5.9652" height="5.9652"/><rect class="cls-47" x="248.1008" y="245.68371" width="5.9652" height="5.96289"/><rect class="cls-47" x="248.1008" y="239.71851" width="5.9652" height="5.9652"/><rect class="cls-49" x="248.1008" y="233.75331" width="5.9652" height="5.9652"/><rect class="cls-49" x="248.1008" y="227.79042" width="5.9652" height="5.96289"/><rect class="cls-53" x="248.1008" y="221.82522" width="5.9652" height="5.9652"/><rect class="cls-53" x="248.1008" y="215.86002" width="5.9652" height="5.9652"/><rect class="cls-56" x="248.1008" y="209.89713" width="5.9652" height="5.96289"/><rect class="cls-54" x="248.1008" y="203.93194" width="5.9652" height="5.9652"/><rect class="cls-48" x="248.1008" y="197.96905" width="5.9652" height="5.96289"/><rect class="cls-48" x="248.1008" y="192.00385" width="5.9652" height="5.9652"/><rect class="cls-48" x="248.1008" y="186.03865" width="5.9652" height="5.9652"/><rect class="cls-48" x="248.1008" y="180.07576" width="5.9652" height="5.96289"/><rect class="cls-45" x="242.13791" y="287.43318" width="5.96289" height="5.9652"/><rect class="cls-44" x="242.13791" y="269.53989" width="5.96289" height="5.9652"/><rect class="cls-44" x="242.13791" y="263.577" width="5.96289" height="5.96289"/><rect class="cls-44" x="242.13791" y="257.6118" width="5.96289" height="5.9652"/><rect class="cls-43" x="242.13791" y="251.64661" width="5.96289" height="5.9652"/><rect class="cls-47" x="242.13791" y="245.68371" width="5.96289" height="5.96289"/><rect class="cls-47" x="242.13791" y="239.71851" width="5.96289" height="5.9652"/><rect class="cls-47" x="242.13791" y="233.75331" width="5.96289" height="5.9652"/><rect class="cls-47" x="242.13791" y="227.79042" width="5.96289" height="5.96289"/><rect class="cls-47" x="242.13791" y="221.82522" width="5.96289" height="5.9652"/><rect class="cls-53" x="242.13791" y="215.86002" width="5.96289" height="5.9652"/><rect class="cls-43" x="242.13791" y="209.89713" width="5.96289" height="5.96289"/><rect class="cls-48" x="242.13791" y="203.93194" width="5.96289" height="5.9652"/><rect class="cls-48" x="242.13791" y="197.96905" width="5.96289" height="5.96289"/><rect class="cls-48" x="242.13791" y="192.00385" width="5.96289" height="5.9652"/><rect class="cls-48" x="242.13791" y="186.03865" width="5.96289" height="5.9652"/><rect class="cls-48" x="242.13791" y="180.07576" width="5.96289" height="5.96289"/><rect class="cls-55" x="236.17271" y="287.43318" width="5.9652" height="5.9652"/><rect class="cls-45" x="236.17271" y="281.47029" width="5.9652" height="5.96289"/><rect class="cls-52" x="236.17271" y="257.6118" width="5.9652" height="5.9652"/><rect class="cls-46" x="236.17271" y="245.68371" width="5.9652" height="5.96289"/><rect class="cls-46" x="236.17271" y="239.71851" width="5.9652" height="5.9652"/><rect class="cls-47" x="236.17271" y="233.75331" width="5.9652" height="5.9652"/><rect class="cls-47" x="236.17271" y="227.79042" width="5.9652" height="5.96289"/><rect class="cls-47" x="236.17271" y="221.82522" width="5.9652" height="5.9652"/><rect class="cls-53" x="236.17271" y="215.86002" width="5.9652" height="5.9652"/><rect class="cls-44" x="236.17271" y="209.89713" width="5.9652" height="5.96289"/><rect class="cls-43" x="236.17271" y="203.93194" width="5.9652" height="5.9652"/><rect class="cls-43" x="236.17271" y="197.96905" width="5.9652" height="5.96289"/><rect class="cls-48" x="236.17271" y="192.00385" width="5.9652" height="5.9652"/><rect class="cls-48" x="236.17271" y="186.03865" width="5.9652" height="5.9652"/><rect class="cls-48" x="236.17271" y="180.07576" width="5.9652" height="5.96289"/><rect class="cls-55" x="230.20982" y="293.39838" width="5.96289" height="5.96289"/><rect class="cls-45" x="230.20982" y="281.47029" width="5.96289" height="5.96289"/><rect class="cls-43" x="230.20982" y="251.64661" width="5.96289" height="5.9652"/><rect class="cls-46" x="230.20982" y="245.68371" width="5.96289" height="5.96289"/><rect class="cls-46" x="230.20982" y="239.71851" width="5.96289" height="5.9652"/><rect class="cls-12" x="230.20982" y="233.75331" width="5.96289" height="5.9652"/><rect class="cls-54" x="230.20982" y="227.79042" width="5.96289" height="5.96289"/><rect x="230.20982" y="221.82522" width="5.96289" height="5.9652"/><rect class="cls-43" x="230.20982" y="215.86002" width="5.96289" height="5.9652"/><rect class="cls-48" x="230.20982" y="209.89713" width="5.96289" height="5.96289"/><rect class="cls-44" x="230.20982" y="203.93194" width="5.96289" height="5.9652"/><rect class="cls-43" x="230.20982" y="197.96905" width="5.96289" height="5.96289"/><rect class="cls-43" x="230.20982" y="192.00385" width="5.96289" height="5.9652"/><rect class="cls-48" x="230.20982" y="186.03865" width="5.96289" height="5.9652"/><rect class="cls-48" x="230.20982" y="180.07576" width="5.96289" height="5.96289"/><rect class="cls-43" x="224.24462" y="251.64661" width="5.9652" height="5.9652"/><rect class="cls-46" x="224.24462" y="245.68371" width="5.9652" height="5.96289"/><rect class="cls-46" x="224.24462" y="239.71851" width="5.9652" height="5.9652"/><rect class="cls-57" x="224.24462" y="233.75331" width="5.9652" height="5.9652"/><rect class="cls-43" x="224.24462" y="227.79042" width="5.9652" height="5.96289"/><rect x="224.24462" y="221.82522" width="5.9652" height="5.9652"/><rect class="cls-43" x="224.24462" y="215.86002" width="5.9652" height="5.9652"/><rect class="cls-48" x="224.24462" y="209.89713" width="5.9652" height="5.96289"/><rect class="cls-48" x="224.24462" y="203.93194" width="5.9652" height="5.9652"/><rect class="cls-44" x="224.24462" y="197.96905" width="5.9652" height="5.96289"/><rect class="cls-43" x="224.24462" y="192.00385" width="5.9652" height="5.9652"/><rect class="cls-48" x="224.24462" y="186.03865" width="5.9652" height="5.9652"/><rect class="cls-48" x="224.24462" y="180.07576" width="5.9652" height="5.96289"/><rect class="cls-46" x="218.27942" y="275.50509" width="5.9652" height="5.9652"/><rect class="cls-44" x="218.27942" y="263.577" width="5.9652" height="5.96289"/><rect class="cls-44" x="218.27942" y="257.6118" width="5.9652" height="5.9652"/><rect class="cls-47" x="218.27942" y="245.68371" width="5.9652" height="5.96289"/><rect class="cls-46" x="218.27942" y="239.71851" width="5.9652" height="5.9652"/><rect class="cls-46" x="218.27942" y="233.75331" width="5.9652" height="5.9652"/><rect class="cls-46" x="218.27942" y="227.79042" width="5.9652" height="5.96289"/><rect class="cls-46" x="218.27942" y="221.82522" width="5.9652" height="5.9652"/><rect class="cls-43" x="218.27942" y="215.86002" width="5.9652" height="5.9652"/><rect class="cls-48" x="218.27942" y="209.89713" width="5.9652" height="5.96289"/><rect class="cls-48" x="218.27942" y="203.93194" width="5.9652" height="5.9652"/><rect class="cls-44" x="218.27942" y="197.96905" width="5.9652" height="5.96289"/><rect class="cls-43" x="218.27942" y="192.00385" width="5.9652" height="5.9652"/><rect class="cls-48" x="218.27942" y="186.03865" width="5.9652" height="5.9652"/><rect class="cls-47" x="212.31653" y="239.71851" width="5.96289" height="5.9652"/><rect class="cls-47" x="212.31653" y="233.75331" width="5.96289" height="5.9652"/><rect class="cls-47" x="212.31653" y="227.79042" width="5.96289" height="5.96289"/><rect class="cls-47" x="212.31653" y="221.82522" width="5.96289" height="5.9652"/><rect class="cls-43" x="212.31653" y="215.86002" width="5.96289" height="5.9652"/><rect class="cls-48" x="212.31653" y="209.89713" width="5.96289" height="5.96289"/><rect class="cls-48" x="212.31653" y="203.93194" width="5.96289" height="5.9652"/><rect class="cls-44" x="212.31653" y="197.96905" width="5.96289" height="5.96289"/><rect class="cls-43" x="212.31653" y="192.00385" width="5.96289" height="5.9652"/><rect class="cls-43" x="206.35133" y="215.86002" width="5.9652" height="5.9652"/><rect class="cls-43" x="206.35133" y="209.89713" width="5.9652" height="5.96289"/><rect class="cls-43" x="206.35133" y="203.93194" width="5.9652" height="5.9652"/></g></g></g></svg>