<svg xmlns="http://www.w3.org/2000/svg" viewBox="0 0 100 100"><defs><style>.cls-1{fill:#231f20;}.cls-2{fill:#fff;}.cls-3{opacity:0.5;}</style></defs><g id="Layer_2" data-name="Layer 2"><g id="Layer_1-2" data-name="Layer 1"><circle class="cls-1" cx="50" cy="50" r="50"/><path class="cls-2" d="M72.27435,92.27967c7.12227-3.76869,13.684-8.77175,18.31272-15.44488,5.02183-7.23986,7.31158-15.85462,7.569-24.60014A48.10131,48.10131,0,0,0,74.25259,9.16205a48.6317,48.6317,0,0,0-48.63873.45434A49.81125,49.81125,0,0,0,1.80176,52.23882C1.88892,61.9794,6.2384,71.01005,12.60807,78.21128a59.23892,59.23892,0,0,0,9.97858,8.92979c1.94923,1.3908,4.35708,1.99312,6.49875,3.05794.1606.07985,2.51332,1.42076,2.31007,1.58888l1.28275-.056a3.34858,3.34858,0,0,0-.042-2.47539c.02243.06593-.20954-.59561-.15413-.56427-.107-.06055-.34672.215-.36876.17689.011.019.22671-.00034.26348.01127a21.6893,21.6893,0,0,1,3.82147,1.31153,8.12843,8.12843,0,0,1,3.22719,2.64584c.687,1.12464.38611,1.95054-.27562,2.96339-.324.496,1.10164.18754,1.32569-.05672C41.1,95.06366,44.457,90.80418,42.598,90.16716c-.05432-.01861-.47308.12234-.28835.22975.06235.03625.234-.0315.31122-.02657.33821.02158.688-.017,1.02836-.00521a20.98859,20.98859,0,0,1,2.2934.21293c.61707.08977,3.12231.31271,3.14927,1.24524.00938.3247,1.46238.07853,1.44888-.38823-.03164-1.0949-2.61609-1.35216-3.3475-1.47131a13.2136,13.2136,0,0,0-4.9583-.14067c-.32664.078-1.07865.25285-1.08546.69936-.00295.19351.23939.22925.313.36492a1.26053,1.26053,0,0,1,.08836,1.02432,9.86006,9.86006,0,0,1-2.401,3.88945l1.32569-.05672c.8144-1.24651,1.15486-2.24461.21153-3.5786a10.09935,10.09935,0,0,0-4.37389-3.0895,7.14987,7.14987,0,0,0-4.2201-.79408c-.42407.10477-.95737.292-1.07316.75867-.0946.38123.29462.86385.36778,1.2145a2.79238,2.79238,0,0,1-.146,1.70414c-.18647.41225,1.15111.05288,1.28275-.056,1.3-1.07524-3.54736-2.92628-4.169-3.197-1.03371-.45015-2.11116-.814-3.13667-1.27911a19.31835,19.31835,0,0,1-3.6487-2.588c-7.145-5.62862-13.27531-12.937-16.31106-21.60386C2.19878,54.49842,2.91346,44.87912,5.771,36.18017A48.98833,48.98833,0,0,1,19.16822,15.35144a45.95826,45.95826,0,0,1,48.18013-8.375A47.70841,47.70841,0,0,1,96.37066,44.9149a48.5467,48.5467,0,0,1-3.84835,26.31067,43.79274,43.79274,0,0,1-15.83518,17.6729C74.98364,90.022,73.21871,91.045,71.4154,91.99916c-.85188.45077.46689.488.85895.28051Z"/><path class="cls-2" d="M32.11032,78.98385a4.19037,4.19037,0,0,0,1.48826-.00207c1.02336-.083,2.04343-.20984,3.06478-.31368a58.18956,58.18956,0,0,1,8.65648-.37285,21.07286,21.07286,0,0,1,4.299.6075c.34892.09058,2.02248.39274,2.182.88613.13147.40657-1.72661.48992-2.1136.51235-.20948.01214-3.16854-.10252-2.79628-.501.35371-.37861-.10382-.58156-.47914-.50948-1.12942.2169-2.25769.4452-3.37846.70331-.51331.11821-2.49971.34272-2.55488,1.0976-.04877.66718,1.3871,1.19662,1.829,1.37319a20.59075,20.59075,0,0,0,4.163,1.0889,32.66277,32.66277,0,0,0,11.31269.07539,17.04661,17.04661,0,0,0,5.0862-1.692c.56772-.30871.43587-.43,1.06327-.14854a2.30355,2.30355,0,0,1,1.054.94657c1.05142,1.9648-2.32106,1.8403-3.287,2.13736-.55916.172-.76949.63651-1.11277,1.07084a6.12125,6.12125,0,0,1-2.88531,2.33487l.67513.4706c.71017-.56423,3.60376-2.7868,2.4234-3.824-.7404-.6506-1.743-.02725-2.30553.50828-.951.90534-2.16716.80286-3.436.61038A28.73775,28.73775,0,0,1,49.6204,84.5341a5.37808,5.37808,0,0,0-2.68465-.50441c-2.32092.20471-5.51794,1.058-5.977,3.73712-.0807.471.80444.28849,1.00852.19923a13.8881,13.8881,0,0,1,4.29483-1.05394,9.18634,9.18634,0,0,1,4.29406.554A6.92459,6.92459,0,0,1,52.37,88.55632c.4269.35692.775.96947,1.23456,1.25428a8.83223,8.83223,0,0,0,1.42373.50385,13.8914,13.8914,0,0,1,2.25738,1.0422c.43055.26263,1.16495.6744.65986,1.09839-.41846.35126-1.399.27431-1.91352.35823a3.17242,3.17242,0,0,0-1.25949.49006c-.1228.07574-.23669.28092-.37054.319-.39585.11269-.99758-.26767-1.37168-.30282a1.599,1.599,0,0,0-1.06346.3043c-.96789.60024-2.333,1.89086-3.55716,1.52489l-.88959.77808c1.77941.25381,2.56939-1.85529,3.01623-3.20456.12441-.37567.54094-1.2886.2214-1.65062-.4439-.50291-1.35694.15616-1.6151.54546-.36223.54622,1.08711.41668,1.34738.02421.32838-.49519-.90195-.28529-1.09446.03628-.05462.09125-.02635.26261-.06281.36963-.12917.37914-.2095.77391-.3464,1.153a8.946,8.946,0,0,1-.54537,1.254,5.59,5.59,0,0,0-.2953.48677c-.20551.498-.56559.08936.264.2077-.40266-.05744-1.73962.52395-.88959.77808,1.92194.5746,4.20025-.98923,5.64514-2.10371l-1.02452.27452a3.749,3.749,0,0,0,3.2671-.13353,1.69665,1.69665,0,0,1,.96954-.42546,9.7399,9.7399,0,0,0,1.96021-.435c.50881-.1887,1.35226-.55388,1.29385-1.22646-.05082-.58512-.822-.99989-1.262-1.25723-1.22126-.71425-3.06264-.91128-3.963-1.96086-1.81053-2.11068-4.76223-2.72786-7.41674-2.57468a16.55017,16.55017,0,0,0-5.59164,1.2982l1.00852.19922c.34374-2.00605,2.77344-2.88552,4.62786-2.78366a14.23937,14.23937,0,0,1,3.21207,1.039,25.669,25.669,0,0,0,3.92241.98439,7.67431,7.67431,0,0,0,4.26045-.29763c.27237-.12148,1.58534-1.02051,1.48671-1.14223.0636.07849-.44069.038-.49038.10292-.039.0509.18945-.03335.15656.14961a2.184,2.184,0,0,1-.5156,1.12875,11.88371,11.88371,0,0,1-1.84945,1.7568c-.54139.43013.39491.54468.67513.4706a8.54421,8.54421,0,0,0,4.57636-3.74968l-.77428.38285c1.42251-.10881,5.88064-.72729,4.78089-3.20537a2.8923,2.8923,0,0,0-4.14664-1.0994c-3.12678,1.74706-6.89984,2.0399-10.41594,1.91793a23.64,23.64,0,0,1-8.84811-1.63523c-.288-.1322-.75784-.60343-1.02574-.66087-.122-.02616-.55325.06737-.14757.10139a3.66224,3.66224,0,0,0,.87633-.22852c1.1399-.27644,2.29119-.51159,3.443-.73279l-.47914-.50948c-1.08721,1.16375.92923,1.46124,1.74405,1.52525a10.74588,10.74588,0,0,0,4.86693-.56052c1.62686-.70056.733-1.57216-.50771-2.014a26.74231,26.74231,0,0,0-10.22673-1.01435c-1.8646.09063-3.72281.26174-5.57894.45758a10.02949,10.02949,0,0,1-3.0292.24067c-.4527-.13937-1.69467.53022-.88959.77808Z"/><g class="cls-3"><path class="cls-2" d="M61.52148,81.02753c-1.65977-.99928-3.27878-2.0757-4.85762-3.19765-1.40679-.9997-2.78755-2.04143-4.09555-3.16826-.52932-.456-1.04211-.92562-1.52935-1.42641.06077.06245-.4348-.46512-.27176-.2879-.09425-.10245.01137-.23129.01806.02932-.00525-.20449-.11651-.17364.05526.07833a4.79957,4.79957,0,0,1,.48181.77728q-.11541-.23374-.04835-.09726a8.003,8.003,0,0,1-.03764-.92338,3.65714,3.65714,0,0,0,.04905-1.31782,12.33375,12.33375,0,0,0-2.0522-4.18607,36.34257,36.34257,0,0,0-8.02749-8.61085,21.23307,21.23307,0,0,0-4.34276-2.73336c-.92985-.40932-2.25419-.90446-3.22594-.35456-.35857.2029,2.25461,4.4399,2.88885,4.081a3.24539,3.24539,0,0,1,2.77728.25106,17.93549,17.93549,0,0,1,3.87352,2.34843A31.40221,31.40221,0,0,1,46.992,65.70664c.48307.51146.71853.85623,1.04262,1.21439-.22464-.24825.04229.091-.09639-.15962a2.83655,2.83655,0,0,1,.25771.5066c.3292.86622-.03474,1.5121.058,2.36242.17845,1.63557,1.50913,3.307,2.45756,4.55709a34.944,34.944,0,0,0,7.52613,6.96015c1.91187,1.38642,3.87757,2.71549,5.90149,3.934.4.24083-.56448-1.6139-.62013-1.70032a7.27477,7.27477,0,0,0-1.99752-2.35383Z"/></g><g class="cls-3"><path class="cls-2" d="M65.4509,79.92293a17.68713,17.68713,0,0,0-2.88751-6.03158A9.00918,9.00918,0,0,0,58.60269,70.79,4.92551,4.92551,0,0,1,55.711,67.83267a8.99142,8.99142,0,0,1-.48765-1.964c-.05678-.39754-.06506-.79653-.10948-1.19465-.06729-.603-.12075,4.67452.00659,3.30735.0205-.22006.02584-.44184.04506-.6622.04561-.52295.12047-1.04016.20965-1.557a11.33588,11.33588,0,0,0,.16875-1.48186,41.33042,41.33042,0,0,0-.04555-5.97068c-.381-3.57558-3.19988-5.51819-6.54247-6.16211.274.05278-.34617,4.93332,0,5,3.05493.5885,5.80457,2.25073,6.44185,5.484.04973.25236.07929.505.10905.76021.25821,2.2143.19815-5.48655.01622-3.73312-.032.30833-.05826.61258-.10938.91868-.05795.347-.12745.69-.17223,1.03993a37.75625,37.75625,0,0,0-.17331,4.79463,24.06837,24.06837,0,0,0,.30377,5.28,5.71082,5.71082,0,0,0,2.118,3.543,16.78831,16.78831,0,0,0,2.03077.94718,8.19784,8.19784,0,0,1,2.12871,1.62816,16.47,16.47,0,0,1,3.80155,7.11268,11.35978,11.35978,0,0,1,.025-2.5,10.59647,10.59647,0,0,0-.025-2.5Z"/></g><path class="cls-2" d="M34.02627,78.33628c-4.6186-.2333-8.72376-4.369-11.45961-7.70366A44.1207,44.1207,0,0,1,13.68191,51.3711c-1.54765-7.70364-1.31808-15.85845,1.70553-23.1811A39.15362,39.15362,0,0,1,28.87886,11.42286,41.33155,41.33155,0,0,1,52.58945,3.70894c.60931-.00266,1.5126-.92679.53659-.92253-15.23291.06648-30.25646,8.40506-37.51889,21.9648-7.46488,13.93771-4.85881,32.18387,4.28544,44.74908,3.08675,4.24154,7.94234,9.47288,13.59709,9.75852.61939.03128,1.51575-.87307.53659-.92253Z"/><path class="cls-2" d="M11.54716,59.33775c2.04819,4.46841,5.23479,9.04654,9.32124,11.83648A12.6921,12.6921,0,0,0,25.141,73.12005c1.73647.40164,3.44816.10369,5.20277.21143,4.15018.25484,8.22657,1.64719,12.09973,3.07424,1.77281.65319,3.523,1.36365,5.286,2.04227a6.17971,6.17971,0,0,0,2.64494.70487c.66929-.06632,1.2345-.81144.22227-.71114.36053-.03573-.364-.15633-.58323-.23156-.5374-.18443-1.06639-.39455-1.59554-.60112-1.50658-.58811-3.00824-1.18839-4.52443-1.75157a51.95,51.95,0,0,0-11.24056-3.10811c-1.66994-.21764-3.27986-.04833-4.94523-.11446a10.26679,10.26679,0,0,1-4.85962-1.59823A23.56439,23.56439,0,0,1,16.04776,64.176a34.255,34.255,0,0,1-3.05171-5.22648c-.20626-.45-1.62077.01324-1.44889.38823Z"/><path class="cls-2" d="M8.13692,61.64538a32.71771,32.71771,0,0,0,7.1157,9.3585,16.214,16.214,0,0,0,7.40551,4.05833,24.66594,24.66594,0,0,0,5.29461.13558,46.88477,46.88477,0,0,1,7.28831.51913,39.78825,39.78825,0,0,1,5.84332,1.28574,6.72244,6.72244,0,0,1,2.64679,1.10762c.324.32277,1.68649-.209,1.35223-.54194a5.07772,5.07772,0,0,0-1.85334-.89574,32.989,32.989,0,0,0-4.07762-1.12675,50.80518,50.80518,0,0,0-12.96265-1.00769c-6.07566.25178-10.90072-4.71914-14.15122-9.31141a31.84239,31.84239,0,0,1-2.45275-3.9696c-.2266-.44752-1.6292.03213-1.44889.38823Z"/></g></g></svg>