<svg xmlns="http://www.w3.org/2000/svg" viewBox="0 0 502.17143 502.17143"><defs><style>.cls-1{fill:#c2b59b;stroke:#231f20;stroke-miterlimit:10;}.cls-2{fill:#a280a1;}.cls-3{fill:#394258;}.cls-4{fill:#232c42;}.cls-5{fill:#a38889;}.cls-6{fill:#562851;}.cls-7{fill:#6e696c;}.cls-8{fill:#ebd2e6;}.cls-9{fill:#927374;}.cls-10{fill:#6e3865;}.cls-11{fill:#a69a93;}.cls-12{fill:#846484;}.cls-13{fill:#677287;}.cls-14{fill:#603913;}.cls-15{fill:#b3b3b3;}.cls-16{fill:#5c575a;}.cls-17{fill:#b0b9d6;}.cls-18{fill:#58445c;}.cls-19{fill:#7a573d;}.cls-20{fill:#f8f8f9;}.cls-21{fill:#3e3443;}.cls-22{fill:#5d3856;}.cls-23{fill:#6b6769;}.cls-24{fill:#666;}.cls-25{fill:#f2f2f2;}.cls-26{fill:#c595c0;}.cls-27{fill:#917391;}.cls-28{fill:#444e60;}.cls-29{fill:#65666f;}.cls-30{fill:#3c261e;}.cls-31{fill:#523421;}.cls-32{fill:#694631;}.cls-33{fill:#1c1a3d;}.cls-34{fill:#413b45;}.cls-35{fill:#22203a;}.cls-36{fill:#664d48;}.cls-37{fill:#8a879c;}.cls-38{fill:#ccc;}.cls-39{fill:#511527;}.cls-40{fill:#796a48;}.cls-41{fill:#181927;}.cls-42{fill:#999;}.cls-43{fill:#414691;}.cls-44{fill:#48423f;}.cls-45{fill:#aa8671;}.cls-46{fill:#333;}.cls-47{fill:#d69a7c;}.cls-48{fill:#e6e6e6;}.cls-49{fill:#1a1a1a;}.cls-50{fill:#30436c;}.cls-51{fill:#151520;}.cls-52{fill:#777e94;}.cls-53{fill:#303648;}.cls-54{fill:#222638;}.cls-55{fill:#515877;}.cls-56{fill:#edf8fe;}.cls-57{fill:#554f4a;}.cls-58{fill:#766a6a;}.cls-59{fill:#2f2f2e;}.cls-60{fill:#232322;}.cls-61{fill:#636ab1;}.cls-62{fill:#363e6d;}.cls-63{fill:#c9b5b9;}.cls-64{fill:#41475d;}.cls-65{fill:#969dcc;}.cls-66{fill:#4d4d4d;}</style></defs><g id="Layer_2" data-name="Layer 2"><rect class="cls-1" x="0.5" y="0.5" width="501.17143" height="501.17143"/></g><g id="Layer_1" data-name="Layer 1"><g id="Layer_2-2" data-name="Layer 2"><g id="grid"><rect class="cls-2" x="277.69537" y="225.03055" width="6.05926" height="6.05926"/><rect class="cls-3" x="277.69537" y="206.85511" width="6.05926" height="6.05926"/><rect class="cls-3" x="277.69537" y="200.79819" width="6.05926" height="6.05692"/><rect class="cls-4" x="277.69537" y="176.56348" width="6.05926" height="6.05926"/><rect class="cls-5" x="277.69537" y="170.50656" width="6.05926" height="6.05692"/><rect class="cls-4" x="277.69537" y="164.44729" width="6.05926" height="6.05926"/><rect class="cls-6" x="271.6361" y="285.61616" width="6.05926" height="6.05691"/><rect class="cls-6" x="271.6361" y="279.5569" width="6.05926" height="6.05926"/><rect class="cls-6" x="271.6361" y="273.49997" width="6.05926" height="6.05691"/><rect class="cls-6" x="271.6361" y="267.44071" width="6.05926" height="6.05926"/><rect class="cls-6" x="271.6361" y="261.38145" width="6.05926" height="6.05926"/><rect class="cls-6" x="271.6361" y="255.32453" width="6.05926" height="6.05691"/><rect class="cls-7" x="271.6361" y="249.26527" width="6.05926" height="6.05926"/><rect class="cls-7" x="271.6361" y="243.206" width="6.05926" height="6.05926"/><rect class="cls-2" x="271.6361" y="231.08982" width="6.05926" height="6.05926"/><rect class="cls-8" x="271.6361" y="225.03055" width="6.05926" height="6.05926"/><rect class="cls-3" x="271.6361" y="218.97363" width="6.05926" height="6.05692"/><rect class="cls-3" x="271.6361" y="212.91437" width="6.05926" height="6.05926"/><rect class="cls-4" x="271.6361" y="206.85511" width="6.05926" height="6.05926"/><rect class="cls-4" x="271.6361" y="200.79819" width="6.05926" height="6.05692"/><rect class="cls-4" x="271.6361" y="194.73892" width="6.05926" height="6.05926"/><rect class="cls-4" x="271.6361" y="188.68201" width="6.05926" height="6.05692"/><rect class="cls-4" x="271.6361" y="182.62274" width="6.05926" height="6.05926"/><rect class="cls-9" x="271.6361" y="176.56348" width="6.05926" height="6.05926"/><rect class="cls-3" x="271.6361" y="170.50656" width="6.05926" height="6.05692"/><rect class="cls-4" x="271.6361" y="164.44729" width="6.05926" height="6.05926"/><rect class="cls-10" x="265.57919" y="285.61616" width="6.05691" height="6.05691"/><rect class="cls-10" x="265.57919" y="279.5569" width="6.05691" height="6.05926"/><rect class="cls-10" x="265.57919" y="273.49997" width="6.05691" height="6.05691"/><rect class="cls-10" x="265.57919" y="267.44071" width="6.05691" height="6.05926"/><rect class="cls-10" x="265.57919" y="261.38145" width="6.05691" height="6.05926"/><rect class="cls-10" x="265.57919" y="255.32453" width="6.05691" height="6.05691"/><rect class="cls-11" x="265.57919" y="249.26527" width="6.05691" height="6.05926"/><rect class="cls-11" x="265.57919" y="243.206" width="6.05691" height="6.05926"/><rect class="cls-11" x="265.57919" y="237.14908" width="6.05691" height="6.05691"/><rect class="cls-12" x="265.57919" y="231.08982" width="6.05691" height="6.05926"/><rect class="cls-4" x="265.57919" y="225.03055" width="6.05691" height="6.05926"/><rect class="cls-4" x="265.57919" y="218.97363" width="6.05691" height="6.05692"/><rect class="cls-4" x="265.57919" y="212.91437" width="6.05691" height="6.05926"/><rect class="cls-4" x="265.57919" y="206.85511" width="6.05691" height="6.05926"/><rect class="cls-4" x="265.57919" y="200.79819" width="6.05691" height="6.05692"/><rect class="cls-4" x="265.57919" y="194.73892" width="6.05691" height="6.05926"/><rect class="cls-4" x="265.57919" y="188.68201" width="6.05691" height="6.05692"/><rect class="cls-4" x="265.57919" y="182.62274" width="6.05691" height="6.05926"/><rect class="cls-3" x="265.57919" y="176.56348" width="6.05691" height="6.05926"/><rect class="cls-4" x="265.57919" y="170.50656" width="6.05691" height="6.05692"/><rect class="cls-13" x="265.57919" y="164.44729" width="6.05691" height="6.05926"/><rect class="cls-14" x="259.51992" y="328.02397" width="6.05927" height="6.05926"/><rect class="cls-15" x="259.51992" y="321.96705" width="6.05927" height="6.05691"/><rect class="cls-15" x="259.51992" y="315.90778" width="6.05927" height="6.05929"/><rect class="cls-14" x="259.51992" y="309.84852" width="6.05927" height="6.05926"/><rect class="cls-7" x="259.51992" y="303.7916" width="6.05927" height="6.05691"/><rect class="cls-16" x="259.51992" y="297.73234" width="6.05927" height="6.05926"/><rect class="cls-16" x="259.51992" y="291.67307" width="6.05927" height="6.05926"/><rect class="cls-16" x="259.51992" y="285.61616" width="6.05927" height="6.05691"/><rect class="cls-17" x="259.51992" y="279.5569" width="6.05927" height="6.05926"/><rect class="cls-17" x="259.51992" y="273.49997" width="6.05927" height="6.05691"/><rect class="cls-16" x="259.51992" y="267.44071" width="6.05927" height="6.05926"/><rect class="cls-16" x="259.51992" y="261.38145" width="6.05927" height="6.05926"/><rect class="cls-16" x="259.51992" y="255.32453" width="6.05927" height="6.05691"/><rect class="cls-7" x="259.51992" y="249.26527" width="6.05927" height="6.05926"/><rect class="cls-11" x="259.51992" y="243.206" width="6.05927" height="6.05926"/><rect class="cls-12" x="259.51992" y="237.14908" width="6.05927" height="6.05691"/><rect class="cls-4" x="259.51992" y="231.08982" width="6.05927" height="6.05926"/><rect class="cls-4" x="259.51992" y="225.03055" width="6.05927" height="6.05926"/><rect class="cls-4" x="259.51992" y="218.97363" width="6.05927" height="6.05692"/><rect class="cls-4" x="259.51992" y="212.91437" width="6.05927" height="6.05926"/><rect class="cls-3" x="259.51992" y="206.85511" width="6.05927" height="6.05926"/><rect class="cls-3" x="259.51992" y="200.79819" width="6.05927" height="6.05692"/><rect class="cls-4" x="259.51992" y="194.73892" width="6.05927" height="6.05926"/><rect class="cls-4" x="259.51992" y="188.68201" width="6.05927" height="6.05692"/><rect class="cls-18" x="259.51992" y="182.62274" width="6.05927" height="6.05926"/><rect class="cls-4" x="259.51992" y="176.56348" width="6.05927" height="6.05926"/><rect class="cls-4" x="259.51992" y="170.50656" width="6.05927" height="6.05692"/><rect class="cls-19" x="253.46066" y="328.02397" width="6.05926" height="6.05926"/><rect class="cls-20" x="253.46066" y="321.96705" width="6.05926" height="6.05691"/><rect class="cls-19" x="253.46066" y="315.90778" width="6.05926" height="6.05929"/><rect class="cls-19" x="253.46066" y="309.84852" width="6.05926" height="6.05926"/><rect class="cls-11" x="253.46066" y="303.7916" width="6.05926" height="6.05691"/><rect class="cls-7" x="253.46066" y="297.73234" width="6.05926" height="6.05926"/><rect class="cls-16" x="253.46066" y="291.67307" width="6.05926" height="6.05926"/><rect class="cls-10" x="253.46066" y="285.61616" width="6.05926" height="6.05691"/><rect class="cls-20" x="253.46066" y="279.5569" width="6.05926" height="6.05926"/><rect class="cls-7" x="253.46066" y="273.49997" width="6.05926" height="6.05691"/><rect class="cls-7" x="253.46066" y="267.44071" width="6.05926" height="6.05926"/><rect class="cls-21" x="253.46066" y="261.38145" width="6.05926" height="6.05926"/><rect class="cls-21" x="253.46066" y="255.32453" width="6.05926" height="6.05691"/><rect class="cls-7" x="253.46066" y="249.26527" width="6.05926" height="6.05926"/><rect class="cls-7" x="253.46066" y="243.206" width="6.05926" height="6.05926"/><rect class="cls-4" x="253.46066" y="237.14908" width="6.05926" height="6.05691"/><rect class="cls-4" x="253.46066" y="231.08982" width="6.05926" height="6.05926"/><rect class="cls-4" x="253.46066" y="225.03055" width="6.05926" height="6.05926"/><rect class="cls-3" x="253.46066" y="218.97363" width="6.05926" height="6.05692"/><rect class="cls-3" x="253.46066" y="212.91437" width="6.05926" height="6.05926"/><rect class="cls-4" x="253.46066" y="206.85511" width="6.05926" height="6.05926"/><rect class="cls-4" x="253.46066" y="200.79819" width="6.05926" height="6.05692"/><rect class="cls-4" x="253.46066" y="194.73892" width="6.05926" height="6.05926"/><rect class="cls-18" x="253.46066" y="188.68201" width="6.05926" height="6.05692"/><rect class="cls-4" x="253.46066" y="182.62274" width="6.05926" height="6.05926"/><rect class="cls-3" x="253.46066" y="176.56348" width="6.05926" height="6.05926"/><rect class="cls-4" x="253.46066" y="170.50656" width="6.05926" height="6.05692"/><rect class="cls-3" x="253.46066" y="164.44729" width="6.05926" height="6.05926"/><rect class="cls-19" x="247.40374" y="328.02397" width="6.05692" height="6.05926"/><rect class="cls-20" x="247.40374" y="321.96705" width="6.05692" height="6.05691"/><rect class="cls-20" x="247.40374" y="315.90778" width="6.05692" height="6.05929"/><rect class="cls-19" x="247.40374" y="309.84852" width="6.05692" height="6.05926"/><rect class="cls-11" x="247.40374" y="303.7916" width="6.05692" height="6.05691"/><rect class="cls-7" x="247.40374" y="297.73234" width="6.05692" height="6.05926"/><rect class="cls-22" x="247.40374" y="291.67307" width="6.05692" height="6.05926"/><rect class="cls-10" x="247.40374" y="285.61616" width="6.05692" height="6.05691"/><rect class="cls-10" x="247.40374" y="279.5569" width="6.05692" height="6.05926"/><rect class="cls-7" x="247.40374" y="273.49997" width="6.05692" height="6.05691"/><rect class="cls-11" x="247.40374" y="267.44071" width="6.05692" height="6.05926"/><rect class="cls-22" x="247.40374" y="261.38145" width="6.05692" height="6.05926"/><rect class="cls-21" x="247.40374" y="255.32453" width="6.05692" height="6.05691"/><rect class="cls-11" x="247.40374" y="249.26527" width="6.05692" height="6.05926"/><rect class="cls-11" x="247.40374" y="243.206" width="6.05692" height="6.05926"/><rect class="cls-4" x="247.40374" y="237.14908" width="6.05692" height="6.05691"/><rect class="cls-12" x="247.40374" y="231.08982" width="6.05692" height="6.05926"/><rect class="cls-3" x="247.40374" y="225.03055" width="6.05692" height="6.05926"/><rect class="cls-3" x="247.40374" y="218.97363" width="6.05692" height="6.05692"/><rect class="cls-4" x="247.40374" y="212.91437" width="6.05692" height="6.05926"/><rect class="cls-4" x="247.40374" y="206.85511" width="6.05692" height="6.05926"/><rect class="cls-4" x="247.40374" y="200.79819" width="6.05692" height="6.05692"/><rect class="cls-22" x="247.40374" y="194.73892" width="6.05692" height="6.05926"/><rect class="cls-4" x="247.40374" y="188.68201" width="6.05692" height="6.05692"/><rect class="cls-3" x="247.40374" y="182.62274" width="6.05692" height="6.05926"/><rect class="cls-3" x="247.40374" y="176.56348" width="6.05692" height="6.05926"/><rect class="cls-3" x="247.40374" y="170.50656" width="6.05692" height="6.05692"/><rect class="cls-4" x="247.40374" y="164.44729" width="6.05692" height="6.05926"/><rect class="cls-22" x="241.34448" y="297.73234" width="6.05926" height="6.05926"/><rect class="cls-17" x="241.34448" y="291.67307" width="6.05926" height="6.05926"/><rect class="cls-22" x="241.34448" y="285.61616" width="6.05926" height="6.05691"/><rect class="cls-7" x="241.34448" y="279.5569" width="6.05926" height="6.05926"/><rect class="cls-11" x="241.34448" y="273.49997" width="6.05926" height="6.05691"/><rect class="cls-11" x="241.34448" y="267.44071" width="6.05926" height="6.05926"/><rect class="cls-7" x="241.34448" y="261.38145" width="6.05926" height="6.05926"/><rect class="cls-22" x="241.34448" y="255.32453" width="6.05926" height="6.05691"/><rect class="cls-21" x="241.34448" y="249.26527" width="6.05926" height="6.05926"/><rect class="cls-7" x="241.34448" y="243.206" width="6.05926" height="6.05926"/><rect class="cls-12" x="241.34448" y="237.14908" width="6.05926" height="6.05691"/><rect class="cls-12" x="241.34448" y="231.08982" width="6.05926" height="6.05926"/><rect class="cls-16" x="241.34448" y="225.03055" width="6.05926" height="6.05926"/><rect class="cls-7" x="241.34448" y="218.97363" width="6.05926" height="6.05692"/><rect class="cls-7" x="241.34448" y="212.91437" width="6.05926" height="6.05926"/><rect class="cls-7" x="241.34448" y="206.85511" width="6.05926" height="6.05926"/><rect class="cls-16" x="241.34448" y="200.79819" width="6.05926" height="6.05692"/><rect class="cls-4" x="241.34448" y="194.73892" width="6.05926" height="6.05926"/><rect class="cls-4" x="241.34448" y="188.68201" width="6.05926" height="6.05692"/><rect class="cls-3" x="241.34448" y="182.62274" width="6.05926" height="6.05926"/><rect class="cls-3" x="241.34448" y="176.56348" width="6.05926" height="6.05926"/><rect class="cls-3" x="241.34448" y="170.50656" width="6.05926" height="6.05692"/><rect class="cls-3" x="241.34448" y="164.44729" width="6.05926" height="6.05926"/><rect class="cls-14" x="235.28756" y="328.02397" width="6.05692" height="6.05926"/><rect class="cls-15" x="235.28756" y="321.96705" width="6.05692" height="6.05691"/><rect class="cls-15" x="235.28756" y="315.90778" width="6.05692" height="6.05929"/><rect class="cls-14" x="235.28756" y="309.84852" width="6.05692" height="6.05926"/><rect class="cls-16" x="235.28756" y="303.7916" width="6.05692" height="6.05691"/><rect class="cls-17" x="235.28756" y="297.73234" width="6.05692" height="6.05926"/><rect class="cls-22" x="235.28756" y="291.67307" width="6.05692" height="6.05926"/><rect class="cls-17" x="235.28756" y="285.61616" width="6.05692" height="6.05691"/><rect class="cls-11" x="235.28756" y="279.5569" width="6.05692" height="6.05926"/><rect class="cls-11" x="235.28756" y="273.49997" width="6.05692" height="6.05691"/><rect class="cls-11" x="235.28756" y="267.44071" width="6.05692" height="6.05926"/><rect class="cls-7" x="235.28756" y="261.38145" width="6.05692" height="6.05926"/><rect class="cls-22" x="235.28756" y="255.32453" width="6.05692" height="6.05691"/><rect class="cls-22" x="235.28756" y="249.26527" width="6.05692" height="6.05926"/><rect class="cls-23" x="235.28756" y="243.206" width="6.05692" height="6.05926"/><rect class="cls-24" x="235.28756" y="237.14908" width="6.05692" height="6.05691"/><rect class="cls-11" x="235.28756" y="231.08982" width="6.05692" height="6.05926"/><rect class="cls-7" x="235.28756" y="225.03055" width="6.05692" height="6.05926"/><rect class="cls-11" x="235.28756" y="218.97363" width="6.05692" height="6.05692"/><rect class="cls-11" x="235.28756" y="212.91437" width="6.05692" height="6.05926"/><rect class="cls-11" x="235.28756" y="206.85511" width="6.05692" height="6.05926"/><rect class="cls-11" x="235.28756" y="200.79819" width="6.05692" height="6.05692"/><rect class="cls-4" x="235.28756" y="194.73892" width="6.05692" height="6.05926"/><rect class="cls-3" x="235.28756" y="188.68201" width="6.05692" height="6.05692"/><rect class="cls-22" x="235.28756" y="182.62274" width="6.05692" height="6.05926"/><rect class="cls-18" x="235.28756" y="176.56348" width="6.05692" height="6.05926"/><rect class="cls-18" x="235.28756" y="170.50656" width="6.05692" height="6.05692"/><rect class="cls-4" x="235.28756" y="164.44729" width="6.05692" height="6.05926"/><rect class="cls-19" x="229.2283" y="328.02397" width="6.05927" height="6.05926"/><rect class="cls-20" x="229.2283" y="321.96705" width="6.05927" height="6.05691"/><rect class="cls-19" x="229.2283" y="315.90778" width="6.05927" height="6.05929"/><rect class="cls-19" x="229.2283" y="309.84852" width="6.05927" height="6.05926"/><rect class="cls-7" x="229.2283" y="303.7916" width="6.05927" height="6.05691"/><rect class="cls-16" x="229.2283" y="297.73234" width="6.05927" height="6.05926"/><rect class="cls-22" x="229.2283" y="291.67307" width="6.05927" height="6.05926"/><rect class="cls-22" x="229.2283" y="285.61616" width="6.05927" height="6.05691"/><rect class="cls-10" x="229.2283" y="279.5569" width="6.05927" height="6.05926"/><rect class="cls-11" x="229.2283" y="273.49997" width="6.05927" height="6.05691"/><rect class="cls-11" x="229.2283" y="267.44071" width="6.05927" height="6.05926"/><rect class="cls-21" x="229.2283" y="261.38145" width="6.05927" height="6.05926"/><rect class="cls-22" x="229.2283" y="255.32453" width="6.05927" height="6.05691"/><rect class="cls-11" x="229.2283" y="249.26527" width="6.05927" height="6.05926"/><rect class="cls-7" x="229.2283" y="243.206" width="6.05927" height="6.05926"/><rect class="cls-12" x="229.2283" y="237.14908" width="6.05927" height="6.05691"/><rect class="cls-12" x="229.2283" y="231.08982" width="6.05927" height="6.05926"/><rect class="cls-11" x="229.2283" y="225.03055" width="6.05927" height="6.05926"/><rect class="cls-11" x="229.2283" y="218.97363" width="6.05927" height="6.05692"/><rect class="cls-11" x="229.2283" y="212.91437" width="6.05927" height="6.05926"/><rect class="cls-25" x="229.2283" y="206.85511" width="6.05927" height="6.05926"/><rect class="cls-15" x="229.2283" y="200.79819" width="6.05927" height="6.05692"/><rect class="cls-21" x="229.2283" y="194.73892" width="6.05927" height="6.05926"/><rect class="cls-4" x="229.2283" y="188.68201" width="6.05927" height="6.05692"/><rect class="cls-18" x="229.2283" y="182.62274" width="6.05927" height="6.05926"/><rect class="cls-3" x="229.2283" y="176.56348" width="6.05927" height="6.05926"/><rect class="cls-4" x="229.2283" y="170.50656" width="6.05927" height="6.05692"/><rect class="cls-4" x="229.2283" y="164.44729" width="6.05927" height="6.05926"/><rect class="cls-19" x="223.16903" y="328.02397" width="6.05926" height="6.05926"/><rect class="cls-20" x="223.16903" y="321.96705" width="6.05926" height="6.05691"/><rect class="cls-20" x="223.16903" y="315.90778" width="6.05926" height="6.05929"/><rect class="cls-19" x="223.16903" y="309.84852" width="6.05926" height="6.05926"/><rect class="cls-11" x="223.16903" y="303.7916" width="6.05926" height="6.05691"/><rect class="cls-11" x="223.16903" y="297.73234" width="6.05926" height="6.05926"/><rect class="cls-7" x="223.16903" y="291.67307" width="6.05926" height="6.05926"/><rect class="cls-10" x="223.16903" y="285.61616" width="6.05926" height="6.05691"/><rect class="cls-20" x="223.16903" y="279.5569" width="6.05926" height="6.05926"/><rect class="cls-11" x="223.16903" y="273.49997" width="6.05926" height="6.05691"/><rect class="cls-11" x="223.16903" y="267.44071" width="6.05926" height="6.05926"/><rect class="cls-22" x="223.16903" y="261.38145" width="6.05926" height="6.05926"/><rect class="cls-22" x="223.16903" y="255.32453" width="6.05926" height="6.05691"/><rect class="cls-11" x="223.16903" y="249.26527" width="6.05926" height="6.05926"/><rect class="cls-11" x="223.16903" y="243.206" width="6.05926" height="6.05926"/><rect class="cls-12" x="223.16903" y="237.14908" width="6.05926" height="6.05691"/><rect class="cls-12" x="223.16903" y="231.08982" width="6.05926" height="6.05926"/><rect class="cls-7" x="223.16903" y="225.03055" width="6.05926" height="6.05926"/><rect class="cls-11" x="223.16903" y="218.97363" width="6.05926" height="6.05692"/><rect class="cls-11" x="223.16903" y="212.91437" width="6.05926" height="6.05926"/><rect class="cls-26" x="223.16903" y="206.85511" width="6.05926" height="6.05926"/><rect class="cls-27" x="223.16903" y="200.79819" width="6.05926" height="6.05692"/><rect class="cls-21" x="223.16903" y="194.73892" width="6.05926" height="6.05926"/><rect class="cls-4" x="223.16903" y="188.68201" width="6.05926" height="6.05692"/><rect class="cls-18" x="223.16903" y="182.62274" width="6.05926" height="6.05926"/><rect class="cls-4" x="223.16903" y="176.56348" width="6.05926" height="6.05926"/><rect class="cls-18" x="223.16903" y="170.50656" width="6.05926" height="6.05692"/><rect class="cls-3" x="223.16903" y="164.44729" width="6.05926" height="6.05926"/><rect class="cls-6" x="217.11211" y="285.61616" width="6.05692" height="6.05691"/><rect class="cls-6" x="217.11211" y="279.5569" width="6.05692" height="6.05926"/><rect class="cls-6" x="217.11211" y="273.49997" width="6.05692" height="6.05691"/><rect class="cls-6" x="217.11211" y="267.44071" width="6.05692" height="6.05926"/><rect class="cls-6" x="217.11211" y="261.38145" width="6.05692" height="6.05926"/><rect class="cls-6" x="217.11211" y="255.32453" width="6.05692" height="6.05691"/><rect class="cls-16" x="217.11211" y="249.26527" width="6.05692" height="6.05926"/><rect class="cls-16" x="217.11211" y="243.206" width="6.05692" height="6.05926"/><rect class="cls-7" x="217.11211" y="237.14908" width="6.05692" height="6.05691"/><rect class="cls-12" x="217.11211" y="231.08982" width="6.05692" height="6.05926"/><rect class="cls-2" x="217.11211" y="225.03055" width="6.05692" height="6.05926"/><rect class="cls-11" x="217.11211" y="218.97363" width="6.05692" height="6.05692"/><rect class="cls-11" x="217.11211" y="212.91437" width="6.05692" height="6.05926"/><rect class="cls-11" x="217.11211" y="206.85511" width="6.05692" height="6.05926"/><rect class="cls-11" x="217.11211" y="200.79819" width="6.05692" height="6.05692"/><rect class="cls-7" x="217.11211" y="194.73892" width="6.05692" height="6.05926"/><rect class="cls-22" x="217.11211" y="188.68201" width="6.05692" height="6.05692"/><rect class="cls-4" x="217.11211" y="182.62274" width="6.05692" height="6.05926"/><rect class="cls-22" x="217.11211" y="176.56348" width="6.05692" height="6.05926"/><rect class="cls-3" x="217.11211" y="170.50656" width="6.05692" height="6.05692"/><rect class="cls-13" x="217.11211" y="164.44729" width="6.05692" height="6.05926"/><rect class="cls-10" x="211.05285" y="285.61616" width="6.05926" height="6.05691"/><rect class="cls-10" x="211.05285" y="279.5569" width="6.05926" height="6.05926"/><rect class="cls-10" x="211.05285" y="273.49997" width="6.05926" height="6.05691"/><rect class="cls-10" x="211.05285" y="267.44071" width="6.05926" height="6.05926"/><rect class="cls-10" x="211.05285" y="261.38145" width="6.05926" height="6.05926"/><rect class="cls-10" x="211.05285" y="255.32453" width="6.05926" height="6.05691"/><rect class="cls-11" x="211.05285" y="249.26527" width="6.05926" height="6.05926"/><rect class="cls-11" x="211.05285" y="243.206" width="6.05926" height="6.05926"/><rect class="cls-2" x="211.05285" y="231.08982" width="6.05926" height="6.05926"/><rect class="cls-8" x="211.05285" y="225.03055" width="6.05926" height="6.05926"/><rect class="cls-11" x="211.05285" y="212.91437" width="6.05926" height="6.05926"/><rect class="cls-11" x="211.05285" y="206.85511" width="6.05926" height="6.05926"/><rect class="cls-11" x="211.05285" y="200.79819" width="6.05926" height="6.05692"/><rect class="cls-11" x="211.05285" y="194.73892" width="6.05926" height="6.05926"/><rect class="cls-4" x="211.05285" y="188.68201" width="6.05926" height="6.05692"/><rect class="cls-18" x="211.05285" y="182.62274" width="6.05926" height="6.05926"/><rect class="cls-3" x="211.05285" y="176.56348" width="6.05926" height="6.05926"/><rect class="cls-28" x="211.05285" y="170.50656" width="6.05926" height="6.05692"/><rect class="cls-2" x="204.99358" y="225.03055" width="6.05926" height="6.05926"/><rect class="cls-3" x="204.99358" y="188.68201" width="6.05926" height="6.05692"/><rect class="cls-3" x="204.99358" y="182.62274" width="6.05926" height="6.05926"/><rect class="cls-13" x="204.99358" y="176.56348" width="6.05926" height="6.05926"/></g></g><g id="Layer_2-3" data-name="Layer 2"><g id="grid-2" data-name="grid"><rect class="cls-29" x="123.69802" y="293.19394" width="6.36251" height="6.36251"/><rect class="cls-15" x="123.69802" y="286.83142" width="6.36251" height="6.36251"/><rect class="cls-29" x="123.69802" y="280.47137" width="6.36251" height="6.36005"/><rect class="cls-30" x="123.69802" y="248.66127" width="6.36251" height="6.36251"/><rect class="cls-30" x="123.69802" y="242.30122" width="6.36251" height="6.36005"/><rect class="cls-31" x="123.69802" y="235.93871" width="6.36251" height="6.36251"/><rect class="cls-32" x="123.69802" y="229.57866" width="6.36251" height="6.36005"/><rect class="cls-32" x="123.69802" y="223.21615" width="6.36251" height="6.36251"/><rect class="cls-33" x="117.33551" y="318.64152" width="6.36251" height="6.36005"/><rect class="cls-33" x="117.33551" y="312.27901" width="6.36251" height="6.36251"/><rect class="cls-33" x="117.33551" y="305.9165" width="6.36251" height="6.36251"/><rect class="cls-34" x="117.33551" y="299.55645" width="6.36251" height="6.36005"/><rect class="cls-35" x="117.33551" y="293.19394" width="6.36251" height="6.36251"/><rect class="cls-35" x="117.33551" y="286.83142" width="6.36251" height="6.36251"/><rect class="cls-35" x="117.33551" y="280.47137" width="6.36251" height="6.36005"/><rect class="cls-34" x="117.33551" y="274.10886" width="6.36251" height="6.36251"/><rect class="cls-30" x="117.33551" y="255.02378" width="6.36251" height="6.36252"/><rect class="cls-31" x="117.33551" y="248.66127" width="6.36251" height="6.36251"/><rect class="cls-36" x="117.33551" y="242.30122" width="6.36251" height="6.36005"/><rect class="cls-30" x="117.33551" y="235.93871" width="6.36251" height="6.36251"/><rect class="cls-37" x="117.33551" y="229.57866" width="6.36251" height="6.36005"/><rect class="cls-29" x="117.33551" y="223.21615" width="6.36251" height="6.36251"/><rect class="cls-37" x="117.33551" y="216.85363" width="6.36251" height="6.36251"/><rect class="cls-38" x="117.33551" y="210.49358" width="6.36251" height="6.36005"/><rect class="cls-39" x="110.97546" y="318.64152" width="6.36005" height="6.36005"/><rect class="cls-39" x="110.97546" y="312.27901" width="6.36005" height="6.36251"/><rect class="cls-40" x="110.97546" y="305.9165" width="6.36005" height="6.36251"/><rect class="cls-29" x="110.97546" y="299.55645" width="6.36005" height="6.36005"/><rect class="cls-34" x="110.97546" y="293.19394" width="6.36005" height="6.36251"/><rect class="cls-29" x="110.97546" y="286.83142" width="6.36005" height="6.36251"/><rect class="cls-29" x="110.97546" y="280.47137" width="6.36005" height="6.36005"/><rect class="cls-35" x="110.97546" y="274.10886" width="6.36005" height="6.36251"/><rect class="cls-33" x="110.97546" y="267.74634" width="6.36005" height="6.36251"/><rect class="cls-30" x="110.97546" y="261.3863" width="6.36005" height="6.36005"/><rect class="cls-30" x="110.97546" y="255.02378" width="6.36005" height="6.36252"/><rect class="cls-36" x="110.97546" y="248.66127" width="6.36005" height="6.36251"/><rect class="cls-37" x="110.97546" y="242.30122" width="6.36005" height="6.36005"/><rect class="cls-37" x="110.97546" y="235.93871" width="6.36005" height="6.36251"/><rect class="cls-29" x="110.97546" y="229.57866" width="6.36005" height="6.36005"/><rect class="cls-37" x="110.97546" y="223.21615" width="6.36005" height="6.36251"/><rect class="cls-38" x="110.97546" y="216.85363" width="6.36005" height="6.36251"/><rect class="cls-30" x="110.97546" y="210.49358" width="6.36005" height="6.36005"/><rect class="cls-34" x="104.61295" y="331.36409" width="6.36251" height="6.36005"/><rect class="cls-34" x="104.61295" y="325.00158" width="6.36251" height="6.36251"/><rect class="cls-34" x="104.61295" y="318.64152" width="6.36251" height="6.36005"/><rect class="cls-40" x="104.61295" y="312.27901" width="6.36251" height="6.36251"/><rect class="cls-29" x="104.61295" y="305.9165" width="6.36251" height="6.36251"/><rect class="cls-34" x="104.61295" y="299.55645" width="6.36251" height="6.36005"/><rect class="cls-41" x="104.61295" y="293.19394" width="6.36251" height="6.36251"/><rect class="cls-42" x="104.61295" y="286.83142" width="6.36251" height="6.36251"/><rect class="cls-29" x="104.61295" y="280.47137" width="6.36251" height="6.36005"/><rect class="cls-33" x="104.61295" y="274.10886" width="6.36251" height="6.36251"/><rect class="cls-43" x="104.61295" y="267.74634" width="6.36251" height="6.36251"/><rect class="cls-36" x="104.61295" y="261.3863" width="6.36251" height="6.36005"/><rect class="cls-30" x="104.61295" y="255.02378" width="6.36251" height="6.36252"/><rect class="cls-29" x="104.61295" y="248.66127" width="6.36251" height="6.36251"/><rect class="cls-34" x="104.61295" y="242.30122" width="6.36251" height="6.36005"/><rect class="cls-29" x="104.61295" y="235.93871" width="6.36251" height="6.36251"/><rect class="cls-38" x="104.61295" y="229.57866" width="6.36251" height="6.36005"/><rect class="cls-30" x="104.61295" y="223.21615" width="6.36251" height="6.36251"/><rect class="cls-30" x="104.61295" y="216.85363" width="6.36251" height="6.36251"/><rect class="cls-32" x="104.61295" y="210.49358" width="6.36251" height="6.36005"/><rect class="cls-37" x="98.25044" y="331.36409" width="6.36251" height="6.36005"/><rect class="cls-29" x="98.25044" y="325.00158" width="6.36251" height="6.36251"/><rect class="cls-34" x="98.25044" y="318.64152" width="6.36251" height="6.36005"/><rect class="cls-29" x="98.25044" y="312.27901" width="6.36251" height="6.36251"/><rect class="cls-34" x="98.25044" y="305.9165" width="6.36251" height="6.36251"/><rect class="cls-37" x="98.25044" y="299.55645" width="6.36251" height="6.36005"/><rect class="cls-44" x="98.25044" y="293.19394" width="6.36251" height="6.36251"/><rect class="cls-41" x="98.25044" y="286.83142" width="6.36251" height="6.36251"/><rect class="cls-35" x="98.25044" y="280.47137" width="6.36251" height="6.36005"/><rect class="cls-43" x="98.25044" y="274.10886" width="6.36251" height="6.36251"/><rect class="cls-45" x="98.25044" y="267.74634" width="6.36251" height="6.36251"/><rect class="cls-45" x="98.25044" y="261.3863" width="6.36251" height="6.36005"/><rect class="cls-45" x="98.25044" y="255.02378" width="6.36251" height="6.36252"/><rect class="cls-34" x="98.25044" y="248.66127" width="6.36251" height="6.36251"/><rect class="cls-34" x="98.25044" y="242.30122" width="6.36251" height="6.36005"/><rect class="cls-29" x="98.25044" y="235.93871" width="6.36251" height="6.36251"/><rect class="cls-30" x="98.25044" y="229.57866" width="6.36251" height="6.36005"/><rect class="cls-31" x="98.25044" y="223.21615" width="6.36251" height="6.36251"/><rect class="cls-31" x="98.25044" y="216.85363" width="6.36251" height="6.36251"/><rect class="cls-38" x="91.89039" y="331.36409" width="6.36005" height="6.36005"/><rect class="cls-29" x="91.89039" y="325.00158" width="6.36005" height="6.36251"/><rect class="cls-46" x="91.89039" y="318.64152" width="6.36005" height="6.36005"/><rect class="cls-34" x="91.89039" y="312.27901" width="6.36005" height="6.36251"/><rect class="cls-41" x="91.89039" y="305.9165" width="6.36005" height="6.36251"/><rect class="cls-29" x="91.89039" y="299.55645" width="6.36005" height="6.36005"/><rect class="cls-42" x="91.89039" y="293.19394" width="6.36005" height="6.36251"/><rect class="cls-35" x="91.89039" y="286.83142" width="6.36005" height="6.36251"/><rect class="cls-33" x="91.89039" y="280.47137" width="6.36005" height="6.36005"/><rect class="cls-43" x="91.89039" y="274.10886" width="6.36005" height="6.36251"/><rect class="cls-45" x="91.89039" y="267.74634" width="6.36005" height="6.36251"/><rect class="cls-47" x="91.89039" y="261.3863" width="6.36005" height="6.36005"/><rect class="cls-47" x="91.89039" y="255.02378" width="6.36005" height="6.36252"/><rect class="cls-47" x="91.89039" y="248.66127" width="6.36005" height="6.36251"/><rect class="cls-29" x="91.89039" y="242.30122" width="6.36005" height="6.36005"/><rect class="cls-30" x="91.89039" y="235.93871" width="6.36005" height="6.36251"/><rect class="cls-31" x="91.89039" y="229.57866" width="6.36005" height="6.36005"/><rect class="cls-32" x="91.89039" y="223.21615" width="6.36005" height="6.36251"/><rect class="cls-32" x="91.89039" y="216.85363" width="6.36005" height="6.36251"/><rect class="cls-32" x="91.89039" y="210.49358" width="6.36005" height="6.36005"/><rect class="cls-34" x="85.52787" y="325.00158" width="6.36251" height="6.36251"/><rect class="cls-34" x="85.52787" y="318.64152" width="6.36251" height="6.36005"/><rect class="cls-34" x="85.52787" y="312.27901" width="6.36251" height="6.36251"/><rect class="cls-41" x="85.52787" y="305.9165" width="6.36251" height="6.36251"/><rect class="cls-41" x="85.52787" y="299.55645" width="6.36251" height="6.36005"/><rect class="cls-35" x="85.52787" y="293.19394" width="6.36251" height="6.36251"/><rect class="cls-35" x="85.52787" y="286.83142" width="6.36251" height="6.36251"/><rect class="cls-33" x="85.52787" y="280.47137" width="6.36251" height="6.36005"/><rect class="cls-43" x="85.52787" y="274.10886" width="6.36251" height="6.36251"/><rect class="cls-47" x="85.52787" y="267.74634" width="6.36251" height="6.36251"/><rect class="cls-48" x="85.52787" y="261.3863" width="6.36251" height="6.36005"/><rect class="cls-42" x="85.52787" y="255.02378" width="6.36251" height="6.36252"/><rect class="cls-49" x="85.52787" y="248.66127" width="6.36251" height="6.36251"/><rect class="cls-29" x="85.52787" y="242.30122" width="6.36251" height="6.36005"/><rect class="cls-30" x="85.52787" y="235.93871" width="6.36251" height="6.36251"/><rect class="cls-30" x="85.52787" y="229.57866" width="6.36251" height="6.36005"/><rect class="cls-31" x="85.52787" y="223.21615" width="6.36251" height="6.36251"/><rect class="cls-31" x="85.52787" y="216.85363" width="6.36251" height="6.36251"/><rect class="cls-32" x="85.52787" y="210.49358" width="6.36251" height="6.36005"/><rect class="cls-29" x="79.16783" y="325.00158" width="6.36005" height="6.36251"/><rect class="cls-46" x="79.16783" y="318.64152" width="6.36005" height="6.36005"/><rect class="cls-40" x="79.16783" y="312.27901" width="6.36005" height="6.36251"/><rect class="cls-34" x="79.16783" y="305.9165" width="6.36005" height="6.36251"/><rect class="cls-29" x="79.16783" y="299.55645" width="6.36005" height="6.36005"/><rect class="cls-29" x="79.16783" y="293.19394" width="6.36005" height="6.36251"/><rect class="cls-35" x="79.16783" y="286.83142" width="6.36005" height="6.36251"/><rect class="cls-33" x="79.16783" y="280.47137" width="6.36005" height="6.36005"/><rect class="cls-45" x="79.16783" y="274.10886" width="6.36005" height="6.36251"/><rect class="cls-47" x="79.16783" y="267.74634" width="6.36005" height="6.36251"/><rect class="cls-50" x="79.16783" y="261.3863" width="6.36005" height="6.36005"/><rect class="cls-51" x="79.16783" y="255.02378" width="6.36005" height="6.36252"/><rect class="cls-49" x="79.16783" y="248.66127" width="6.36005" height="6.36251"/><rect class="cls-29" x="79.16783" y="242.30122" width="6.36005" height="6.36005"/><rect class="cls-30" x="79.16783" y="235.93871" width="6.36005" height="6.36251"/><rect class="cls-31" x="79.16783" y="229.57866" width="6.36005" height="6.36005"/><rect class="cls-32" x="79.16783" y="223.21615" width="6.36005" height="6.36251"/><rect class="cls-31" x="79.16783" y="216.85363" width="6.36005" height="6.36251"/><rect class="cls-32" x="79.16783" y="210.49358" width="6.36005" height="6.36005"/><rect class="cls-34" x="79.16783" y="204.13107" width="6.36005" height="6.36251"/><rect class="cls-34" x="79.16783" y="197.76856" width="6.36005" height="6.36251"/><rect class="cls-15" x="72.80531" y="325.00158" width="6.36251" height="6.36251"/><rect class="cls-29" x="72.80531" y="318.64152" width="6.36251" height="6.36005"/><rect class="cls-46" x="72.80531" y="312.27901" width="6.36251" height="6.36251"/><rect class="cls-40" x="72.80531" y="305.9165" width="6.36251" height="6.36251"/><rect class="cls-29" x="72.80531" y="299.55645" width="6.36251" height="6.36005"/><rect class="cls-29" x="72.80531" y="293.19394" width="6.36251" height="6.36251"/><rect class="cls-29" x="72.80531" y="286.83142" width="6.36251" height="6.36251"/><rect class="cls-34" x="72.80531" y="280.47137" width="6.36251" height="6.36005"/><rect class="cls-43" x="72.80531" y="274.10886" width="6.36251" height="6.36251"/><rect class="cls-47" x="72.80531" y="267.74634" width="6.36251" height="6.36251"/><rect class="cls-47" x="72.80531" y="261.3863" width="6.36251" height="6.36005"/><rect class="cls-47" x="72.80531" y="255.02378" width="6.36251" height="6.36252"/><rect class="cls-47" x="72.80531" y="248.66127" width="6.36251" height="6.36251"/><rect class="cls-37" x="72.80531" y="242.30122" width="6.36251" height="6.36005"/><rect class="cls-30" x="72.80531" y="235.93871" width="6.36251" height="6.36251"/><rect class="cls-31" x="72.80531" y="229.57866" width="6.36251" height="6.36005"/><rect class="cls-31" x="72.80531" y="223.21615" width="6.36251" height="6.36251"/><rect class="cls-32" x="72.80531" y="216.85363" width="6.36251" height="6.36251"/><rect class="cls-32" x="72.80531" y="210.49358" width="6.36251" height="6.36005"/><rect class="cls-34" x="72.80531" y="204.13107" width="6.36251" height="6.36251"/><rect class="cls-37" x="72.80531" y="197.76856" width="6.36251" height="6.36251"/><rect class="cls-38" x="66.4428" y="305.9165" width="6.36251" height="6.36251"/><rect class="cls-40" x="66.4428" y="299.55645" width="6.36251" height="6.36005"/><rect class="cls-15" x="66.4428" y="293.19394" width="6.36251" height="6.36251"/><rect class="cls-15" x="66.4428" y="286.83142" width="6.36251" height="6.36251"/><rect class="cls-15" x="66.4428" y="280.47137" width="6.36251" height="6.36005"/><rect class="cls-33" x="66.4428" y="274.10886" width="6.36251" height="6.36251"/><rect class="cls-47" x="66.4428" y="267.74634" width="6.36251" height="6.36251"/><rect class="cls-47" x="66.4428" y="261.3863" width="6.36251" height="6.36005"/><rect class="cls-47" x="66.4428" y="255.02378" width="6.36251" height="6.36252"/><rect class="cls-47" x="66.4428" y="248.66127" width="6.36251" height="6.36251"/><rect class="cls-37" x="66.4428" y="242.30122" width="6.36251" height="6.36005"/><rect class="cls-31" x="66.4428" y="235.93871" width="6.36251" height="6.36251"/><rect class="cls-30" x="66.4428" y="229.57866" width="6.36251" height="6.36005"/><rect class="cls-31" x="66.4428" y="223.21615" width="6.36251" height="6.36251"/><rect class="cls-32" x="66.4428" y="216.85363" width="6.36251" height="6.36251"/><rect class="cls-29" x="66.4428" y="210.49358" width="6.36251" height="6.36005"/><rect class="cls-37" x="66.4428" y="204.13107" width="6.36251" height="6.36251"/><rect class="cls-44" x="60.08275" y="299.55645" width="6.36005" height="6.36005"/><rect class="cls-41" x="60.08275" y="293.19394" width="6.36005" height="6.36251"/><rect class="cls-29" x="60.08275" y="286.83142" width="6.36005" height="6.36251"/><rect class="cls-29" x="60.08275" y="280.47137" width="6.36005" height="6.36005"/><rect class="cls-45" x="60.08275" y="261.3863" width="6.36005" height="6.36005"/><rect class="cls-45" x="60.08275" y="255.02378" width="6.36005" height="6.36252"/><rect class="cls-37" x="60.08275" y="248.66127" width="6.36005" height="6.36251"/><rect class="cls-30" x="60.08275" y="242.30122" width="6.36005" height="6.36005"/><rect class="cls-31" x="60.08275" y="235.93871" width="6.36005" height="6.36251"/><rect class="cls-32" x="60.08275" y="229.57866" width="6.36005" height="6.36005"/><rect class="cls-32" x="60.08275" y="223.21615" width="6.36005" height="6.36251"/><rect class="cls-31" x="60.08275" y="216.85363" width="6.36005" height="6.36251"/><rect class="cls-32" x="53.72024" y="235.93871" width="6.36251" height="6.36251"/><rect class="cls-32" x="53.72024" y="229.57866" width="6.36251" height="6.36005"/><rect class="cls-32" x="53.72024" y="216.85363" width="6.36251" height="6.36251"/></g></g><g id="Layer_2-4" data-name="Layer 2"><g id="grid-3" data-name="grid"><rect class="cls-52" x="409.52986" y="290.57462" width="6.48773" height="6.48521"/><rect class="cls-53" x="441.96598" y="238.67784" width="6.48521" height="6.48773"/><rect class="cls-53" x="435.47826" y="258.1385" width="6.48773" height="6.48773"/><rect class="cls-54" x="435.47826" y="232.19262" width="6.48773" height="6.48521"/><rect class="cls-54" x="435.47826" y="225.7049" width="6.48773" height="6.48773"/><rect class="cls-54" x="428.99053" y="251.65329" width="6.48773" height="6.48521"/><rect class="cls-54" x="428.99053" y="245.16556" width="6.48773" height="6.48773"/><rect class="cls-54" x="428.99053" y="238.67784" width="6.48773" height="6.48773"/><rect class="cls-54" x="428.99053" y="232.19262" width="6.48773" height="6.48521"/><rect class="cls-54" x="428.99053" y="225.7049" width="6.48773" height="6.48773"/><rect class="cls-54" x="428.99053" y="219.21968" width="6.48773" height="6.48521"/><rect class="cls-54" x="422.50532" y="264.62623" width="6.48521" height="6.48773"/><rect class="cls-54" x="422.50532" y="258.1385" width="6.48521" height="6.48773"/><rect class="cls-55" x="422.50532" y="251.65329" width="6.48521" height="6.48521"/><rect class="cls-53" x="422.50532" y="245.16556" width="6.48521" height="6.48773"/><rect class="cls-53" x="422.50532" y="238.67784" width="6.48521" height="6.48773"/><rect class="cls-53" x="422.50532" y="232.19262" width="6.48521" height="6.48521"/><rect class="cls-55" x="422.50532" y="225.7049" width="6.48521" height="6.48773"/><rect class="cls-53" x="422.50532" y="219.21968" width="6.48521" height="6.48521"/><rect class="cls-55" x="422.50532" y="212.73196" width="6.48521" height="6.48773"/><rect class="cls-54" x="422.50532" y="206.24423" width="6.48521" height="6.48773"/><rect class="cls-54" x="416.01759" y="277.59917" width="6.48773" height="6.48773"/><rect class="cls-54" x="416.01759" y="271.11395" width="6.48773" height="6.48521"/><rect class="cls-54" x="416.01759" y="264.62623" width="6.48773" height="6.48773"/><rect class="cls-53" x="416.01759" y="258.1385" width="6.48773" height="6.48773"/><rect class="cls-53" x="416.01759" y="251.65329" width="6.48773" height="6.48521"/><rect class="cls-54" x="416.01759" y="245.16556" width="6.48773" height="6.48773"/><rect class="cls-54" x="416.01759" y="238.67784" width="6.48773" height="6.48773"/><rect class="cls-53" x="416.01759" y="232.19262" width="6.48773" height="6.48521"/><rect class="cls-55" x="416.01759" y="225.7049" width="6.48773" height="6.48773"/><rect class="cls-53" x="416.01759" y="219.21968" width="6.48773" height="6.48521"/><rect class="cls-53" x="416.01759" y="212.73196" width="6.48773" height="6.48773"/><rect class="cls-54" x="416.01759" y="206.24423" width="6.48773" height="6.48773"/><rect class="cls-56" x="409.52986" y="316.5205" width="6.48773" height="6.48773"/><rect class="cls-56" x="409.52986" y="310.03528" width="6.48773" height="6.48521"/><rect class="cls-57" x="409.52986" y="303.54756" width="6.48773" height="6.48773"/><rect class="cls-57" x="409.52986" y="297.05983" width="6.48773" height="6.48773"/><rect class="cls-54" x="409.52986" y="271.11395" width="6.48773" height="6.48521"/><rect class="cls-53" x="409.52986" y="264.62623" width="6.48773" height="6.48773"/><rect class="cls-53" x="409.52986" y="258.1385" width="6.48773" height="6.48773"/><rect class="cls-54" x="409.52986" y="251.65329" width="6.48773" height="6.48521"/><rect class="cls-58" x="409.52986" y="245.16556" width="6.48773" height="6.48773"/><rect class="cls-55" x="409.52986" y="238.67784" width="6.48773" height="6.48773"/><rect class="cls-53" x="409.52986" y="232.19262" width="6.48773" height="6.48521"/><rect class="cls-55" x="409.52986" y="225.7049" width="6.48773" height="6.48773"/><rect class="cls-55" x="409.52986" y="219.21968" width="6.48773" height="6.48521"/><rect class="cls-53" x="409.52986" y="212.73196" width="6.48773" height="6.48773"/><rect class="cls-53" x="409.52986" y="206.24423" width="6.48773" height="6.48773"/><rect class="cls-54" x="409.52986" y="199.75902" width="6.48773" height="6.48521"/><rect class="cls-57" x="403.04465" y="329.49343" width="6.48521" height="6.48773"/><rect class="cls-59" x="403.04465" y="323.00822" width="6.48521" height="6.48521"/><rect class="cls-56" x="403.04465" y="316.5205" width="6.48521" height="6.48773"/><rect class="cls-56" x="403.04465" y="310.03528" width="6.48521" height="6.48521"/><rect class="cls-59" x="403.04465" y="303.54756" width="6.48521" height="6.48773"/><rect class="cls-60" x="403.04465" y="297.05983" width="6.48521" height="6.48773"/><rect class="cls-52" x="403.04465" y="290.57462" width="6.48521" height="6.48521"/><rect class="cls-61" x="403.04465" y="284.0869" width="6.48521" height="6.48773"/><rect class="cls-62" x="403.04465" y="277.59917" width="6.48521" height="6.48773"/><rect class="cls-62" x="403.04465" y="271.11395" width="6.48521" height="6.48521"/><rect class="cls-53" x="403.04465" y="264.62623" width="6.48521" height="6.48773"/><rect class="cls-54" x="403.04465" y="258.1385" width="6.48521" height="6.48773"/><rect class="cls-58" x="403.04465" y="251.65329" width="6.48521" height="6.48521"/><rect class="cls-63" x="403.04465" y="245.16556" width="6.48521" height="6.48773"/><rect class="cls-53" x="403.04465" y="238.67784" width="6.48521" height="6.48773"/><rect class="cls-53" x="403.04465" y="232.19262" width="6.48521" height="6.48521"/><rect class="cls-53" x="403.04465" y="225.7049" width="6.48521" height="6.48773"/><rect class="cls-53" x="403.04465" y="219.21968" width="6.48521" height="6.48521"/><rect class="cls-53" x="403.04465" y="212.73196" width="6.48521" height="6.48773"/><rect class="cls-53" x="403.04465" y="206.24423" width="6.48521" height="6.48773"/><rect class="cls-53" x="403.04465" y="199.75902" width="6.48521" height="6.48521"/><rect class="cls-57" x="396.55693" y="329.49343" width="6.48773" height="6.48773"/><rect class="cls-59" x="396.55693" y="323.00822" width="6.48773" height="6.48521"/><rect class="cls-56" x="396.55693" y="316.5205" width="6.48773" height="6.48773"/><rect class="cls-52" x="396.55693" y="310.03528" width="6.48773" height="6.48521"/><rect class="cls-60" x="396.55693" y="303.54756" width="6.48773" height="6.48773"/><rect class="cls-59" x="396.55693" y="297.05983" width="6.48773" height="6.48773"/><rect class="cls-56" x="396.55693" y="290.57462" width="6.48773" height="6.48521"/><rect class="cls-61" x="396.55693" y="284.0869" width="6.48773" height="6.48773"/><rect class="cls-62" x="396.55693" y="277.59917" width="6.48773" height="6.48773"/><rect class="cls-49" x="396.55693" y="271.11395" width="6.48773" height="6.48521"/><rect class="cls-49" x="396.55693" y="264.62623" width="6.48773" height="6.48773"/><rect class="cls-53" x="396.55693" y="258.1385" width="6.48773" height="6.48773"/><rect class="cls-53" x="396.55693" y="251.65329" width="6.48773" height="6.48521"/><rect class="cls-53" x="396.55693" y="245.16556" width="6.48773" height="6.48773"/><rect class="cls-53" x="396.55693" y="238.67784" width="6.48773" height="6.48773"/><rect class="cls-53" x="396.55693" y="232.19262" width="6.48773" height="6.48521"/><rect class="cls-53" x="396.55693" y="225.7049" width="6.48773" height="6.48773"/><rect class="cls-53" x="396.55693" y="219.21968" width="6.48773" height="6.48521"/><rect class="cls-54" x="396.55693" y="212.73196" width="6.48773" height="6.48773"/><rect class="cls-53" x="396.55693" y="206.24423" width="6.48773" height="6.48773"/><rect class="cls-54" x="396.55693" y="199.75902" width="6.48773" height="6.48521"/><rect class="cls-57" x="390.0692" y="329.49343" width="6.48773" height="6.48773"/><rect class="cls-59" x="390.0692" y="323.00822" width="6.48773" height="6.48521"/><rect class="cls-59" x="390.0692" y="316.5205" width="6.48773" height="6.48773"/><rect class="cls-63" x="390.0692" y="310.03528" width="6.48773" height="6.48521"/><rect class="cls-58" x="390.0692" y="303.54756" width="6.48773" height="6.48773"/><rect class="cls-57" x="390.0692" y="297.05983" width="6.48773" height="6.48773"/><rect class="cls-56" x="390.0692" y="290.57462" width="6.48773" height="6.48521"/><rect class="cls-61" x="390.0692" y="284.0869" width="6.48773" height="6.48773"/><rect class="cls-64" x="390.0692" y="277.59917" width="6.48773" height="6.48773"/><rect class="cls-58" x="390.0692" y="271.11395" width="6.48773" height="6.48521"/><rect class="cls-58" x="390.0692" y="264.62623" width="6.48773" height="6.48773"/><rect class="cls-58" x="390.0692" y="258.1385" width="6.48773" height="6.48773"/><rect class="cls-58" x="390.0692" y="251.65329" width="6.48773" height="6.48521"/><rect class="cls-58" x="390.0692" y="245.16556" width="6.48773" height="6.48773"/><rect class="cls-53" x="390.0692" y="238.67784" width="6.48773" height="6.48773"/><rect class="cls-53" x="390.0692" y="232.19262" width="6.48773" height="6.48521"/><rect class="cls-54" x="390.0692" y="225.7049" width="6.48773" height="6.48773"/><rect class="cls-54" x="390.0692" y="219.21968" width="6.48773" height="6.48521"/><rect class="cls-53" x="390.0692" y="212.73196" width="6.48773" height="6.48773"/><rect class="cls-53" x="390.0692" y="206.24423" width="6.48773" height="6.48773"/><rect class="cls-53" x="390.0692" y="199.75902" width="6.48773" height="6.48521"/><rect class="cls-57" x="383.58399" y="323.00822" width="6.48521" height="6.48521"/><rect class="cls-59" x="383.58399" y="316.5205" width="6.48521" height="6.48773"/><rect class="cls-63" x="383.58399" y="310.03528" width="6.48521" height="6.48521"/><rect class="cls-63" x="383.58399" y="303.54756" width="6.48521" height="6.48773"/><rect class="cls-59" x="383.58399" y="297.05983" width="6.48521" height="6.48773"/><rect class="cls-59" x="383.58399" y="290.57462" width="6.48521" height="6.48521"/><rect class="cls-64" x="383.58399" y="284.0869" width="6.48521" height="6.48773"/><rect class="cls-65" x="383.58399" y="277.59917" width="6.48521" height="6.48773"/><rect class="cls-58" x="383.58399" y="271.11395" width="6.48521" height="6.48521"/><rect class="cls-63" x="383.58399" y="264.62623" width="6.48521" height="6.48773"/><rect class="cls-63" x="383.58399" y="258.1385" width="6.48521" height="6.48773"/><rect class="cls-63" x="383.58399" y="251.65329" width="6.48521" height="6.48521"/><rect class="cls-58" x="383.58399" y="245.16556" width="6.48521" height="6.48773"/><rect class="cls-58" x="383.58399" y="238.67784" width="6.48521" height="6.48773"/><rect class="cls-54" x="383.58399" y="232.19262" width="6.48521" height="6.48521"/><rect class="cls-53" x="383.58399" y="225.7049" width="6.48521" height="6.48773"/><rect class="cls-55" x="383.58399" y="219.21968" width="6.48521" height="6.48521"/><rect class="cls-53" x="383.58399" y="212.73196" width="6.48521" height="6.48773"/><rect class="cls-53" x="383.58399" y="206.24423" width="6.48521" height="6.48773"/><rect class="cls-53" x="383.58399" y="199.75902" width="6.48521" height="6.48521"/><rect class="cls-57" x="377.09626" y="323.00822" width="6.48773" height="6.48521"/><rect class="cls-65" x="377.09626" y="316.5205" width="6.48773" height="6.48773"/><rect class="cls-52" x="377.09626" y="310.03528" width="6.48773" height="6.48521"/><rect class="cls-57" x="377.09626" y="303.54756" width="6.48773" height="6.48773"/><rect class="cls-57" x="377.09626" y="297.05983" width="6.48773" height="6.48773"/><rect class="cls-59" x="377.09626" y="290.57462" width="6.48773" height="6.48521"/><rect class="cls-62" x="377.09626" y="284.0869" width="6.48773" height="6.48773"/><rect class="cls-61" x="377.09626" y="277.59917" width="6.48773" height="6.48773"/><rect class="cls-58" x="377.09626" y="271.11395" width="6.48773" height="6.48521"/><rect class="cls-63" x="377.09626" y="264.62623" width="6.48773" height="6.48773"/><rect class="cls-38" x="377.09626" y="258.1385" width="6.48773" height="6.48773"/><rect class="cls-66" x="377.09626" y="251.65329" width="6.48773" height="6.48521"/><rect x="377.09626" y="245.16556" width="6.48773" height="6.48773"/><rect class="cls-58" x="377.09626" y="238.67784" width="6.48773" height="6.48773"/><rect class="cls-53" x="377.09626" y="232.19262" width="6.48773" height="6.48521"/><rect class="cls-53" x="377.09626" y="225.7049" width="6.48773" height="6.48773"/><rect class="cls-53" x="377.09626" y="219.21968" width="6.48773" height="6.48521"/><rect class="cls-53" x="377.09626" y="212.73196" width="6.48773" height="6.48773"/><rect class="cls-53" x="377.09626" y="206.24423" width="6.48773" height="6.48773"/><rect class="cls-55" x="377.09626" y="199.75902" width="6.48773" height="6.48521"/><rect class="cls-57" x="370.61105" y="323.00822" width="6.48521" height="6.48521"/><rect class="cls-59" x="370.61105" y="316.5205" width="6.48521" height="6.48773"/><rect class="cls-57" x="370.61105" y="310.03528" width="6.48521" height="6.48521"/><rect class="cls-52" x="370.61105" y="303.54756" width="6.48521" height="6.48773"/><rect class="cls-57" x="370.61105" y="297.05983" width="6.48521" height="6.48773"/><rect class="cls-59" x="370.61105" y="290.57462" width="6.48521" height="6.48521"/><rect class="cls-61" x="370.61105" y="284.0869" width="6.48521" height="6.48773"/><rect class="cls-62" x="370.61105" y="277.59917" width="6.48521" height="6.48773"/><rect class="cls-63" x="370.61105" y="271.11395" width="6.48521" height="6.48521"/><rect class="cls-63" x="370.61105" y="264.62623" width="6.48521" height="6.48773"/><rect class="cls-55" x="370.61105" y="258.1385" width="6.48521" height="6.48773"/><rect class="cls-53" x="370.61105" y="251.65329" width="6.48521" height="6.48521"/><rect x="370.61105" y="245.16556" width="6.48521" height="6.48773"/><rect class="cls-58" x="370.61105" y="238.67784" width="6.48521" height="6.48773"/><rect class="cls-53" x="370.61105" y="232.19262" width="6.48521" height="6.48521"/><rect class="cls-55" x="370.61105" y="225.7049" width="6.48521" height="6.48773"/><rect class="cls-53" x="370.61105" y="219.21968" width="6.48521" height="6.48521"/><rect class="cls-54" x="370.61105" y="212.73196" width="6.48521" height="6.48773"/><rect class="cls-53" x="370.61105" y="206.24423" width="6.48521" height="6.48773"/><rect class="cls-53" x="370.61105" y="199.75902" width="6.48521" height="6.48521"/><rect class="cls-56" x="364.12332" y="310.03528" width="6.48773" height="6.48521"/><rect class="cls-52" x="364.12332" y="303.54756" width="6.48773" height="6.48773"/><rect class="cls-57" x="364.12332" y="297.05983" width="6.48773" height="6.48773"/><rect class="cls-57" x="364.12332" y="290.57462" width="6.48773" height="6.48521"/><rect class="cls-59" x="364.12332" y="284.0869" width="6.48773" height="6.48773"/><rect class="cls-61" x="364.12332" y="277.59917" width="6.48773" height="6.48773"/><rect class="cls-63" x="364.12332" y="271.11395" width="6.48773" height="6.48521"/><rect class="cls-63" x="364.12332" y="264.62623" width="6.48773" height="6.48773"/><rect class="cls-63" x="364.12332" y="258.1385" width="6.48773" height="6.48773"/><rect class="cls-63" x="364.12332" y="251.65329" width="6.48773" height="6.48521"/><rect class="cls-63" x="364.12332" y="245.16556" width="6.48773" height="6.48773"/><rect class="cls-63" x="364.12332" y="238.67784" width="6.48773" height="6.48773"/><rect class="cls-53" x="364.12332" y="232.19262" width="6.48773" height="6.48521"/><rect class="cls-53" x="364.12332" y="225.7049" width="6.48773" height="6.48773"/><rect class="cls-53" x="364.12332" y="219.21968" width="6.48773" height="6.48521"/><rect class="cls-53" x="364.12332" y="212.73196" width="6.48773" height="6.48773"/><rect class="cls-53" x="364.12332" y="206.24423" width="6.48773" height="6.48773"/><rect class="cls-55" x="364.12332" y="199.75902" width="6.48773" height="6.48521"/><rect class="cls-58" x="357.6356" y="303.54756" width="6.48773" height="6.48773"/><rect class="cls-58" x="357.6356" y="297.05983" width="6.48773" height="6.48773"/><rect class="cls-52" x="357.6356" y="290.57462" width="6.48773" height="6.48521"/><rect class="cls-52" x="357.6356" y="284.0869" width="6.48773" height="6.48773"/><rect class="cls-58" x="357.6356" y="271.11395" width="6.48773" height="6.48521"/><rect class="cls-63" x="357.6356" y="264.62623" width="6.48773" height="6.48773"/><rect class="cls-63" x="357.6356" y="258.1385" width="6.48773" height="6.48773"/><rect class="cls-63" x="357.6356" y="251.65329" width="6.48773" height="6.48521"/><rect class="cls-63" x="357.6356" y="245.16556" width="6.48773" height="6.48773"/><rect class="cls-63" x="357.6356" y="238.67784" width="6.48773" height="6.48773"/><rect class="cls-55" x="357.6356" y="232.19262" width="6.48773" height="6.48521"/><rect class="cls-54" x="357.6356" y="225.7049" width="6.48773" height="6.48773"/><rect class="cls-53" x="357.6356" y="219.21968" width="6.48773" height="6.48521"/><rect class="cls-53" x="357.6356" y="212.73196" width="6.48773" height="6.48773"/><rect class="cls-55" x="357.6356" y="206.24423" width="6.48773" height="6.48773"/><rect class="cls-58" x="351.15038" y="264.62623" width="6.48521" height="6.48773"/><rect class="cls-58" x="351.15038" y="258.1385" width="6.48521" height="6.48773"/><rect class="cls-58" x="351.15038" y="251.65329" width="6.48521" height="6.48521"/><rect class="cls-58" x="351.15038" y="245.16556" width="6.48521" height="6.48773"/><rect class="cls-55" x="351.15038" y="238.67784" width="6.48521" height="6.48773"/><rect class="cls-55" x="351.15038" y="232.19262" width="6.48521" height="6.48521"/><rect class="cls-55" x="351.15038" y="225.7049" width="6.48521" height="6.48773"/><rect class="cls-55" x="351.15038" y="219.21968" width="6.48521" height="6.48521"/><rect class="cls-55" x="351.15038" y="212.73196" width="6.48521" height="6.48773"/><rect class="cls-55" x="344.66266" y="238.67784" width="6.48773" height="6.48773"/><rect class="cls-55" x="344.66266" y="232.19262" width="6.48773" height="6.48521"/><rect class="cls-55" x="344.66266" y="225.7049" width="6.48773" height="6.48773"/><rect class="cls-55" x="338.17493" y="219.21968" width="6.48773" height="6.48521"/></g></g></g></svg>