<svg xmlns="http://www.w3.org/2000/svg" viewBox="0 0 394.73096 173.27684"><defs><style>.cls-1{fill:#a280a1;}.cls-2{fill:#394258;}.cls-3{fill:#232c42;}.cls-4{fill:#a38889;}.cls-5{fill:#562851;}.cls-6{fill:#6e696c;}.cls-7{fill:#ebd2e6;}.cls-8{fill:#927374;}.cls-9{fill:#6e3865;}.cls-10{fill:#a69a93;}.cls-11{fill:#846484;}.cls-12{fill:#677287;}.cls-13{fill:#603913;}.cls-14{fill:#b3b3b3;}.cls-15{fill:#5c575a;}.cls-16{fill:#b0b9d6;}.cls-17{fill:#58445c;}.cls-18{fill:#7a573d;}.cls-19{fill:#f8f8f9;}.cls-20{fill:#3e3443;}.cls-21{fill:#5d3856;}.cls-22{fill:#6b6769;}.cls-23{fill:#666;}.cls-24{fill:#f2f2f2;}.cls-25{fill:#c595c0;}.cls-26{fill:#917391;}.cls-27{fill:#444e60;}.cls-28{fill:#65666f;}.cls-29{fill:#3c261e;}.cls-30{fill:#523421;}.cls-31{fill:#694631;}.cls-32{fill:#1c1a3d;}.cls-33{fill:#413b45;}.cls-34{fill:#22203a;}.cls-35{fill:#664d48;}.cls-36{fill:#8a879c;}.cls-37{fill:#ccc;}.cls-38{fill:#511527;}.cls-39{fill:#796a48;}.cls-40{fill:#181927;}.cls-41{fill:#999;}.cls-42{fill:#414691;}.cls-43{fill:#48423f;}.cls-44{fill:#aa8671;}.cls-45{fill:#333;}.cls-46{fill:#d69a7c;}.cls-47{fill:#e6e6e6;}.cls-48{fill:#1a1a1a;}.cls-49{fill:#30436c;}.cls-50{fill:#151520;}.cls-51{fill:#777e94;}.cls-52{fill:#303648;}.cls-53{fill:#222638;}.cls-54{fill:#515877;}.cls-55{fill:#edf8fe;}.cls-56{fill:#554f4a;}.cls-57{fill:#766a6a;}.cls-58{fill:#2f2f2e;}.cls-59{fill:#232322;}.cls-60{fill:#636ab1;}.cls-61{fill:#363e6d;}.cls-62{fill:#c9b5b9;}.cls-63{fill:#41475d;}.cls-64{fill:#969dcc;}.cls-65{fill:#4d4d4d;}</style></defs><g id="Layer_2" data-name="Layer 2"><g id="Layer_1-2" data-name="Layer 1"><g id="Layer_2-2" data-name="Layer 2"><g id="grid"><rect class="cls-1" x="223.97513" y="60.58326" width="6.05926" height="6.05926"/><rect class="cls-2" x="223.97513" y="42.40781" width="6.05926" height="6.05926"/><rect class="cls-2" x="223.97513" y="36.35089" width="6.05926" height="6.05692"/><rect class="cls-3" x="223.97513" y="12.11618" width="6.05926" height="6.05926"/><rect class="cls-4" x="223.97513" y="6.05926" width="6.05926" height="6.05692"/><rect class="cls-3" x="223.97513" width="6.05926" height="6.05926"/><rect class="cls-5" x="217.91587" y="121.16887" width="6.05926" height="6.05691"/><rect class="cls-5" x="217.91587" y="115.1096" width="6.05926" height="6.05926"/><rect class="cls-5" x="217.91587" y="109.05268" width="6.05926" height="6.05691"/><rect class="cls-5" x="217.91587" y="102.99342" width="6.05926" height="6.05926"/><rect class="cls-5" x="217.91587" y="96.93415" width="6.05926" height="6.05926"/><rect class="cls-5" x="217.91587" y="90.87724" width="6.05926" height="6.05691"/><rect class="cls-6" x="217.91587" y="84.81797" width="6.05926" height="6.05926"/><rect class="cls-6" x="217.91587" y="78.75871" width="6.05926" height="6.05926"/><rect class="cls-1" x="217.91587" y="66.64252" width="6.05926" height="6.05926"/><rect class="cls-7" x="217.91587" y="60.58326" width="6.05926" height="6.05926"/><rect class="cls-2" x="217.91587" y="54.52634" width="6.05926" height="6.05692"/><rect class="cls-2" x="217.91587" y="48.46708" width="6.05926" height="6.05926"/><rect class="cls-3" x="217.91587" y="42.40781" width="6.05926" height="6.05926"/><rect class="cls-3" x="217.91587" y="36.35089" width="6.05926" height="6.05692"/><rect class="cls-3" x="217.91587" y="30.29163" width="6.05926" height="6.05926"/><rect class="cls-3" x="217.91587" y="24.23471" width="6.05926" height="6.05692"/><rect class="cls-3" x="217.91587" y="18.17545" width="6.05926" height="6.05926"/><rect class="cls-8" x="217.91587" y="12.11618" width="6.05926" height="6.05926"/><rect class="cls-2" x="217.91587" y="6.05926" width="6.05926" height="6.05692"/><rect class="cls-3" x="217.91587" width="6.05926" height="6.05926"/><rect class="cls-9" x="211.85896" y="121.16887" width="6.05691" height="6.05691"/><rect class="cls-9" x="211.85896" y="115.1096" width="6.05691" height="6.05926"/><rect class="cls-9" x="211.85896" y="109.05268" width="6.05691" height="6.05691"/><rect class="cls-9" x="211.85896" y="102.99342" width="6.05691" height="6.05926"/><rect class="cls-9" x="211.85896" y="96.93415" width="6.05691" height="6.05926"/><rect class="cls-9" x="211.85896" y="90.87724" width="6.05691" height="6.05691"/><rect class="cls-10" x="211.85896" y="84.81797" width="6.05691" height="6.05926"/><rect class="cls-10" x="211.85896" y="78.75871" width="6.05691" height="6.05926"/><rect class="cls-10" x="211.85896" y="72.70179" width="6.05691" height="6.05691"/><rect class="cls-11" x="211.85896" y="66.64252" width="6.05691" height="6.05926"/><rect class="cls-3" x="211.85896" y="60.58326" width="6.05691" height="6.05926"/><rect class="cls-3" x="211.85896" y="54.52634" width="6.05691" height="6.05692"/><rect class="cls-3" x="211.85896" y="48.46708" width="6.05691" height="6.05926"/><rect class="cls-3" x="211.85896" y="42.40781" width="6.05691" height="6.05926"/><rect class="cls-3" x="211.85896" y="36.35089" width="6.05691" height="6.05692"/><rect class="cls-3" x="211.85896" y="30.29163" width="6.05691" height="6.05926"/><rect class="cls-3" x="211.85896" y="24.23471" width="6.05691" height="6.05692"/><rect class="cls-3" x="211.85896" y="18.17545" width="6.05691" height="6.05926"/><rect class="cls-2" x="211.85896" y="12.11618" width="6.05691" height="6.05926"/><rect class="cls-3" x="211.85896" y="6.05926" width="6.05691" height="6.05692"/><rect class="cls-12" x="211.85896" width="6.05691" height="6.05926"/><rect class="cls-13" x="205.79969" y="163.57668" width="6.05927" height="6.05926"/><rect class="cls-14" x="205.79969" y="157.51975" width="6.05927" height="6.05691"/><rect class="cls-14" x="205.79969" y="151.46049" width="6.05927" height="6.05929"/><rect class="cls-13" x="205.79969" y="145.40122" width="6.05927" height="6.05926"/><rect class="cls-6" x="205.79969" y="139.34431" width="6.05927" height="6.05691"/><rect class="cls-15" x="205.79969" y="133.28504" width="6.05927" height="6.05926"/><rect class="cls-15" x="205.79969" y="127.22578" width="6.05927" height="6.05926"/><rect class="cls-15" x="205.79969" y="121.16887" width="6.05927" height="6.05691"/><rect class="cls-16" x="205.79969" y="115.1096" width="6.05927" height="6.05926"/><rect class="cls-16" x="205.79969" y="109.05268" width="6.05927" height="6.05691"/><rect class="cls-15" x="205.79969" y="102.99342" width="6.05927" height="6.05926"/><rect class="cls-15" x="205.79969" y="96.93415" width="6.05927" height="6.05926"/><rect class="cls-15" x="205.79969" y="90.87724" width="6.05927" height="6.05691"/><rect class="cls-6" x="205.79969" y="84.81797" width="6.05927" height="6.05926"/><rect class="cls-10" x="205.79969" y="78.75871" width="6.05927" height="6.05926"/><rect class="cls-11" x="205.79969" y="72.70179" width="6.05927" height="6.05691"/><rect class="cls-3" x="205.79969" y="66.64252" width="6.05927" height="6.05926"/><rect class="cls-3" x="205.79969" y="60.58326" width="6.05927" height="6.05926"/><rect class="cls-3" x="205.79969" y="54.52634" width="6.05927" height="6.05692"/><rect class="cls-3" x="205.79969" y="48.46708" width="6.05927" height="6.05926"/><rect class="cls-2" x="205.79969" y="42.40781" width="6.05927" height="6.05926"/><rect class="cls-2" x="205.79969" y="36.35089" width="6.05927" height="6.05692"/><rect class="cls-3" x="205.79969" y="30.29163" width="6.05927" height="6.05926"/><rect class="cls-3" x="205.79969" y="24.23471" width="6.05927" height="6.05692"/><rect class="cls-17" x="205.79969" y="18.17545" width="6.05927" height="6.05926"/><rect class="cls-3" x="205.79969" y="12.11618" width="6.05927" height="6.05926"/><rect class="cls-3" x="205.79969" y="6.05926" width="6.05927" height="6.05692"/><rect class="cls-18" x="199.74042" y="163.57668" width="6.05926" height="6.05926"/><rect class="cls-19" x="199.74042" y="157.51975" width="6.05926" height="6.05691"/><rect class="cls-18" x="199.74042" y="151.46049" width="6.05926" height="6.05929"/><rect class="cls-18" x="199.74042" y="145.40122" width="6.05926" height="6.05926"/><rect class="cls-10" x="199.74042" y="139.34431" width="6.05926" height="6.05691"/><rect class="cls-6" x="199.74042" y="133.28504" width="6.05926" height="6.05926"/><rect class="cls-15" x="199.74042" y="127.22578" width="6.05926" height="6.05926"/><rect class="cls-9" x="199.74042" y="121.16887" width="6.05926" height="6.05691"/><rect class="cls-19" x="199.74042" y="115.1096" width="6.05926" height="6.05926"/><rect class="cls-6" x="199.74042" y="109.05268" width="6.05926" height="6.05691"/><rect class="cls-6" x="199.74042" y="102.99342" width="6.05926" height="6.05926"/><rect class="cls-20" x="199.74042" y="96.93415" width="6.05926" height="6.05926"/><rect class="cls-20" x="199.74042" y="90.87724" width="6.05926" height="6.05691"/><rect class="cls-6" x="199.74042" y="84.81797" width="6.05926" height="6.05926"/><rect class="cls-6" x="199.74042" y="78.75871" width="6.05926" height="6.05926"/><rect class="cls-3" x="199.74042" y="72.70179" width="6.05926" height="6.05691"/><rect class="cls-3" x="199.74042" y="66.64252" width="6.05926" height="6.05926"/><rect class="cls-3" x="199.74042" y="60.58326" width="6.05926" height="6.05926"/><rect class="cls-2" x="199.74042" y="54.52634" width="6.05926" height="6.05692"/><rect class="cls-2" x="199.74042" y="48.46708" width="6.05926" height="6.05926"/><rect class="cls-3" x="199.74042" y="42.40781" width="6.05926" height="6.05926"/><rect class="cls-3" x="199.74042" y="36.35089" width="6.05926" height="6.05692"/><rect class="cls-3" x="199.74042" y="30.29163" width="6.05926" height="6.05926"/><rect class="cls-17" x="199.74042" y="24.23471" width="6.05926" height="6.05692"/><rect class="cls-3" x="199.74042" y="18.17545" width="6.05926" height="6.05926"/><rect class="cls-2" x="199.74042" y="12.11618" width="6.05926" height="6.05926"/><rect class="cls-3" x="199.74042" y="6.05926" width="6.05926" height="6.05692"/><rect class="cls-2" x="199.74042" width="6.05926" height="6.05926"/><rect class="cls-18" x="193.68351" y="163.57668" width="6.05692" height="6.05926"/><rect class="cls-19" x="193.68351" y="157.51975" width="6.05692" height="6.05691"/><rect class="cls-19" x="193.68351" y="151.46049" width="6.05692" height="6.05929"/><rect class="cls-18" x="193.68351" y="145.40122" width="6.05692" height="6.05926"/><rect class="cls-10" x="193.68351" y="139.34431" width="6.05692" height="6.05691"/><rect class="cls-6" x="193.68351" y="133.28504" width="6.05692" height="6.05926"/><rect class="cls-21" x="193.68351" y="127.22578" width="6.05692" height="6.05926"/><rect class="cls-9" x="193.68351" y="121.16887" width="6.05692" height="6.05691"/><rect class="cls-9" x="193.68351" y="115.1096" width="6.05692" height="6.05926"/><rect class="cls-6" x="193.68351" y="109.05268" width="6.05692" height="6.05691"/><rect class="cls-10" x="193.68351" y="102.99342" width="6.05692" height="6.05926"/><rect class="cls-21" x="193.68351" y="96.93415" width="6.05692" height="6.05926"/><rect class="cls-20" x="193.68351" y="90.87724" width="6.05692" height="6.05691"/><rect class="cls-10" x="193.68351" y="84.81797" width="6.05692" height="6.05926"/><rect class="cls-10" x="193.68351" y="78.75871" width="6.05692" height="6.05926"/><rect class="cls-3" x="193.68351" y="72.70179" width="6.05692" height="6.05691"/><rect class="cls-11" x="193.68351" y="66.64252" width="6.05692" height="6.05926"/><rect class="cls-2" x="193.68351" y="60.58326" width="6.05692" height="6.05926"/><rect class="cls-2" x="193.68351" y="54.52634" width="6.05692" height="6.05692"/><rect class="cls-3" x="193.68351" y="48.46708" width="6.05692" height="6.05926"/><rect class="cls-3" x="193.68351" y="42.40781" width="6.05692" height="6.05926"/><rect class="cls-3" x="193.68351" y="36.35089" width="6.05692" height="6.05692"/><rect class="cls-21" x="193.68351" y="30.29163" width="6.05692" height="6.05926"/><rect class="cls-3" x="193.68351" y="24.23471" width="6.05692" height="6.05692"/><rect class="cls-2" x="193.68351" y="18.17545" width="6.05692" height="6.05926"/><rect class="cls-2" x="193.68351" y="12.11618" width="6.05692" height="6.05926"/><rect class="cls-2" x="193.68351" y="6.05926" width="6.05692" height="6.05692"/><rect class="cls-3" x="193.68351" width="6.05692" height="6.05926"/><rect class="cls-21" x="187.62424" y="133.28504" width="6.05926" height="6.05926"/><rect class="cls-16" x="187.62424" y="127.22578" width="6.05926" height="6.05926"/><rect class="cls-21" x="187.62424" y="121.16887" width="6.05926" height="6.05691"/><rect class="cls-6" x="187.62424" y="115.1096" width="6.05926" height="6.05926"/><rect class="cls-10" x="187.62424" y="109.05268" width="6.05926" height="6.05691"/><rect class="cls-10" x="187.62424" y="102.99342" width="6.05926" height="6.05926"/><rect class="cls-6" x="187.62424" y="96.93415" width="6.05926" height="6.05926"/><rect class="cls-21" x="187.62424" y="90.87724" width="6.05926" height="6.05691"/><rect class="cls-20" x="187.62424" y="84.81797" width="6.05926" height="6.05926"/><rect class="cls-6" x="187.62424" y="78.75871" width="6.05926" height="6.05926"/><rect class="cls-11" x="187.62424" y="72.70179" width="6.05926" height="6.05691"/><rect class="cls-11" x="187.62424" y="66.64252" width="6.05926" height="6.05926"/><rect class="cls-15" x="187.62424" y="60.58326" width="6.05926" height="6.05926"/><rect class="cls-6" x="187.62424" y="54.52634" width="6.05926" height="6.05692"/><rect class="cls-6" x="187.62424" y="48.46708" width="6.05926" height="6.05926"/><rect class="cls-6" x="187.62424" y="42.40781" width="6.05926" height="6.05926"/><rect class="cls-15" x="187.62424" y="36.35089" width="6.05926" height="6.05692"/><rect class="cls-3" x="187.62424" y="30.29163" width="6.05926" height="6.05926"/><rect class="cls-3" x="187.62424" y="24.23471" width="6.05926" height="6.05692"/><rect class="cls-2" x="187.62424" y="18.17545" width="6.05926" height="6.05926"/><rect class="cls-2" x="187.62424" y="12.11618" width="6.05926" height="6.05926"/><rect class="cls-2" x="187.62424" y="6.05926" width="6.05926" height="6.05692"/><rect class="cls-2" x="187.62424" width="6.05926" height="6.05926"/><rect class="cls-13" x="181.56732" y="163.57668" width="6.05692" height="6.05926"/><rect class="cls-14" x="181.56732" y="157.51975" width="6.05692" height="6.05691"/><rect class="cls-14" x="181.56732" y="151.46049" width="6.05692" height="6.05929"/><rect class="cls-13" x="181.56732" y="145.40122" width="6.05692" height="6.05926"/><rect class="cls-15" x="181.56732" y="139.34431" width="6.05692" height="6.05691"/><rect class="cls-16" x="181.56732" y="133.28504" width="6.05692" height="6.05926"/><rect class="cls-21" x="181.56732" y="127.22578" width="6.05692" height="6.05926"/><rect class="cls-16" x="181.56732" y="121.16887" width="6.05692" height="6.05691"/><rect class="cls-10" x="181.56732" y="115.1096" width="6.05692" height="6.05926"/><rect class="cls-10" x="181.56732" y="109.05268" width="6.05692" height="6.05691"/><rect class="cls-10" x="181.56732" y="102.99342" width="6.05692" height="6.05926"/><rect class="cls-6" x="181.56732" y="96.93415" width="6.05692" height="6.05926"/><rect class="cls-21" x="181.56732" y="90.87724" width="6.05692" height="6.05691"/><rect class="cls-21" x="181.56732" y="84.81797" width="6.05692" height="6.05926"/><rect class="cls-22" x="181.56732" y="78.75871" width="6.05692" height="6.05926"/><rect class="cls-23" x="181.56732" y="72.70179" width="6.05692" height="6.05691"/><rect class="cls-10" x="181.56732" y="66.64252" width="6.05692" height="6.05926"/><rect class="cls-6" x="181.56732" y="60.58326" width="6.05692" height="6.05926"/><rect class="cls-10" x="181.56732" y="54.52634" width="6.05692" height="6.05692"/><rect class="cls-10" x="181.56732" y="48.46708" width="6.05692" height="6.05926"/><rect class="cls-10" x="181.56732" y="42.40781" width="6.05692" height="6.05926"/><rect class="cls-10" x="181.56732" y="36.35089" width="6.05692" height="6.05692"/><rect class="cls-3" x="181.56732" y="30.29163" width="6.05692" height="6.05926"/><rect class="cls-2" x="181.56732" y="24.23471" width="6.05692" height="6.05692"/><rect class="cls-21" x="181.56732" y="18.17545" width="6.05692" height="6.05926"/><rect class="cls-17" x="181.56732" y="12.11618" width="6.05692" height="6.05926"/><rect class="cls-17" x="181.56732" y="6.05926" width="6.05692" height="6.05692"/><rect class="cls-3" x="181.56732" width="6.05692" height="6.05926"/><rect class="cls-18" x="175.50806" y="163.57668" width="6.05927" height="6.05926"/><rect class="cls-19" x="175.50806" y="157.51975" width="6.05927" height="6.05691"/><rect class="cls-18" x="175.50806" y="151.46049" width="6.05927" height="6.05929"/><rect class="cls-18" x="175.50806" y="145.40122" width="6.05927" height="6.05926"/><rect class="cls-6" x="175.50806" y="139.34431" width="6.05927" height="6.05691"/><rect class="cls-15" x="175.50806" y="133.28504" width="6.05927" height="6.05926"/><rect class="cls-21" x="175.50806" y="127.22578" width="6.05927" height="6.05926"/><rect class="cls-21" x="175.50806" y="121.16887" width="6.05927" height="6.05691"/><rect class="cls-9" x="175.50806" y="115.1096" width="6.05927" height="6.05926"/><rect class="cls-10" x="175.50806" y="109.05268" width="6.05927" height="6.05691"/><rect class="cls-10" x="175.50806" y="102.99342" width="6.05927" height="6.05926"/><rect class="cls-20" x="175.50806" y="96.93415" width="6.05927" height="6.05926"/><rect class="cls-21" x="175.50806" y="90.87724" width="6.05927" height="6.05691"/><rect class="cls-10" x="175.50806" y="84.81797" width="6.05927" height="6.05926"/><rect class="cls-6" x="175.50806" y="78.75871" width="6.05927" height="6.05926"/><rect class="cls-11" x="175.50806" y="72.70179" width="6.05927" height="6.05691"/><rect class="cls-11" x="175.50806" y="66.64252" width="6.05927" height="6.05926"/><rect class="cls-10" x="175.50806" y="60.58326" width="6.05927" height="6.05926"/><rect class="cls-10" x="175.50806" y="54.52634" width="6.05927" height="6.05692"/><rect class="cls-10" x="175.50806" y="48.46708" width="6.05927" height="6.05926"/><rect class="cls-24" x="175.50806" y="42.40781" width="6.05927" height="6.05926"/><rect class="cls-14" x="175.50806" y="36.35089" width="6.05927" height="6.05692"/><rect class="cls-20" x="175.50806" y="30.29163" width="6.05927" height="6.05926"/><rect class="cls-3" x="175.50806" y="24.23471" width="6.05927" height="6.05692"/><rect class="cls-17" x="175.50806" y="18.17545" width="6.05927" height="6.05926"/><rect class="cls-2" x="175.50806" y="12.11618" width="6.05927" height="6.05926"/><rect class="cls-3" x="175.50806" y="6.05926" width="6.05927" height="6.05692"/><rect class="cls-3" x="175.50806" width="6.05927" height="6.05926"/><rect class="cls-18" x="169.44879" y="163.57668" width="6.05926" height="6.05926"/><rect class="cls-19" x="169.44879" y="157.51975" width="6.05926" height="6.05691"/><rect class="cls-19" x="169.44879" y="151.46049" width="6.05926" height="6.05929"/><rect class="cls-18" x="169.44879" y="145.40122" width="6.05926" height="6.05926"/><rect class="cls-10" x="169.44879" y="139.34431" width="6.05926" height="6.05691"/><rect class="cls-10" x="169.44879" y="133.28504" width="6.05926" height="6.05926"/><rect class="cls-6" x="169.44879" y="127.22578" width="6.05926" height="6.05926"/><rect class="cls-9" x="169.44879" y="121.16887" width="6.05926" height="6.05691"/><rect class="cls-19" x="169.44879" y="115.1096" width="6.05926" height="6.05926"/><rect class="cls-10" x="169.44879" y="109.05268" width="6.05926" height="6.05691"/><rect class="cls-10" x="169.44879" y="102.99342" width="6.05926" height="6.05926"/><rect class="cls-21" x="169.44879" y="96.93415" width="6.05926" height="6.05926"/><rect class="cls-21" x="169.44879" y="90.87724" width="6.05926" height="6.05691"/><rect class="cls-10" x="169.44879" y="84.81797" width="6.05926" height="6.05926"/><rect class="cls-10" x="169.44879" y="78.75871" width="6.05926" height="6.05926"/><rect class="cls-11" x="169.44879" y="72.70179" width="6.05926" height="6.05691"/><rect class="cls-11" x="169.44879" y="66.64252" width="6.05926" height="6.05926"/><rect class="cls-6" x="169.44879" y="60.58326" width="6.05926" height="6.05926"/><rect class="cls-10" x="169.44879" y="54.52634" width="6.05926" height="6.05692"/><rect class="cls-10" x="169.44879" y="48.46708" width="6.05926" height="6.05926"/><rect class="cls-25" x="169.44879" y="42.40781" width="6.05926" height="6.05926"/><rect class="cls-26" x="169.44879" y="36.35089" width="6.05926" height="6.05692"/><rect class="cls-20" x="169.44879" y="30.29163" width="6.05926" height="6.05926"/><rect class="cls-3" x="169.44879" y="24.23471" width="6.05926" height="6.05692"/><rect class="cls-17" x="169.44879" y="18.17545" width="6.05926" height="6.05926"/><rect class="cls-3" x="169.44879" y="12.11618" width="6.05926" height="6.05926"/><rect class="cls-17" x="169.44879" y="6.05926" width="6.05926" height="6.05692"/><rect class="cls-2" x="169.44879" width="6.05926" height="6.05926"/><rect class="cls-5" x="163.39188" y="121.16887" width="6.05692" height="6.05691"/><rect class="cls-5" x="163.39188" y="115.1096" width="6.05692" height="6.05926"/><rect class="cls-5" x="163.39188" y="109.05268" width="6.05692" height="6.05691"/><rect class="cls-5" x="163.39188" y="102.99342" width="6.05692" height="6.05926"/><rect class="cls-5" x="163.39188" y="96.93415" width="6.05692" height="6.05926"/><rect class="cls-5" x="163.39188" y="90.87724" width="6.05692" height="6.05691"/><rect class="cls-15" x="163.39188" y="84.81797" width="6.05692" height="6.05926"/><rect class="cls-15" x="163.39188" y="78.75871" width="6.05692" height="6.05926"/><rect class="cls-6" x="163.39188" y="72.70179" width="6.05692" height="6.05691"/><rect class="cls-11" x="163.39188" y="66.64252" width="6.05692" height="6.05926"/><rect class="cls-1" x="163.39188" y="60.58326" width="6.05692" height="6.05926"/><rect class="cls-10" x="163.39188" y="54.52634" width="6.05692" height="6.05692"/><rect class="cls-10" x="163.39188" y="48.46708" width="6.05692" height="6.05926"/><rect class="cls-10" x="163.39188" y="42.40781" width="6.05692" height="6.05926"/><rect class="cls-10" x="163.39188" y="36.35089" width="6.05692" height="6.05692"/><rect class="cls-6" x="163.39188" y="30.29163" width="6.05692" height="6.05926"/><rect class="cls-21" x="163.39188" y="24.23471" width="6.05692" height="6.05692"/><rect class="cls-3" x="163.39188" y="18.17545" width="6.05692" height="6.05926"/><rect class="cls-21" x="163.39188" y="12.11618" width="6.05692" height="6.05926"/><rect class="cls-2" x="163.39188" y="6.05926" width="6.05692" height="6.05692"/><rect class="cls-12" x="163.39188" width="6.05692" height="6.05926"/><rect class="cls-9" x="157.33261" y="121.16887" width="6.05926" height="6.05691"/><rect class="cls-9" x="157.33261" y="115.1096" width="6.05926" height="6.05926"/><rect class="cls-9" x="157.33261" y="109.05268" width="6.05926" height="6.05691"/><rect class="cls-9" x="157.33261" y="102.99342" width="6.05926" height="6.05926"/><rect class="cls-9" x="157.33261" y="96.93415" width="6.05926" height="6.05926"/><rect class="cls-9" x="157.33261" y="90.87724" width="6.05926" height="6.05691"/><rect class="cls-10" x="157.33261" y="84.81797" width="6.05926" height="6.05926"/><rect class="cls-10" x="157.33261" y="78.75871" width="6.05926" height="6.05926"/><rect class="cls-1" x="157.33261" y="66.64252" width="6.05926" height="6.05926"/><rect class="cls-7" x="157.33261" y="60.58326" width="6.05926" height="6.05926"/><rect class="cls-10" x="157.33261" y="48.46708" width="6.05926" height="6.05926"/><rect class="cls-10" x="157.33261" y="42.40781" width="6.05926" height="6.05926"/><rect class="cls-10" x="157.33261" y="36.35089" width="6.05926" height="6.05692"/><rect class="cls-10" x="157.33261" y="30.29163" width="6.05926" height="6.05926"/><rect class="cls-3" x="157.33261" y="24.23471" width="6.05926" height="6.05692"/><rect class="cls-17" x="157.33261" y="18.17545" width="6.05926" height="6.05926"/><rect class="cls-2" x="157.33261" y="12.11618" width="6.05926" height="6.05926"/><rect class="cls-27" x="157.33261" y="6.05926" width="6.05926" height="6.05692"/><rect class="cls-1" x="151.27335" y="60.58326" width="6.05926" height="6.05926"/><rect class="cls-2" x="151.27335" y="24.23471" width="6.05926" height="6.05692"/><rect class="cls-2" x="151.27335" y="18.17545" width="6.05926" height="6.05926"/><rect class="cls-12" x="151.27335" y="12.11618" width="6.05926" height="6.05926"/></g></g><g id="Layer_2-3" data-name="Layer 2"><g id="grid-2" data-name="grid"><rect class="cls-28" x="69.97779" y="128.74664" width="6.36251" height="6.36251"/><rect class="cls-14" x="69.97779" y="122.38413" width="6.36251" height="6.36251"/><rect class="cls-28" x="69.97779" y="116.02408" width="6.36251" height="6.36005"/><rect class="cls-29" x="69.97779" y="84.21397" width="6.36251" height="6.36251"/><rect class="cls-29" x="69.97779" y="77.85393" width="6.36251" height="6.36005"/><rect class="cls-30" x="69.97779" y="71.49141" width="6.36251" height="6.36251"/><rect class="cls-31" x="69.97779" y="65.13136" width="6.36251" height="6.36005"/><rect class="cls-31" x="69.97779" y="58.76885" width="6.36251" height="6.36251"/><rect class="cls-32" x="63.61528" y="154.19423" width="6.36251" height="6.36005"/><rect class="cls-32" x="63.61528" y="147.83171" width="6.36251" height="6.36251"/><rect class="cls-32" x="63.61528" y="141.4692" width="6.36251" height="6.36251"/><rect class="cls-33" x="63.61528" y="135.10916" width="6.36251" height="6.36005"/><rect class="cls-34" x="63.61528" y="128.74664" width="6.36251" height="6.36251"/><rect class="cls-34" x="63.61528" y="122.38413" width="6.36251" height="6.36251"/><rect class="cls-34" x="63.61528" y="116.02408" width="6.36251" height="6.36005"/><rect class="cls-33" x="63.61528" y="109.66156" width="6.36251" height="6.36251"/><rect class="cls-29" x="63.61528" y="90.57649" width="6.36251" height="6.36252"/><rect class="cls-30" x="63.61528" y="84.21397" width="6.36251" height="6.36251"/><rect class="cls-35" x="63.61528" y="77.85393" width="6.36251" height="6.36005"/><rect class="cls-29" x="63.61528" y="71.49141" width="6.36251" height="6.36251"/><rect class="cls-36" x="63.61528" y="65.13136" width="6.36251" height="6.36005"/><rect class="cls-28" x="63.61528" y="58.76885" width="6.36251" height="6.36251"/><rect class="cls-36" x="63.61528" y="52.40634" width="6.36251" height="6.36251"/><rect class="cls-37" x="63.61528" y="46.04629" width="6.36251" height="6.36005"/><rect class="cls-38" x="57.25523" y="154.19423" width="6.36005" height="6.36005"/><rect class="cls-38" x="57.25523" y="147.83171" width="6.36005" height="6.36251"/><rect class="cls-39" x="57.25523" y="141.4692" width="6.36005" height="6.36251"/><rect class="cls-28" x="57.25523" y="135.10916" width="6.36005" height="6.36005"/><rect class="cls-33" x="57.25523" y="128.74664" width="6.36005" height="6.36251"/><rect class="cls-28" x="57.25523" y="122.38413" width="6.36005" height="6.36251"/><rect class="cls-28" x="57.25523" y="116.02408" width="6.36005" height="6.36005"/><rect class="cls-34" x="57.25523" y="109.66156" width="6.36005" height="6.36251"/><rect class="cls-32" x="57.25523" y="103.29905" width="6.36005" height="6.36251"/><rect class="cls-29" x="57.25523" y="96.939" width="6.36005" height="6.36005"/><rect class="cls-29" x="57.25523" y="90.57649" width="6.36005" height="6.36252"/><rect class="cls-35" x="57.25523" y="84.21397" width="6.36005" height="6.36251"/><rect class="cls-36" x="57.25523" y="77.85393" width="6.36005" height="6.36005"/><rect class="cls-36" x="57.25523" y="71.49141" width="6.36005" height="6.36251"/><rect class="cls-28" x="57.25523" y="65.13136" width="6.36005" height="6.36005"/><rect class="cls-36" x="57.25523" y="58.76885" width="6.36005" height="6.36251"/><rect class="cls-37" x="57.25523" y="52.40634" width="6.36005" height="6.36251"/><rect class="cls-29" x="57.25523" y="46.04629" width="6.36005" height="6.36005"/><rect class="cls-33" x="50.89271" y="166.91679" width="6.36251" height="6.36005"/><rect class="cls-33" x="50.89271" y="160.55428" width="6.36251" height="6.36251"/><rect class="cls-33" x="50.89271" y="154.19423" width="6.36251" height="6.36005"/><rect class="cls-39" x="50.89271" y="147.83171" width="6.36251" height="6.36251"/><rect class="cls-28" x="50.89271" y="141.4692" width="6.36251" height="6.36251"/><rect class="cls-33" x="50.89271" y="135.10916" width="6.36251" height="6.36005"/><rect class="cls-40" x="50.89271" y="128.74664" width="6.36251" height="6.36251"/><rect class="cls-41" x="50.89271" y="122.38413" width="6.36251" height="6.36251"/><rect class="cls-28" x="50.89271" y="116.02408" width="6.36251" height="6.36005"/><rect class="cls-32" x="50.89271" y="109.66156" width="6.36251" height="6.36251"/><rect class="cls-42" x="50.89271" y="103.29905" width="6.36251" height="6.36251"/><rect class="cls-35" x="50.89271" y="96.939" width="6.36251" height="6.36005"/><rect class="cls-29" x="50.89271" y="90.57649" width="6.36251" height="6.36252"/><rect class="cls-28" x="50.89271" y="84.21397" width="6.36251" height="6.36251"/><rect class="cls-33" x="50.89271" y="77.85393" width="6.36251" height="6.36005"/><rect class="cls-28" x="50.89271" y="71.49141" width="6.36251" height="6.36251"/><rect class="cls-37" x="50.89271" y="65.13136" width="6.36251" height="6.36005"/><rect class="cls-29" x="50.89271" y="58.76885" width="6.36251" height="6.36251"/><rect class="cls-29" x="50.89271" y="52.40634" width="6.36251" height="6.36251"/><rect class="cls-31" x="50.89271" y="46.04629" width="6.36251" height="6.36005"/><rect class="cls-36" x="44.5302" y="166.91679" width="6.36251" height="6.36005"/><rect class="cls-28" x="44.5302" y="160.55428" width="6.36251" height="6.36251"/><rect class="cls-33" x="44.5302" y="154.19423" width="6.36251" height="6.36005"/><rect class="cls-28" x="44.5302" y="147.83171" width="6.36251" height="6.36251"/><rect class="cls-33" x="44.5302" y="141.4692" width="6.36251" height="6.36251"/><rect class="cls-36" x="44.5302" y="135.10916" width="6.36251" height="6.36005"/><rect class="cls-43" x="44.5302" y="128.74664" width="6.36251" height="6.36251"/><rect class="cls-40" x="44.5302" y="122.38413" width="6.36251" height="6.36251"/><rect class="cls-34" x="44.5302" y="116.02408" width="6.36251" height="6.36005"/><rect class="cls-42" x="44.5302" y="109.66156" width="6.36251" height="6.36251"/><rect class="cls-44" x="44.5302" y="103.29905" width="6.36251" height="6.36251"/><rect class="cls-44" x="44.5302" y="96.939" width="6.36251" height="6.36005"/><rect class="cls-44" x="44.5302" y="90.57649" width="6.36251" height="6.36252"/><rect class="cls-33" x="44.5302" y="84.21397" width="6.36251" height="6.36251"/><rect class="cls-33" x="44.5302" y="77.85393" width="6.36251" height="6.36005"/><rect class="cls-28" x="44.5302" y="71.49141" width="6.36251" height="6.36251"/><rect class="cls-29" x="44.5302" y="65.13136" width="6.36251" height="6.36005"/><rect class="cls-30" x="44.5302" y="58.76885" width="6.36251" height="6.36251"/><rect class="cls-30" x="44.5302" y="52.40634" width="6.36251" height="6.36251"/><rect class="cls-37" x="38.17015" y="166.91679" width="6.36005" height="6.36005"/><rect class="cls-28" x="38.17015" y="160.55428" width="6.36005" height="6.36251"/><rect class="cls-45" x="38.17015" y="154.19423" width="6.36005" height="6.36005"/><rect class="cls-33" x="38.17015" y="147.83171" width="6.36005" height="6.36251"/><rect class="cls-40" x="38.17015" y="141.4692" width="6.36005" height="6.36251"/><rect class="cls-28" x="38.17015" y="135.10916" width="6.36005" height="6.36005"/><rect class="cls-41" x="38.17015" y="128.74664" width="6.36005" height="6.36251"/><rect class="cls-34" x="38.17015" y="122.38413" width="6.36005" height="6.36251"/><rect class="cls-32" x="38.17015" y="116.02408" width="6.36005" height="6.36005"/><rect class="cls-42" x="38.17015" y="109.66156" width="6.36005" height="6.36251"/><rect class="cls-44" x="38.17015" y="103.29905" width="6.36005" height="6.36251"/><rect class="cls-46" x="38.17015" y="96.939" width="6.36005" height="6.36005"/><rect class="cls-46" x="38.17015" y="90.57649" width="6.36005" height="6.36252"/><rect class="cls-46" x="38.17015" y="84.21397" width="6.36005" height="6.36251"/><rect class="cls-28" x="38.17015" y="77.85393" width="6.36005" height="6.36005"/><rect class="cls-29" x="38.17015" y="71.49141" width="6.36005" height="6.36251"/><rect class="cls-30" x="38.17015" y="65.13136" width="6.36005" height="6.36005"/><rect class="cls-31" x="38.17015" y="58.76885" width="6.36005" height="6.36251"/><rect class="cls-31" x="38.17015" y="52.40634" width="6.36005" height="6.36251"/><rect class="cls-31" x="38.17015" y="46.04629" width="6.36005" height="6.36005"/><rect class="cls-33" x="31.80764" y="160.55428" width="6.36251" height="6.36251"/><rect class="cls-33" x="31.80764" y="154.19423" width="6.36251" height="6.36005"/><rect class="cls-33" x="31.80764" y="147.83171" width="6.36251" height="6.36251"/><rect class="cls-40" x="31.80764" y="141.4692" width="6.36251" height="6.36251"/><rect class="cls-40" x="31.80764" y="135.10916" width="6.36251" height="6.36005"/><rect class="cls-34" x="31.80764" y="128.74664" width="6.36251" height="6.36251"/><rect class="cls-34" x="31.80764" y="122.38413" width="6.36251" height="6.36251"/><rect class="cls-32" x="31.80764" y="116.02408" width="6.36251" height="6.36005"/><rect class="cls-42" x="31.80764" y="109.66156" width="6.36251" height="6.36251"/><rect class="cls-46" x="31.80764" y="103.29905" width="6.36251" height="6.36251"/><rect class="cls-47" x="31.80764" y="96.939" width="6.36251" height="6.36005"/><rect class="cls-41" x="31.80764" y="90.57649" width="6.36251" height="6.36252"/><rect class="cls-48" x="31.80764" y="84.21397" width="6.36251" height="6.36251"/><rect class="cls-28" x="31.80764" y="77.85393" width="6.36251" height="6.36005"/><rect class="cls-29" x="31.80764" y="71.49141" width="6.36251" height="6.36251"/><rect class="cls-29" x="31.80764" y="65.13136" width="6.36251" height="6.36005"/><rect class="cls-30" x="31.80764" y="58.76885" width="6.36251" height="6.36251"/><rect class="cls-30" x="31.80764" y="52.40634" width="6.36251" height="6.36251"/><rect class="cls-31" x="31.80764" y="46.04629" width="6.36251" height="6.36005"/><rect class="cls-28" x="25.44759" y="160.55428" width="6.36005" height="6.36251"/><rect class="cls-45" x="25.44759" y="154.19423" width="6.36005" height="6.36005"/><rect class="cls-39" x="25.44759" y="147.83171" width="6.36005" height="6.36251"/><rect class="cls-33" x="25.44759" y="141.4692" width="6.36005" height="6.36251"/><rect class="cls-28" x="25.44759" y="135.10916" width="6.36005" height="6.36005"/><rect class="cls-28" x="25.44759" y="128.74664" width="6.36005" height="6.36251"/><rect class="cls-34" x="25.44759" y="122.38413" width="6.36005" height="6.36251"/><rect class="cls-32" x="25.44759" y="116.02408" width="6.36005" height="6.36005"/><rect class="cls-44" x="25.44759" y="109.66156" width="6.36005" height="6.36251"/><rect class="cls-46" x="25.44759" y="103.29905" width="6.36005" height="6.36251"/><rect class="cls-49" x="25.44759" y="96.939" width="6.36005" height="6.36005"/><rect class="cls-50" x="25.44759" y="90.57649" width="6.36005" height="6.36252"/><rect class="cls-48" x="25.44759" y="84.21397" width="6.36005" height="6.36251"/><rect class="cls-28" x="25.44759" y="77.85393" width="6.36005" height="6.36005"/><rect class="cls-29" x="25.44759" y="71.49141" width="6.36005" height="6.36251"/><rect class="cls-30" x="25.44759" y="65.13136" width="6.36005" height="6.36005"/><rect class="cls-31" x="25.44759" y="58.76885" width="6.36005" height="6.36251"/><rect class="cls-30" x="25.44759" y="52.40634" width="6.36005" height="6.36251"/><rect class="cls-31" x="25.44759" y="46.04629" width="6.36005" height="6.36005"/><rect class="cls-33" x="25.44759" y="39.68377" width="6.36005" height="6.36251"/><rect class="cls-33" x="25.44759" y="33.32126" width="6.36005" height="6.36251"/><rect class="cls-14" x="19.08508" y="160.55428" width="6.36251" height="6.36251"/><rect class="cls-28" x="19.08508" y="154.19423" width="6.36251" height="6.36005"/><rect class="cls-45" x="19.08508" y="147.83171" width="6.36251" height="6.36251"/><rect class="cls-39" x="19.08508" y="141.4692" width="6.36251" height="6.36251"/><rect class="cls-28" x="19.08508" y="135.10916" width="6.36251" height="6.36005"/><rect class="cls-28" x="19.08508" y="128.74664" width="6.36251" height="6.36251"/><rect class="cls-28" x="19.08508" y="122.38413" width="6.36251" height="6.36251"/><rect class="cls-33" x="19.08508" y="116.02408" width="6.36251" height="6.36005"/><rect class="cls-42" x="19.08508" y="109.66156" width="6.36251" height="6.36251"/><rect class="cls-46" x="19.08508" y="103.29905" width="6.36251" height="6.36251"/><rect class="cls-46" x="19.08508" y="96.939" width="6.36251" height="6.36005"/><rect class="cls-46" x="19.08508" y="90.57649" width="6.36251" height="6.36252"/><rect class="cls-46" x="19.08508" y="84.21397" width="6.36251" height="6.36251"/><rect class="cls-36" x="19.08508" y="77.85393" width="6.36251" height="6.36005"/><rect class="cls-29" x="19.08508" y="71.49141" width="6.36251" height="6.36251"/><rect class="cls-30" x="19.08508" y="65.13136" width="6.36251" height="6.36005"/><rect class="cls-30" x="19.08508" y="58.76885" width="6.36251" height="6.36251"/><rect class="cls-31" x="19.08508" y="52.40634" width="6.36251" height="6.36251"/><rect class="cls-31" x="19.08508" y="46.04629" width="6.36251" height="6.36005"/><rect class="cls-33" x="19.08508" y="39.68377" width="6.36251" height="6.36251"/><rect class="cls-36" x="19.08508" y="33.32126" width="6.36251" height="6.36251"/><rect class="cls-37" x="12.72256" y="141.4692" width="6.36251" height="6.36251"/><rect class="cls-39" x="12.72256" y="135.10916" width="6.36251" height="6.36005"/><rect class="cls-14" x="12.72256" y="128.74664" width="6.36251" height="6.36251"/><rect class="cls-14" x="12.72256" y="122.38413" width="6.36251" height="6.36251"/><rect class="cls-14" x="12.72256" y="116.02408" width="6.36251" height="6.36005"/><rect class="cls-32" x="12.72256" y="109.66156" width="6.36251" height="6.36251"/><rect class="cls-46" x="12.72256" y="103.29905" width="6.36251" height="6.36251"/><rect class="cls-46" x="12.72256" y="96.939" width="6.36251" height="6.36005"/><rect class="cls-46" x="12.72256" y="90.57649" width="6.36251" height="6.36252"/><rect class="cls-46" x="12.72256" y="84.21397" width="6.36251" height="6.36251"/><rect class="cls-36" x="12.72256" y="77.85393" width="6.36251" height="6.36005"/><rect class="cls-30" x="12.72256" y="71.49141" width="6.36251" height="6.36251"/><rect class="cls-29" x="12.72256" y="65.13136" width="6.36251" height="6.36005"/><rect class="cls-30" x="12.72256" y="58.76885" width="6.36251" height="6.36251"/><rect class="cls-31" x="12.72256" y="52.40634" width="6.36251" height="6.36251"/><rect class="cls-28" x="12.72256" y="46.04629" width="6.36251" height="6.36005"/><rect class="cls-36" x="12.72256" y="39.68377" width="6.36251" height="6.36251"/><rect class="cls-43" x="6.36251" y="135.10916" width="6.36005" height="6.36005"/><rect class="cls-40" x="6.36251" y="128.74664" width="6.36005" height="6.36251"/><rect class="cls-28" x="6.36251" y="122.38413" width="6.36005" height="6.36251"/><rect class="cls-28" x="6.36251" y="116.02408" width="6.36005" height="6.36005"/><rect class="cls-44" x="6.36251" y="96.939" width="6.36005" height="6.36005"/><rect class="cls-44" x="6.36251" y="90.57649" width="6.36005" height="6.36252"/><rect class="cls-36" x="6.36251" y="84.21397" width="6.36005" height="6.36251"/><rect class="cls-29" x="6.36251" y="77.85393" width="6.36005" height="6.36005"/><rect class="cls-30" x="6.36251" y="71.49141" width="6.36005" height="6.36251"/><rect class="cls-31" x="6.36251" y="65.13136" width="6.36005" height="6.36005"/><rect class="cls-31" x="6.36251" y="58.76885" width="6.36005" height="6.36251"/><rect class="cls-30" x="6.36251" y="52.40634" width="6.36005" height="6.36251"/><rect class="cls-31" y="71.49141" width="6.36251" height="6.36251"/><rect class="cls-31" y="65.13136" width="6.36251" height="6.36005"/><rect class="cls-31" y="52.40634" width="6.36251" height="6.36251"/></g></g><g id="Layer_2-4" data-name="Layer 2"><g id="grid-3" data-name="grid"><rect class="cls-51" x="355.80963" y="126.12733" width="6.48773" height="6.48521"/><rect class="cls-52" x="388.24575" y="74.23054" width="6.48521" height="6.48773"/><rect class="cls-52" x="381.75802" y="93.69121" width="6.48773" height="6.48773"/><rect class="cls-53" x="381.75802" y="67.74533" width="6.48773" height="6.48521"/><rect class="cls-53" x="381.75802" y="61.2576" width="6.48773" height="6.48773"/><rect class="cls-53" x="375.2703" y="87.20599" width="6.48773" height="6.48521"/><rect class="cls-53" x="375.2703" y="80.71827" width="6.48773" height="6.48773"/><rect class="cls-53" x="375.2703" y="74.23054" width="6.48773" height="6.48773"/><rect class="cls-53" x="375.2703" y="67.74533" width="6.48773" height="6.48521"/><rect class="cls-53" x="375.2703" y="61.2576" width="6.48773" height="6.48773"/><rect class="cls-53" x="375.2703" y="54.77239" width="6.48773" height="6.48521"/><rect class="cls-53" x="368.78508" y="100.17893" width="6.48521" height="6.48773"/><rect class="cls-53" x="368.78508" y="93.69121" width="6.48521" height="6.48773"/><rect class="cls-54" x="368.78508" y="87.20599" width="6.48521" height="6.48521"/><rect class="cls-52" x="368.78508" y="80.71827" width="6.48521" height="6.48773"/><rect class="cls-52" x="368.78508" y="74.23054" width="6.48521" height="6.48773"/><rect class="cls-52" x="368.78508" y="67.74533" width="6.48521" height="6.48521"/><rect class="cls-54" x="368.78508" y="61.2576" width="6.48521" height="6.48773"/><rect class="cls-52" x="368.78508" y="54.77239" width="6.48521" height="6.48521"/><rect class="cls-54" x="368.78508" y="48.28466" width="6.48521" height="6.48773"/><rect class="cls-53" x="368.78508" y="41.79694" width="6.48521" height="6.48773"/><rect class="cls-53" x="362.29735" y="113.15188" width="6.48773" height="6.48773"/><rect class="cls-53" x="362.29735" y="106.66666" width="6.48773" height="6.48521"/><rect class="cls-53" x="362.29735" y="100.17893" width="6.48773" height="6.48773"/><rect class="cls-52" x="362.29735" y="93.69121" width="6.48773" height="6.48773"/><rect class="cls-52" x="362.29735" y="87.20599" width="6.48773" height="6.48521"/><rect class="cls-53" x="362.29735" y="80.71827" width="6.48773" height="6.48773"/><rect class="cls-53" x="362.29735" y="74.23054" width="6.48773" height="6.48773"/><rect class="cls-52" x="362.29735" y="67.74533" width="6.48773" height="6.48521"/><rect class="cls-54" x="362.29735" y="61.2576" width="6.48773" height="6.48773"/><rect class="cls-52" x="362.29735" y="54.77239" width="6.48773" height="6.48521"/><rect class="cls-52" x="362.29735" y="48.28466" width="6.48773" height="6.48773"/><rect class="cls-53" x="362.29735" y="41.79694" width="6.48773" height="6.48773"/><rect class="cls-55" x="355.80963" y="152.0732" width="6.48773" height="6.48773"/><rect class="cls-55" x="355.80963" y="145.58799" width="6.48773" height="6.48521"/><rect class="cls-56" x="355.80963" y="139.10026" width="6.48773" height="6.48773"/><rect class="cls-56" x="355.80963" y="132.61254" width="6.48773" height="6.48773"/><rect class="cls-53" x="355.80963" y="106.66666" width="6.48773" height="6.48521"/><rect class="cls-52" x="355.80963" y="100.17893" width="6.48773" height="6.48773"/><rect class="cls-52" x="355.80963" y="93.69121" width="6.48773" height="6.48773"/><rect class="cls-53" x="355.80963" y="87.20599" width="6.48773" height="6.48521"/><rect class="cls-57" x="355.80963" y="80.71827" width="6.48773" height="6.48773"/><rect class="cls-54" x="355.80963" y="74.23054" width="6.48773" height="6.48773"/><rect class="cls-52" x="355.80963" y="67.74533" width="6.48773" height="6.48521"/><rect class="cls-54" x="355.80963" y="61.2576" width="6.48773" height="6.48773"/><rect class="cls-54" x="355.80963" y="54.77239" width="6.48773" height="6.48521"/><rect class="cls-52" x="355.80963" y="48.28466" width="6.48773" height="6.48773"/><rect class="cls-52" x="355.80963" y="41.79694" width="6.48773" height="6.48773"/><rect class="cls-53" x="355.80963" y="35.31173" width="6.48773" height="6.48521"/><rect class="cls-56" x="349.32442" y="165.04614" width="6.48521" height="6.48773"/><rect class="cls-58" x="349.32442" y="158.56093" width="6.48521" height="6.48521"/><rect class="cls-55" x="349.32442" y="152.0732" width="6.48521" height="6.48773"/><rect class="cls-55" x="349.32442" y="145.58799" width="6.48521" height="6.48521"/><rect class="cls-58" x="349.32442" y="139.10026" width="6.48521" height="6.48773"/><rect class="cls-59" x="349.32442" y="132.61254" width="6.48521" height="6.48773"/><rect class="cls-51" x="349.32442" y="126.12733" width="6.48521" height="6.48521"/><rect class="cls-60" x="349.32442" y="119.6396" width="6.48521" height="6.48773"/><rect class="cls-61" x="349.32442" y="113.15188" width="6.48521" height="6.48773"/><rect class="cls-61" x="349.32442" y="106.66666" width="6.48521" height="6.48521"/><rect class="cls-52" x="349.32442" y="100.17893" width="6.48521" height="6.48773"/><rect class="cls-53" x="349.32442" y="93.69121" width="6.48521" height="6.48773"/><rect class="cls-57" x="349.32442" y="87.20599" width="6.48521" height="6.48521"/><rect class="cls-62" x="349.32442" y="80.71827" width="6.48521" height="6.48773"/><rect class="cls-52" x="349.32442" y="74.23054" width="6.48521" height="6.48773"/><rect class="cls-52" x="349.32442" y="67.74533" width="6.48521" height="6.48521"/><rect class="cls-52" x="349.32442" y="61.2576" width="6.48521" height="6.48773"/><rect class="cls-52" x="349.32442" y="54.77239" width="6.48521" height="6.48521"/><rect class="cls-52" x="349.32442" y="48.28466" width="6.48521" height="6.48773"/><rect class="cls-52" x="349.32442" y="41.79694" width="6.48521" height="6.48773"/><rect class="cls-52" x="349.32442" y="35.31173" width="6.48521" height="6.48521"/><rect class="cls-56" x="342.83669" y="165.04614" width="6.48773" height="6.48773"/><rect class="cls-58" x="342.83669" y="158.56093" width="6.48773" height="6.48521"/><rect class="cls-55" x="342.83669" y="152.0732" width="6.48773" height="6.48773"/><rect class="cls-51" x="342.83669" y="145.58799" width="6.48773" height="6.48521"/><rect class="cls-59" x="342.83669" y="139.10026" width="6.48773" height="6.48773"/><rect class="cls-58" x="342.83669" y="132.61254" width="6.48773" height="6.48773"/><rect class="cls-55" x="342.83669" y="126.12733" width="6.48773" height="6.48521"/><rect class="cls-60" x="342.83669" y="119.6396" width="6.48773" height="6.48773"/><rect class="cls-61" x="342.83669" y="113.15188" width="6.48773" height="6.48773"/><rect class="cls-48" x="342.83669" y="106.66666" width="6.48773" height="6.48521"/><rect class="cls-48" x="342.83669" y="100.17893" width="6.48773" height="6.48773"/><rect class="cls-52" x="342.83669" y="93.69121" width="6.48773" height="6.48773"/><rect class="cls-52" x="342.83669" y="87.20599" width="6.48773" height="6.48521"/><rect class="cls-52" x="342.83669" y="80.71827" width="6.48773" height="6.48773"/><rect class="cls-52" x="342.83669" y="74.23054" width="6.48773" height="6.48773"/><rect class="cls-52" x="342.83669" y="67.74533" width="6.48773" height="6.48521"/><rect class="cls-52" x="342.83669" y="61.2576" width="6.48773" height="6.48773"/><rect class="cls-52" x="342.83669" y="54.77239" width="6.48773" height="6.48521"/><rect class="cls-53" x="342.83669" y="48.28466" width="6.48773" height="6.48773"/><rect class="cls-52" x="342.83669" y="41.79694" width="6.48773" height="6.48773"/><rect class="cls-53" x="342.83669" y="35.31173" width="6.48773" height="6.48521"/><rect class="cls-56" x="336.34896" y="165.04614" width="6.48773" height="6.48773"/><rect class="cls-58" x="336.34896" y="158.56093" width="6.48773" height="6.48521"/><rect class="cls-58" x="336.34896" y="152.0732" width="6.48773" height="6.48773"/><rect class="cls-62" x="336.34896" y="145.58799" width="6.48773" height="6.48521"/><rect class="cls-57" x="336.34896" y="139.10026" width="6.48773" height="6.48773"/><rect class="cls-56" x="336.34896" y="132.61254" width="6.48773" height="6.48773"/><rect class="cls-55" x="336.34896" y="126.12733" width="6.48773" height="6.48521"/><rect class="cls-60" x="336.34896" y="119.6396" width="6.48773" height="6.48773"/><rect class="cls-63" x="336.34896" y="113.15188" width="6.48773" height="6.48773"/><rect class="cls-57" x="336.34896" y="106.66666" width="6.48773" height="6.48521"/><rect class="cls-57" x="336.34896" y="100.17893" width="6.48773" height="6.48773"/><rect class="cls-57" x="336.34896" y="93.69121" width="6.48773" height="6.48773"/><rect class="cls-57" x="336.34896" y="87.20599" width="6.48773" height="6.48521"/><rect class="cls-57" x="336.34896" y="80.71827" width="6.48773" height="6.48773"/><rect class="cls-52" x="336.34896" y="74.23054" width="6.48773" height="6.48773"/><rect class="cls-52" x="336.34896" y="67.74533" width="6.48773" height="6.48521"/><rect class="cls-53" x="336.34896" y="61.2576" width="6.48773" height="6.48773"/><rect class="cls-53" x="336.34896" y="54.77239" width="6.48773" height="6.48521"/><rect class="cls-52" x="336.34896" y="48.28466" width="6.48773" height="6.48773"/><rect class="cls-52" x="336.34896" y="41.79694" width="6.48773" height="6.48773"/><rect class="cls-52" x="336.34896" y="35.31173" width="6.48773" height="6.48521"/><rect class="cls-56" x="329.86375" y="158.56093" width="6.48521" height="6.48521"/><rect class="cls-58" x="329.86375" y="152.0732" width="6.48521" height="6.48773"/><rect class="cls-62" x="329.86375" y="145.58799" width="6.48521" height="6.48521"/><rect class="cls-62" x="329.86375" y="139.10026" width="6.48521" height="6.48773"/><rect class="cls-58" x="329.86375" y="132.61254" width="6.48521" height="6.48773"/><rect class="cls-58" x="329.86375" y="126.12733" width="6.48521" height="6.48521"/><rect class="cls-63" x="329.86375" y="119.6396" width="6.48521" height="6.48773"/><rect class="cls-64" x="329.86375" y="113.15188" width="6.48521" height="6.48773"/><rect class="cls-57" x="329.86375" y="106.66666" width="6.48521" height="6.48521"/><rect class="cls-62" x="329.86375" y="100.17893" width="6.48521" height="6.48773"/><rect class="cls-62" x="329.86375" y="93.69121" width="6.48521" height="6.48773"/><rect class="cls-62" x="329.86375" y="87.20599" width="6.48521" height="6.48521"/><rect class="cls-57" x="329.86375" y="80.71827" width="6.48521" height="6.48773"/><rect class="cls-57" x="329.86375" y="74.23054" width="6.48521" height="6.48773"/><rect class="cls-53" x="329.86375" y="67.74533" width="6.48521" height="6.48521"/><rect class="cls-52" x="329.86375" y="61.2576" width="6.48521" height="6.48773"/><rect class="cls-54" x="329.86375" y="54.77239" width="6.48521" height="6.48521"/><rect class="cls-52" x="329.86375" y="48.28466" width="6.48521" height="6.48773"/><rect class="cls-52" x="329.86375" y="41.79694" width="6.48521" height="6.48773"/><rect class="cls-52" x="329.86375" y="35.31173" width="6.48521" height="6.48521"/><rect class="cls-56" x="323.37603" y="158.56093" width="6.48773" height="6.48521"/><rect class="cls-64" x="323.37603" y="152.0732" width="6.48773" height="6.48773"/><rect class="cls-51" x="323.37603" y="145.58799" width="6.48773" height="6.48521"/><rect class="cls-56" x="323.37603" y="139.10026" width="6.48773" height="6.48773"/><rect class="cls-56" x="323.37603" y="132.61254" width="6.48773" height="6.48773"/><rect class="cls-58" x="323.37603" y="126.12733" width="6.48773" height="6.48521"/><rect class="cls-61" x="323.37603" y="119.6396" width="6.48773" height="6.48773"/><rect class="cls-60" x="323.37603" y="113.15188" width="6.48773" height="6.48773"/><rect class="cls-57" x="323.37603" y="106.66666" width="6.48773" height="6.48521"/><rect class="cls-62" x="323.37603" y="100.17893" width="6.48773" height="6.48773"/><rect class="cls-37" x="323.37603" y="93.69121" width="6.48773" height="6.48773"/><rect class="cls-65" x="323.37603" y="87.20599" width="6.48773" height="6.48521"/><rect x="323.37603" y="80.71827" width="6.48773" height="6.48773"/><rect class="cls-57" x="323.37603" y="74.23054" width="6.48773" height="6.48773"/><rect class="cls-52" x="323.37603" y="67.74533" width="6.48773" height="6.48521"/><rect class="cls-52" x="323.37603" y="61.2576" width="6.48773" height="6.48773"/><rect class="cls-52" x="323.37603" y="54.77239" width="6.48773" height="6.48521"/><rect class="cls-52" x="323.37603" y="48.28466" width="6.48773" height="6.48773"/><rect class="cls-52" x="323.37603" y="41.79694" width="6.48773" height="6.48773"/><rect class="cls-54" x="323.37603" y="35.31173" width="6.48773" height="6.48521"/><rect class="cls-56" x="316.89081" y="158.56093" width="6.48521" height="6.48521"/><rect class="cls-58" x="316.89081" y="152.0732" width="6.48521" height="6.48773"/><rect class="cls-56" x="316.89081" y="145.58799" width="6.48521" height="6.48521"/><rect class="cls-51" x="316.89081" y="139.10026" width="6.48521" height="6.48773"/><rect class="cls-56" x="316.89081" y="132.61254" width="6.48521" height="6.48773"/><rect class="cls-58" x="316.89081" y="126.12733" width="6.48521" height="6.48521"/><rect class="cls-60" x="316.89081" y="119.6396" width="6.48521" height="6.48773"/><rect class="cls-61" x="316.89081" y="113.15188" width="6.48521" height="6.48773"/><rect class="cls-62" x="316.89081" y="106.66666" width="6.48521" height="6.48521"/><rect class="cls-62" x="316.89081" y="100.17893" width="6.48521" height="6.48773"/><rect class="cls-54" x="316.89081" y="93.69121" width="6.48521" height="6.48773"/><rect class="cls-52" x="316.89081" y="87.20599" width="6.48521" height="6.48521"/><rect x="316.89081" y="80.71827" width="6.48521" height="6.48773"/><rect class="cls-57" x="316.89081" y="74.23054" width="6.48521" height="6.48773"/><rect class="cls-52" x="316.89081" y="67.74533" width="6.48521" height="6.48521"/><rect class="cls-54" x="316.89081" y="61.2576" width="6.48521" height="6.48773"/><rect class="cls-52" x="316.89081" y="54.77239" width="6.48521" height="6.48521"/><rect class="cls-53" x="316.89081" y="48.28466" width="6.48521" height="6.48773"/><rect class="cls-52" x="316.89081" y="41.79694" width="6.48521" height="6.48773"/><rect class="cls-52" x="316.89081" y="35.31173" width="6.48521" height="6.48521"/><rect class="cls-55" x="310.40309" y="145.58799" width="6.48773" height="6.48521"/><rect class="cls-51" x="310.40309" y="139.10026" width="6.48773" height="6.48773"/><rect class="cls-56" x="310.40309" y="132.61254" width="6.48773" height="6.48773"/><rect class="cls-56" x="310.40309" y="126.12733" width="6.48773" height="6.48521"/><rect class="cls-58" x="310.40309" y="119.6396" width="6.48773" height="6.48773"/><rect class="cls-60" x="310.40309" y="113.15188" width="6.48773" height="6.48773"/><rect class="cls-62" x="310.40309" y="106.66666" width="6.48773" height="6.48521"/><rect class="cls-62" x="310.40309" y="100.17893" width="6.48773" height="6.48773"/><rect class="cls-62" x="310.40309" y="93.69121" width="6.48773" height="6.48773"/><rect class="cls-62" x="310.40309" y="87.20599" width="6.48773" height="6.48521"/><rect class="cls-62" x="310.40309" y="80.71827" width="6.48773" height="6.48773"/><rect class="cls-62" x="310.40309" y="74.23054" width="6.48773" height="6.48773"/><rect class="cls-52" x="310.40309" y="67.74533" width="6.48773" height="6.48521"/><rect class="cls-52" x="310.40309" y="61.2576" width="6.48773" height="6.48773"/><rect class="cls-52" x="310.40309" y="54.77239" width="6.48773" height="6.48521"/><rect class="cls-52" x="310.40309" y="48.28466" width="6.48773" height="6.48773"/><rect class="cls-52" x="310.40309" y="41.79694" width="6.48773" height="6.48773"/><rect class="cls-54" x="310.40309" y="35.31173" width="6.48773" height="6.48521"/><rect class="cls-57" x="303.91536" y="139.10026" width="6.48773" height="6.48773"/><rect class="cls-57" x="303.91536" y="132.61254" width="6.48773" height="6.48773"/><rect class="cls-51" x="303.91536" y="126.12733" width="6.48773" height="6.48521"/><rect class="cls-51" x="303.91536" y="119.6396" width="6.48773" height="6.48773"/><rect class="cls-57" x="303.91536" y="106.66666" width="6.48773" height="6.48521"/><rect class="cls-62" x="303.91536" y="100.17893" width="6.48773" height="6.48773"/><rect class="cls-62" x="303.91536" y="93.69121" width="6.48773" height="6.48773"/><rect class="cls-62" x="303.91536" y="87.20599" width="6.48773" height="6.48521"/><rect class="cls-62" x="303.91536" y="80.71827" width="6.48773" height="6.48773"/><rect class="cls-62" x="303.91536" y="74.23054" width="6.48773" height="6.48773"/><rect class="cls-54" x="303.91536" y="67.74533" width="6.48773" height="6.48521"/><rect class="cls-53" x="303.91536" y="61.2576" width="6.48773" height="6.48773"/><rect class="cls-52" x="303.91536" y="54.77239" width="6.48773" height="6.48521"/><rect class="cls-52" x="303.91536" y="48.28466" width="6.48773" height="6.48773"/><rect class="cls-54" x="303.91536" y="41.79694" width="6.48773" height="6.48773"/><rect class="cls-57" x="297.43015" y="100.17893" width="6.48521" height="6.48773"/><rect class="cls-57" x="297.43015" y="93.69121" width="6.48521" height="6.48773"/><rect class="cls-57" x="297.43015" y="87.20599" width="6.48521" height="6.48521"/><rect class="cls-57" x="297.43015" y="80.71827" width="6.48521" height="6.48773"/><rect class="cls-54" x="297.43015" y="74.23054" width="6.48521" height="6.48773"/><rect class="cls-54" x="297.43015" y="67.74533" width="6.48521" height="6.48521"/><rect class="cls-54" x="297.43015" y="61.2576" width="6.48521" height="6.48773"/><rect class="cls-54" x="297.43015" y="54.77239" width="6.48521" height="6.48521"/><rect class="cls-54" x="297.43015" y="48.28466" width="6.48521" height="6.48773"/><rect class="cls-54" x="290.94242" y="74.23054" width="6.48773" height="6.48773"/><rect class="cls-54" x="290.94242" y="67.74533" width="6.48773" height="6.48521"/><rect class="cls-54" x="290.94242" y="61.2576" width="6.48773" height="6.48773"/><rect class="cls-54" x="284.4547" y="54.77239" width="6.48773" height="6.48521"/></g></g></g></g></svg>